<svg width="487" height="355" viewBox="0 0 487 355" fill="none" xmlns="http://www.w3.org/2000/svg">
<path d="M413.484 355H392.892C392.586 354.454 392.303 353.894 392.04 353.328C389.67 348.325 388.669 342.742 387.711 337.27L386.157 328.384C391.125 331.946 396.089 335.505 401.052 339.061C402.67 340.223 404.323 341.433 405.877 342.742C409.148 345.477 411.973 348.64 413.079 352.656C413.136 352.88 413.193 353.104 413.236 353.328C413.353 353.88 413.436 354.438 413.484 355Z" fill="#F0F0F0"/>
<path d="M416.372 353.328C416.373 353.363 416.371 353.398 416.365 353.433C416.296 353.967 416.168 354.493 415.982 355H406.736C406.445 354.463 406.198 353.904 405.998 353.328C405.717 352.559 405.515 351.764 405.395 350.956C405.087 348.21 405.25 345.434 405.877 342.742C406.054 341.867 406.246 340.985 406.438 340.118L407.53 335.164L413.001 343.833C414.832 346.737 416.734 349.934 416.372 353.328Z" fill="#F0F0F0"/>
<path d="M486.295 25.575H0.704776C0.51646 25.5709 0.337269 25.4942 0.205562 25.3615C0.0738557 25.2287 9.91821e-05 25.0503 9.91821e-05 24.8646C9.91821e-05 24.6789 0.0738557 24.5005 0.205562 24.3677C0.337269 24.235 0.51646 24.1583 0.704776 24.1542H486.295C486.483 24.1583 486.663 24.235 486.794 24.3677C486.926 24.5005 487 24.6789 487 24.8646C487 25.0503 486.926 25.2287 486.794 25.3615C486.663 25.4942 486.483 25.5709 486.295 25.575Z" fill="#CACACA"/>
<path d="M16.5678 15.6292C20.8494 15.6292 24.3203 12.1305 24.3203 7.81458C24.3203 3.49871 20.8494 0 16.5678 0C12.2862 0 8.81525 3.49871 8.81525 7.81458C8.81525 12.1305 12.2862 15.6292 16.5678 15.6292Z" fill="#3F3D56"/>
<path d="M43.3492 15.6292C47.6309 15.6292 51.1018 12.1305 51.1018 7.81458C51.1018 3.49871 47.6309 0 43.3492 0C39.0676 0 35.5967 3.49871 35.5967 7.81458C35.5967 12.1305 39.0676 15.6292 43.3492 15.6292Z" fill="#3F3D56"/>
<path d="M70.1307 15.6292C74.4123 15.6292 77.8833 12.1305 77.8833 7.81458C77.8833 3.49871 74.4123 0 70.1307 0C65.8491 0 62.3782 3.49871 62.3782 7.81458C62.3782 12.1305 65.8491 15.6292 70.1307 15.6292Z" fill="#3F3D56"/>
<path d="M470.249 4.77991H451.22C450.843 4.77171 450.485 4.61841 450.222 4.35285C449.958 4.08728 449.811 3.73056 449.811 3.35907C449.811 2.98758 449.958 2.63086 450.222 2.36529C450.485 2.09973 450.843 1.94643 451.22 1.93823H470.249C470.626 1.94643 470.984 2.09973 471.248 2.36529C471.511 2.63086 471.659 2.98758 471.659 3.35907C471.659 3.73056 471.511 4.08728 471.248 4.35285C470.984 4.61841 470.626 4.77171 470.249 4.77991Z" fill="#3F3D56"/>
<path d="M470.249 10.108H451.22C450.843 10.0998 450.485 9.94653 450.222 9.68096C449.958 9.4154 449.811 9.05867 449.811 8.68719C449.811 8.3157 449.958 7.95898 450.222 7.69342C450.485 7.42785 450.843 7.27456 451.22 7.26636H470.249C470.626 7.27456 470.984 7.42785 471.248 7.69342C471.511 7.95898 471.659 8.3157 471.659 8.68719C471.659 9.05867 471.511 9.4154 471.248 9.68096C470.984 9.94653 470.626 10.0998 470.249 10.108Z" fill="#3F3D56"/>
<path d="M470.249 15.4361H451.22C450.843 15.4279 450.485 15.2747 450.222 15.0091C449.958 14.7435 449.811 14.3868 449.811 14.0153C449.811 13.6438 449.958 13.2871 450.222 13.0215C450.485 12.756 450.843 12.6027 451.22 12.5945H470.249C470.626 12.6027 470.984 12.756 471.248 13.0215C471.511 13.2871 471.659 13.6438 471.659 14.0153C471.659 14.3868 471.511 14.7435 471.248 15.0091C470.984 15.2747 470.626 15.4279 470.249 15.4361Z" fill="#3F3D56"/>
<path d="M414.7 267.26H46.0045C42.1091 267.256 38.3745 265.728 35.62 263.012C32.8656 260.296 31.3162 256.614 31.3118 252.773V71.8437C31.3162 68.0028 32.8657 64.3204 35.6201 61.6044C38.3746 58.8885 42.1091 57.3608 46.0045 57.3564H414.7C418.596 57.3608 422.33 58.8885 425.085 61.6044C427.839 64.3204 429.388 68.0028 429.393 71.8437V252.773C429.389 256.614 427.839 260.296 425.085 263.012C422.33 265.728 418.596 267.256 414.7 267.26Z" fill="#F0F0F0"/>
<path d="M455.171 316.626H86.4757C82.5803 316.621 78.8457 315.093 76.0912 312.377C73.3368 309.661 71.7874 305.979 71.783 302.138V121.209C71.7874 117.368 73.3368 113.686 76.0913 110.97C78.8458 108.254 82.5803 106.726 86.4757 106.722H455.171C459.067 106.726 462.801 108.254 465.556 110.97C468.31 113.686 469.86 117.368 469.864 121.209V302.138C469.86 305.979 468.31 309.661 465.556 312.377C462.801 315.093 459.067 316.621 455.171 316.626Z" fill="white"/>
<path d="M455.171 316.626H86.4757C82.5803 316.621 78.8457 315.093 76.0912 312.377C73.3368 309.661 71.7874 305.979 71.783 302.138V121.209C71.7874 117.368 73.3368 113.686 76.0913 110.97C78.8458 108.254 82.5803 106.726 86.4757 106.722H455.171C459.067 106.726 462.801 108.254 465.556 110.97C468.31 113.686 469.86 117.368 469.864 121.209V302.138C469.86 305.979 468.31 309.661 465.556 312.377C462.801 315.093 459.067 316.621 455.171 316.626ZM86.4757 108.821C83.1447 108.825 79.9512 110.131 77.5959 112.453C75.2405 114.776 73.9156 117.925 73.9118 121.209V302.138C73.9155 305.422 75.2404 308.571 77.5958 310.894C79.9512 313.216 83.1447 314.523 86.4757 314.526H455.171C458.502 314.523 461.696 313.216 464.051 310.894C466.407 308.571 467.732 305.422 467.735 302.138V121.209C467.732 117.925 466.407 114.776 464.051 112.453C461.696 110.131 458.502 108.825 455.171 108.821H86.4757Z" fill="#E4E4E4"/>
<path d="M114.789 284.949H409.61V235.123C409.565 229.87 408.457 224.677 406.349 219.852C404.242 215.026 401.178 210.664 397.338 207.022L397.258 206.945C391.992 201.735 374.394 188.513 356.187 189.634C346.569 190.225 338.334 194.795 331.712 203.219C311.101 229.45 284.026 220.595 269.721 212.983C257.115 206.273 244.24 203.123 231.453 203.625C213.544 204.315 188.338 210.82 169.954 237.891C162.933 248.222 147.664 262.246 114.789 270.487L114.789 284.949Z" fill="#20B8DB"/>
<path d="M426.291 286.108H115.356C115.098 286.108 114.851 286.007 114.668 285.827C114.486 285.647 114.383 285.403 114.383 285.148V138.199C114.383 137.945 114.486 137.7 114.668 137.521C114.85 137.341 115.098 137.24 115.356 137.24C115.614 137.24 115.862 137.341 116.044 137.521C116.227 137.7 116.329 137.945 116.329 138.199V284.189H426.291C426.549 284.189 426.797 284.29 426.979 284.47C427.162 284.65 427.264 284.894 427.264 285.148C427.264 285.403 427.162 285.647 426.979 285.827C426.797 286.007 426.549 286.108 426.291 286.108Z" fill="#3F3D56"/>
<path d="M230.803 210.891C234.027 210.891 236.641 208.313 236.641 205.134C236.641 201.955 234.027 199.377 230.803 199.377C227.578 199.377 224.964 201.955 224.964 205.134C224.964 208.313 227.578 210.891 230.803 210.891Z" fill="#3F3D56"/>
<path d="M345.315 195.836C348.539 195.836 351.153 193.258 351.153 190.079C351.153 186.9 348.539 184.322 345.315 184.322C342.09 184.322 339.476 186.9 339.476 190.079C339.476 193.258 342.09 195.836 345.315 195.836Z" fill="#3F3D56"/>
<path d="M288.059 226.887C291.283 226.887 293.897 224.309 293.897 221.13C293.897 217.95 291.283 215.373 288.059 215.373C284.834 215.373 282.22 217.95 282.22 221.13C282.22 224.309 284.834 226.887 288.059 226.887Z" fill="#3F3D56"/>
<path d="M173.547 235.355C176.771 235.355 179.385 232.778 179.385 229.598C179.385 226.419 176.771 223.841 173.547 223.841C170.322 223.841 167.708 226.419 167.708 229.598C167.708 232.778 170.322 235.355 173.547 235.355Z" fill="#3F3D56"/>
<path d="M402.571 216.536C405.795 216.536 408.409 213.959 408.409 210.78C408.409 207.6 405.795 205.023 402.571 205.023C399.346 205.023 396.732 207.6 396.732 210.78C396.732 213.959 399.346 216.536 402.571 216.536Z" fill="#3F3D56"/>
<path d="M470.209 228.888C469.564 228.276 469.064 227.531 468.742 226.708C468.421 225.884 468.287 225.001 468.349 224.12C468.411 223.24 468.669 222.383 469.103 221.612C469.537 220.84 470.138 220.171 470.862 219.653L464.568 199.116L475.404 202.299L479.72 221.313C480.522 222.571 480.829 224.075 480.581 225.541C480.334 227.007 479.549 228.332 478.377 229.266C477.204 230.2 475.726 230.677 474.22 230.607C472.715 230.538 471.288 229.926 470.209 228.888Z" fill="#9E616A"/>
<path d="M368.032 106.763C367.917 107.638 367.998 108.528 368.27 109.369C368.541 110.21 368.996 110.982 369.603 111.631C370.21 112.279 370.954 112.789 371.782 113.124C372.61 113.459 373.503 113.61 374.397 113.568L382.505 133.477L388.945 124.314L380.258 106.812C380.087 105.336 379.372 103.973 378.249 102.981C377.127 101.99 375.674 101.439 374.167 101.433C372.66 101.427 371.203 101.966 370.073 102.948C368.942 103.931 368.216 105.288 368.032 106.763Z" fill="#9E616A"/>
<path d="M459.441 346.21H451.976L448.425 317.819L459.442 317.819L459.441 346.21Z" fill="#9E616A"/>
<path d="M461.345 353.345L437.275 353.344V353.044C437.275 350.594 438.262 348.244 440.019 346.512C441.776 344.779 444.159 343.806 446.644 343.806H446.644L461.345 343.807L461.345 353.345Z" fill="#2F2E41"/>
<path d="M435.013 345.976L427.897 343.754L433.201 315.63L443.704 318.91L435.013 345.976Z" fill="#9E616A"/>
<path d="M434.645 353.345L411.698 346.181L411.789 345.895C412.539 343.559 414.2 341.613 416.405 340.484C418.61 339.356 421.18 339.137 423.549 339.876L423.549 339.876L437.565 344.251L434.645 353.345Z" fill="#2F2E41"/>
<path d="M426.172 207.452C426.172 207.452 415.097 224.6 419.01 239.905C422.924 255.21 427.186 284.629 427.186 284.629L448.407 334.427L464.226 333.79L448.517 275.077L449.138 235.821C449.138 235.821 460.057 217.059 457.93 211.219C455.804 205.379 426.172 207.452 426.172 207.452Z" fill="#2F2E41"/>
<path d="M462.357 213.583C462.357 213.583 463.72 230.595 459.457 237.799C455.195 245.004 450.654 272.425 450.654 272.425L443.41 327.268L428.404 322.453L441.2 261.009L451.257 212.676L462.357 213.583Z" fill="#2F2E41"/>
<path d="M467.677 131.232L455.97 123.297L438.154 122.787L431.949 128.784L422.481 133.552L421.604 211.219C421.604 211.219 449.957 224.619 465.211 218.151L472.548 157.649C475.593 145.641 467.677 131.232 467.677 131.232Z" fill="#3F3D56"/>
<path d="M424.859 154.307H393.63L373.113 119.484L386.454 114.273L397.752 134.09L414.105 132.631L424.316 132.144C425.952 132.066 427.586 132.342 429.103 132.951C430.62 133.561 431.984 134.49 433.099 135.674C434.213 136.857 435.052 138.267 435.557 139.803C436.062 141.34 436.22 142.967 436.02 144.57C435.683 147.256 434.363 149.727 432.307 151.52C430.252 153.313 427.603 154.304 424.859 154.307Z" fill="#3F3D56"/>
<path d="M448.514 116.391C457.046 116.391 463.962 109.571 463.962 101.159C463.962 92.7468 457.046 85.9274 448.514 85.9274C439.983 85.9274 433.067 92.7468 433.067 101.159C433.067 109.571 439.983 116.391 448.514 116.391Z" fill="#9E616A"/>
<path d="M467.127 97.6936C466.653 94.3496 464.356 91.1745 461.089 90.1614C459.792 86.4459 456.355 83.7105 452.557 82.5181C449.041 81.4125 445.251 81.4892 441.784 82.7362C438.316 83.9833 435.367 86.3301 433.398 89.4084C433.107 89.859 432.213 90.9658 432.238 91.5035C432.27 92.1863 433.329 92.8913 433.862 93.3218C435.181 94.327 436.603 95.1928 438.106 95.9048C443.661 98.7444 441.812 103.207 441.736 108.264C441.7 110.721 442.532 112.82 444.657 114.223C447.724 116.249 452.113 115.443 455.45 114.63C459.237 113.707 462.385 110.427 464.545 107.265C466.457 104.464 467.602 101.038 467.127 97.6936Z" fill="#2F2E41"/>
<path d="M466.973 150.764L480.072 214.755L460.762 215.796L466.973 150.764Z" fill="#3F3D56"/>
<path d="M480.498 354.16C480.498 354.27 480.477 354.379 480.435 354.481C480.393 354.582 480.33 354.675 480.252 354.753C480.174 354.831 480.08 354.893 479.978 354.935C479.875 354.977 479.765 355 479.653 355H379.388C379.163 355 378.948 354.912 378.789 354.755C378.63 354.598 378.54 354.386 378.54 354.164C378.54 353.942 378.63 353.729 378.789 353.573C378.948 353.416 379.163 353.328 379.388 353.328H479.653C479.877 353.328 480.092 353.416 480.25 353.572C480.408 353.728 480.497 353.94 480.498 354.16Z" fill="#CACACA"/>
</svg>
