<svg width="325" height="251" viewBox="0 0 325 251" fill="none" xmlns="http://www.w3.org/2000/svg">
<g clip-path="url(#clip0_59:436)">
<path d="M264.496 25.2265C266.572 17.2731 264.598 7.99758 257.889 2.76611C257.758 11.6705 254.277 20.2443 248.062 26.9706C245.655 29.5565 242.691 32.1973 242.574 35.63C242.502 37.7658 243.612 39.8173 245.142 41.3992C246.672 42.9811 248.602 44.1649 250.51 45.3307L250.79 45.7948C256.929 39.9793 262.419 33.1798 264.496 25.2265Z" fill="#F0F0F0"/>
<path d="M257.754 2.88261C260.327 9.21548 260.71 16.1486 258.848 22.6973C258.473 24.1138 257.864 25.466 257.041 26.7042C256.198 27.8861 255.034 28.8344 253.669 29.4507C252.408 30.0494 251.045 30.5246 249.961 31.4006C249.413 31.8568 248.975 32.4164 248.674 33.043C248.373 33.6695 248.216 34.3487 248.214 35.0361C248.162 36.7487 248.768 38.3768 249.419 39.9496C250.143 41.696 250.924 43.4991 250.756 45.4111C250.736 45.6427 251.12 45.6587 251.14 45.4274C251.431 42.1009 249.025 39.291 248.644 36.0645C248.466 34.5589 248.77 32.9938 249.955 31.8961C250.992 30.9363 252.397 30.445 253.679 29.8492C255.02 29.2663 256.189 28.3839 257.083 27.2791C257.97 26.0843 258.634 24.7563 259.047 23.3522C260.03 20.2051 260.48 16.9324 260.38 13.654C260.288 9.91189 259.515 6.21211 258.094 2.71473C258.006 2.4983 257.667 2.66759 257.754 2.88261V2.88261Z" fill="white"/>
<path d="M259.579 20.6217C260.792 20.7659 262.019 20.5007 263.043 19.8735C264.066 19.2462 264.819 18.2978 265.166 17.1975C265.236 16.9746 264.87 16.8628 264.801 17.0859C264.479 18.111 263.778 18.9945 262.824 19.5767C261.869 20.159 260.725 20.4017 259.597 20.2611C259.351 20.2309 259.335 20.5916 259.579 20.6217Z" fill="white"/>
<path d="M254.35 29.2259C252.802 27.3846 252.05 25.063 252.244 22.7241C252.263 22.4923 251.879 22.4763 251.86 22.7077C251.663 25.1421 252.451 27.5565 254.067 29.4693C254.221 29.6515 254.504 29.4071 254.35 29.2259Z" fill="white"/>
<path d="M259.825 10.1118C259.343 10.1478 258.86 10.0709 258.418 9.88811C257.976 9.70528 257.589 9.4222 257.292 9.06431C257.141 8.88033 256.858 9.12495 257.008 9.30771C257.338 9.70169 257.766 10.0138 258.254 10.2168C258.742 10.4199 259.275 10.5076 259.807 10.4724C259.858 10.473 259.907 10.4556 259.944 10.4236C259.981 10.3916 260.004 10.3475 260.008 10.3003C260.01 10.2525 259.992 10.2059 259.958 10.1706C259.923 10.1354 259.876 10.1142 259.825 10.1118Z" fill="white"/>
<path d="M228.877 7.91504C228.968 8.03243 229.059 8.14983 229.149 8.27012C230.366 9.85435 231.444 11.5288 232.372 13.277C232.446 13.4111 232.519 13.548 232.589 13.6838C234.778 17.9179 236.11 22.4968 236.519 27.1877C236.68 29.0545 236.689 30.93 236.547 32.7981C236.35 35.378 235.918 38.1605 236.62 40.5795C236.69 40.8327 236.777 41.0815 236.88 41.3245L250.165 46.0798C250.201 46.0764 250.236 46.0758 250.272 46.0725L250.793 46.2851C250.808 46.1892 250.821 46.0895 250.835 45.9936C250.844 45.9381 250.85 45.8814 250.858 45.8259C250.863 45.7885 250.868 45.751 250.874 45.7175C250.876 45.7051 250.878 45.6926 250.878 45.683C250.885 45.6495 250.887 45.6178 250.893 45.5871C250.966 45.0299 251.035 44.4713 251.101 43.9111C251.102 43.9083 251.102 43.9083 251.1 43.9044C251.642 39.6408 251.643 35.332 251.103 31.0682C251.085 30.9412 251.069 30.8114 251.045 30.6821C250.766 28.7803 250.321 26.903 249.716 25.0691C249.382 24.0659 248.993 23.0793 248.552 22.113C247.408 19.6183 245.853 17.3082 243.944 15.2673C240.138 11.1993 234.989 8.31966 229.311 7.94003C229.165 7.93043 229.023 7.92179 228.877 7.91504Z" fill="#F0F0F0"/>
<path d="M228.842 8.08411C234.957 11.6859 239.708 17.0053 242.419 23.2868C243.029 24.6294 243.409 26.0537 243.546 27.5074C243.631 28.9276 243.309 30.3431 242.614 31.607C241.992 32.7977 241.208 33.9479 240.904 35.26C240.759 35.9338 240.768 36.6287 240.929 37.2992C241.091 37.9697 241.401 38.6006 241.84 39.1505C242.896 40.5476 244.424 41.5049 245.953 42.3923C247.65 43.3776 249.43 44.3757 250.522 45.9969C250.654 46.1933 250.971 45.989 250.839 45.7929C248.939 42.9723 245.216 42.089 242.843 39.7285C241.735 38.6271 240.975 37.2056 241.217 35.6589C241.43 34.3065 242.237 33.1197 242.878 31.9192C243.575 30.6956 243.943 29.3303 243.948 27.9425C243.891 26.487 243.569 25.0512 242.999 23.6968C241.766 20.6284 240.026 17.7611 237.845 15.2C235.372 12.2641 232.383 9.74703 229.006 7.75767C228.797 7.63462 228.634 7.96187 228.842 8.08413V8.08411Z" fill="white"/>
<path d="M241.673 21.216C242.734 20.6456 243.544 19.7399 243.959 18.6604C244.374 17.5809 244.367 16.3981 243.939 15.3231C243.851 15.1059 243.488 15.2232 243.575 15.4407C243.976 16.4411 243.982 17.5429 243.594 18.5473C243.205 19.5518 242.447 20.3927 241.456 20.9183C241.241 21.0327 241.459 21.3298 241.673 21.216Z" fill="white"/>
<path d="M243.015 31.0426C240.598 30.4478 238.509 29.0194 237.164 27.0424C237.031 26.8464 236.714 27.0507 236.847 27.2464C238.251 29.3013 240.428 30.7836 242.944 31.3974C243.184 31.4558 243.253 31.1007 243.015 31.0426Z" fill="white"/>
<path d="M235.131 12.6855C234.769 12.9865 234.334 13.1985 233.864 13.3024C233.394 13.4064 232.903 13.399 232.437 13.281C232.198 13.2199 232.129 13.5751 232.367 13.6358C232.882 13.7639 233.424 13.7714 233.944 13.6577C234.463 13.5439 234.946 13.3124 235.348 12.9833C235.389 12.9552 235.417 12.9137 235.426 12.8671C235.435 12.8205 235.425 12.7723 235.398 12.7324C235.369 12.6931 235.325 12.6661 235.275 12.6574C235.225 12.6486 235.173 12.6587 235.131 12.6856V12.6855Z" fill="white"/>
<path d="M211.311 187.571C166.771 187.571 130.535 153.544 130.535 111.719C130.535 69.8943 166.771 35.8672 211.311 35.8672C216.02 35.8666 220.72 36.2491 225.358 37.0102C225.416 37.0196 225.471 37.0396 225.521 37.0691C225.57 37.0985 225.613 37.1369 225.647 37.182C225.681 37.2271 225.705 37.278 225.718 37.3318C225.731 37.3856 225.732 37.4412 225.722 37.4955C225.712 37.5498 225.69 37.6016 225.659 37.6481C225.627 37.6946 225.586 37.7348 225.538 37.7664C225.49 37.798 225.436 37.8204 225.378 37.8323C225.321 37.8442 225.262 37.8453 225.204 37.8357C220.616 37.0831 215.968 36.7049 211.311 36.7053C167.263 36.7053 131.428 70.3563 131.428 111.719C131.428 153.082 167.263 186.733 211.311 186.733C255.358 186.733 291.194 153.082 291.194 111.719C291.214 93.0236 283.779 74.9984 270.355 61.1922C270.276 61.1099 270.235 61.0017 270.241 60.8911C270.247 60.7805 270.299 60.6765 270.386 60.6019C270.473 60.5272 270.588 60.488 270.706 60.4928C270.824 60.4976 270.935 60.546 271.015 60.6274C284.589 74.5879 292.106 92.8146 292.086 111.719C292.086 153.544 255.851 187.571 211.311 187.571Z" fill="#E4E4E4"/>
<path d="M246.927 61.8815C255.753 61.8815 262.908 55.1624 262.908 46.8741C262.908 38.5857 255.753 31.8667 246.927 31.8667C238.1 31.8667 230.945 38.5857 230.945 46.8741C230.945 55.1624 238.1 61.8815 246.927 61.8815Z" fill="#92EAF1"/>
<path d="M244.747 54.6846C244.471 54.6846 244.198 54.6243 243.952 54.5083C243.705 54.3924 243.49 54.2241 243.325 54.0167L238.965 48.5577C238.824 48.3823 238.723 48.1827 238.665 47.9704C238.607 47.758 238.594 47.537 238.627 47.32C238.66 47.103 238.738 46.8942 238.857 46.7056C238.976 46.5169 239.133 46.3521 239.32 46.2206C239.507 46.0891 239.719 45.9934 239.946 45.939C240.172 45.8846 240.407 45.8726 240.638 45.9036C240.869 45.9346 241.092 46.008 241.292 46.1197C241.493 46.2314 241.669 46.3792 241.809 46.5546L244.661 50.1257L251.988 39.8064C252.25 39.4396 252.656 39.1853 253.118 39.0993C253.579 39.0133 254.058 39.1027 254.45 39.3478C254.841 39.5929 255.113 39.9737 255.206 40.4068C255.299 40.84 255.206 41.2901 254.946 41.6585L246.226 53.9412C246.068 54.1633 245.856 54.3467 245.607 54.476C245.358 54.6052 245.08 54.6766 244.796 54.6841C244.78 54.6844 244.763 54.6846 244.747 54.6846Z" fill="white"/>
<path d="M209.233 99.9479L184.588 35.5656L185.213 35.3546L180.68 23.513L180.055 23.7242L172.488 3.95678C172.206 3.21848 171.771 2.53969 171.209 1.95915C170.647 1.37861 169.969 0.907699 169.213 0.573296C168.457 0.238894 167.639 0.0475493 166.804 0.0101941C165.97 -0.0271611 165.136 0.0902025 164.349 0.355582L119.797 15.3941C119.011 15.6594 118.288 16.0676 117.669 16.5953C117.051 17.123 116.55 17.7599 116.194 18.4696C115.837 19.1793 115.634 19.9479 115.594 20.7315C115.554 21.5152 115.679 22.2985 115.962 23.0368L121.238 36.8198L120.25 37.1769L123.618 45.3895L124.409 45.1036L125.108 46.9304L124.267 47.2347L127.635 55.4473L128.279 55.2142L152.706 119.028C152.987 119.767 153.421 120.447 153.983 121.028C154.545 121.61 155.223 122.081 155.979 122.416C156.735 122.75 157.554 122.941 158.389 122.978C159.224 123.015 160.059 122.896 160.845 122.629L205.397 107.591C206.984 107.053 208.279 105.947 208.998 104.514C209.717 103.081 209.801 101.439 209.233 99.9479Z" fill="#3F3D56"/>
<path d="M158.502 120.507C157.874 120.506 157.263 120.323 156.75 119.984C156.237 119.645 155.848 119.165 155.635 118.611L118.503 21.6067C118.229 20.8922 118.269 20.1051 118.614 19.4183C118.959 18.7315 119.58 18.2014 120.34 17.9445L129.82 14.7448L129.806 15.0563C129.781 15.5969 129.899 16.1348 130.148 16.6227C130.397 17.1106 130.771 17.5335 131.235 17.854C131.699 18.1745 132.24 18.3829 132.81 18.4609C133.381 18.5388 133.963 18.4838 134.505 18.3008L155.542 11.1997C156.05 10.9812 156.496 10.6536 156.844 10.2432C157.192 9.83288 157.432 9.3514 157.545 8.83772C157.657 8.33261 157.64 7.80982 157.496 7.31202C157.351 6.81423 157.084 6.35553 156.715 5.97337L156.493 5.74152L166.284 2.43622C167.045 2.18047 167.883 2.21852 168.614 2.54204C169.345 2.86556 169.91 3.44814 170.185 4.16202L205.612 96.7122C206.335 98.6082 206.227 100.696 205.313 102.518C204.399 104.339 202.753 105.746 200.736 106.43L159.535 120.337C159.204 120.449 158.854 120.507 158.502 120.507Z" fill="white"/>
<path d="M154.872 51.7041C161.527 51.7041 166.921 46.6382 166.921 40.3892C166.921 34.1401 161.527 29.0742 154.872 29.0742C148.217 29.0742 142.823 34.1401 142.823 40.3892C142.823 46.6382 148.217 51.7041 154.872 51.7041Z" fill="#92EAF1"/>
<path d="M184.73 56.8436L143.003 70.9286C142.872 70.9729 142.734 70.9926 142.595 70.9867C142.457 70.9807 142.321 70.9491 142.196 70.8938C142.07 70.8384 141.958 70.7604 141.864 70.6641C141.771 70.5678 141.699 70.4552 141.652 70.3328C141.605 70.2103 141.584 70.0803 141.591 69.9503C141.598 69.8203 141.632 69.6928 141.691 69.5751C141.75 69.4574 141.833 69.3518 141.936 69.2644C142.039 69.1771 142.159 69.1096 142.29 69.0658L184.017 54.9808C184.28 54.8928 184.569 54.9063 184.822 55.0183C185.074 55.1303 185.269 55.3317 185.363 55.5783C185.457 55.8249 185.444 56.0966 185.325 56.3338C185.207 56.571 184.993 56.7543 184.73 56.8436Z" fill="#E6E6E6"/>
<path d="M172.339 65.7743L158.613 70.4072C158.483 70.4514 158.345 70.4711 158.206 70.4651C158.068 70.4591 157.932 70.4275 157.806 70.3722C157.681 70.3168 157.568 70.2388 157.475 70.1425C157.382 70.0463 157.31 69.9337 157.263 69.8112C157.216 69.6887 157.195 69.5588 157.202 69.4288C157.209 69.2988 157.242 69.1713 157.302 69.0537C157.361 68.936 157.444 68.8304 157.547 68.743C157.65 68.6556 157.77 68.5881 157.9 68.5443L171.625 63.9114C171.889 63.8226 172.178 63.8356 172.431 63.9474C172.684 64.0593 172.879 64.261 172.974 64.508C173.068 64.755 173.055 65.0272 172.935 65.2647C172.816 65.5022 172.602 65.6855 172.339 65.7743Z" fill="#E6E6E6"/>
<path d="M175.603 74.3026L161.878 78.9355C161.748 78.9795 161.609 78.9989 161.471 78.9927C161.333 78.9865 161.197 78.9548 161.072 78.8994C160.947 78.844 160.834 78.766 160.741 78.6698C160.648 78.5737 160.576 78.4612 160.529 78.3389C160.483 78.2166 160.462 78.0868 160.468 77.957C160.475 77.8271 160.509 77.6998 160.568 77.5822C160.627 77.4646 160.71 77.3591 160.812 77.2717C160.915 77.1842 161.034 77.1166 161.165 77.0726L174.89 72.4397C175.153 72.3509 175.443 72.3639 175.696 72.4758C175.949 72.5876 176.144 72.7893 176.239 73.0363C176.333 73.2834 176.319 73.5555 176.2 73.793C176.081 74.0305 175.866 74.2138 175.603 74.3026V74.3026Z" fill="#E6E6E6"/>
<path d="M177.275 78.6704L163.55 83.3034C163.42 83.3477 163.281 83.3675 163.143 83.3615C163.004 83.3556 162.868 83.324 162.743 83.2687C162.617 83.2134 162.505 83.1353 162.411 83.0391C162.318 82.9428 162.246 82.8301 162.199 82.7076C162.152 82.5851 162.131 82.4551 162.138 82.3251C162.145 82.1951 162.179 82.0675 162.238 81.9498C162.297 81.8321 162.381 81.7266 162.483 81.6392C162.586 81.5518 162.706 81.4843 162.837 81.4406L176.562 76.8077C176.693 76.7633 176.831 76.7436 176.969 76.7496C177.108 76.7556 177.244 76.7871 177.369 76.8425C177.495 76.8978 177.607 76.9759 177.701 77.0721C177.794 77.1684 177.866 77.281 177.913 77.4035C177.96 77.526 177.98 77.6559 177.974 77.786C177.967 77.916 177.933 78.0435 177.874 78.1612C177.815 78.2788 177.731 78.3844 177.629 78.4718C177.526 78.5592 177.406 78.6267 177.275 78.6704L177.275 78.6704Z" fill="#E6E6E6"/>
<path d="M181.646 67.3799L152.525 77.2094C152.395 77.2537 152.256 77.2735 152.118 77.2675C151.979 77.2615 151.843 77.23 151.718 77.1746C151.593 77.1193 151.48 77.0412 151.387 76.945C151.293 76.8487 151.221 76.7361 151.174 76.6136C151.127 76.4911 151.107 76.3612 151.113 76.2311C151.12 76.1011 151.154 75.9736 151.213 75.8559C151.272 75.7383 151.356 75.6327 151.459 75.5453C151.561 75.4579 151.681 75.3904 151.812 75.3467L180.933 65.5171C181.063 65.4728 181.201 65.4531 181.34 65.4591C181.478 65.465 181.614 65.4966 181.74 65.5519C181.865 65.6073 181.978 65.6853 182.071 65.7816C182.164 65.8779 182.236 65.9905 182.283 66.113C182.33 66.2354 182.351 66.3654 182.344 66.4954C182.337 66.6254 182.304 66.7529 182.244 66.8706C182.185 66.9883 182.102 67.0939 181.999 67.1813C181.896 67.2687 181.776 67.3362 181.646 67.3799Z" fill="#E6E6E6"/>
<path d="M175.78 89.2747L170.796 90.9569C170.349 91.1076 169.857 91.0853 169.427 90.895C168.997 90.7047 168.665 90.3619 168.505 89.942C168.344 89.5222 168.367 89.0596 168.57 88.6559C168.772 88.2522 169.137 87.9405 169.584 87.7893L174.567 86.1071C175.015 85.9565 175.507 85.9788 175.937 86.1691C176.367 86.3594 176.698 86.7022 176.859 87.122C177.02 87.5419 176.997 88.0045 176.794 88.4082C176.592 88.8118 176.227 89.1235 175.78 89.2747Z" fill="#92EAF1"/>
<path d="M136.507 15.059C136.89 15.059 137.2 14.7676 137.2 14.4081C137.2 14.0487 136.89 13.7573 136.507 13.7573C136.125 13.7573 135.814 14.0487 135.814 14.4081C135.814 14.7676 136.125 15.059 136.507 15.059Z" fill="white"/>
<path d="M56.8032 51.0107C64.5708 42.4246 77.1742 37.0135 88.7937 39.8189C78.3285 47.1351 70.9565 57.6916 67.9819 69.6205C66.8525 74.2249 66.1068 79.4565 62.1258 82.3462C59.6488 84.1443 56.3181 84.6358 53.2067 84.3095C50.0952 83.9832 47.1337 82.917 44.212 81.8602L43.4352 81.9412C45.3892 70.8254 49.0355 59.5969 56.8032 51.0107Z" fill="#F0F0F0"/>
<path d="M88.7644 40.0541C79.1719 42.4663 70.6327 47.6554 64.3596 54.8844C62.9797 56.4182 61.8659 58.1466 61.0592 60.006C60.3357 61.8411 60.1487 63.8248 60.5177 65.7507C60.8233 67.553 61.3581 69.3633 61.1919 71.204C61.0919 72.145 60.7812 73.0555 60.2802 73.8758C59.7791 74.6961 59.0991 75.4077 58.2847 75.964C56.2938 77.3995 53.8723 78.0777 51.4797 78.6636C48.8232 79.3141 46.053 79.9503 43.918 81.6669C43.6593 81.8748 43.3308 81.4857 43.5891 81.2781C47.3036 78.2916 52.579 78.5448 56.7171 76.343C58.648 75.3155 60.2609 73.7355 60.6083 71.6095C60.9121 69.7505 60.3623 67.8832 60.0361 66.0609C59.6468 64.187 59.7521 62.2521 60.3427 60.4252C61.046 58.5332 62.087 56.7674 63.4212 55.2034C66.3651 51.6374 69.8878 48.5281 73.8602 45.9896C78.3768 43.0688 83.3922 40.8951 88.6894 39.5625C89.0173 39.4801 89.0902 39.9723 88.7645 40.0541H88.7644Z" fill="white"/>
<path d="M66.2336 52.4451C65.0849 51.2921 64.41 49.7933 64.3295 48.2162C64.249 46.6391 64.7682 45.0864 65.7942 43.8356C66.0027 43.5832 66.4302 43.8756 66.2214 44.1284C65.2637 45.2915 64.7803 46.7378 64.8585 48.2063C64.9366 49.6747 65.5712 51.0686 66.6476 52.1362C66.8813 52.3685 66.4659 52.6761 66.2336 52.4451H66.2336Z" fill="white"/>
<path d="M60.2346 64.8562C63.6686 64.9924 67.0312 63.9082 69.6518 61.8197C69.9112 61.6126 70.2398 62.0016 69.9807 62.2085C67.2493 64.377 63.7476 65.4986 60.1744 65.3495C59.8338 65.335 59.8958 64.8418 60.2346 64.8562Z" fill="white"/>
<path d="M78.5123 43.7149C78.8578 44.248 79.3388 44.6922 79.9123 45.0075C80.4857 45.3229 81.1336 45.4995 81.7977 45.5216C82.1383 45.532 82.076 46.0253 81.7376 46.015C81.004 45.9873 80.2887 45.7914 79.6543 45.4443C79.0199 45.0972 78.4857 44.6095 78.0983 44.0238C78.0569 43.9715 78.0382 43.9063 78.0461 43.8415C78.054 43.7767 78.0879 43.7171 78.1408 43.675C78.1959 43.6343 78.2658 43.6157 78.3353 43.6232C78.4049 43.6307 78.4685 43.6636 78.5123 43.7149Z" fill="white"/>
<path d="M106.072 74.3416C105.859 74.3408 105.646 74.34 105.43 74.3426C102.568 74.3458 99.7115 74.5673 96.8877 75.0049C96.6688 75.0355 96.4475 75.0696 96.23 75.106C89.4389 76.2285 82.9288 78.5252 77.0306 81.8794C74.6848 83.2161 72.4508 84.7185 70.3478 86.3735C67.4436 88.6593 64.4883 91.3547 61.0508 92.5703C60.6937 92.7009 60.3283 92.8106 59.9567 92.8988L43.6007 82.8251C43.5757 82.7847 43.5482 82.7476 43.5231 82.7071L42.8504 82.3329C42.9525 82.2405 43.0606 82.1466 43.1627 82.0542C43.2217 82.0003 43.2843 81.9487 43.3433 81.8948C43.3838 81.8596 43.4245 81.8245 43.4589 81.7905C43.4723 81.7788 43.4859 81.7671 43.4969 81.7588C43.5313 81.7249 43.5671 81.6968 43.599 81.6664C44.2013 81.1402 44.8086 80.6171 45.4208 80.0971C45.4233 80.0936 45.4233 80.0936 45.4294 80.0924C50.1052 76.1413 55.1733 72.5221 60.6653 69.7402C60.8306 69.6566 60.9981 69.5693 61.1709 69.4903C63.6538 68.2493 66.2407 67.2009 68.9055 66.3556C70.3663 65.8972 71.8508 65.5085 73.3534 65.191C77.2377 64.3778 81.234 64.1433 85.1958 64.4962C93.0936 65.2007 100.663 68.2693 105.692 73.9073C105.82 74.0516 105.946 74.1938 106.072 74.3416Z" fill="#F0F0F0"/>
<path d="M105.899 74.5138C96.693 71.0165 86.5479 70.3319 76.9043 72.5573C74.8192 73.0017 72.8217 73.752 70.9854 74.7806C69.2311 75.8368 67.81 77.3149 66.8698 79.0613C65.9583 80.6731 65.2247 82.4209 63.9118 83.7965C63.2286 84.4913 62.3968 85.0427 61.4708 85.4144C60.5448 85.7861 59.5455 85.9698 58.5386 85.9535C56.0286 85.9741 53.6604 85.1465 51.3744 84.2617C48.8363 83.2792 46.2165 82.2209 43.4113 82.3844C43.0714 82.4042 43.0585 81.9078 43.3979 81.8881C48.2785 81.6036 52.3283 84.7883 57.044 85.3698C59.2445 85.6412 61.5453 85.2914 63.1858 83.7904C64.6203 82.4778 65.3785 80.6761 66.2864 79.0366C67.177 77.3204 68.5016 75.835 70.1445 74.7102C71.9191 73.5972 73.8825 72.7759 75.9505 72.2814C80.5874 71.0985 85.3936 70.6076 90.1929 70.8266C95.6718 71.0481 101.07 72.148 106.154 74.0789C106.469 74.1985 106.211 74.6327 105.899 74.5138L105.899 74.5138Z" fill="white"/>
<path d="M79.9646 71.6692C79.7866 70.0991 80.2088 68.5208 81.1557 67.216C82.1026 65.9113 83.5125 64.9651 85.1337 64.5465C85.4621 64.4628 85.616 64.938 85.2872 65.0218C83.7767 65.409 82.4634 66.2905 81.5843 67.5072C80.7053 68.7238 80.3183 70.1955 80.4932 71.6566C80.5308 71.9741 80.002 71.9849 79.9646 71.6692V71.6692Z" fill="white"/>
<path d="M67.2174 78.1867C69.8719 80.237 73.2519 81.2724 76.6833 81.0865C77.0233 81.0678 77.0362 81.5642 76.6967 81.5828C73.1255 81.7701 69.6105 80.6858 66.8531 78.5465C66.5904 78.3424 66.9562 77.9837 67.2174 78.1867H67.2174Z" fill="white"/>
<path d="M95.3658 71.6404C95.2999 72.2614 95.3992 72.888 95.6549 73.464C95.9106 74.04 96.3146 74.5473 96.8307 74.9405C97.096 75.1413 96.7299 75.4999 96.4664 75.3003C95.8983 74.8635 95.4528 74.3027 95.1689 73.6669C94.8849 73.0311 94.771 72.3396 94.8372 71.653C94.8377 71.5878 94.8646 71.5251 94.9124 71.4779C94.9603 71.4306 95.0255 71.4022 95.0949 71.3985C95.1649 71.3972 95.2326 71.4218 95.2833 71.4671C95.3341 71.5124 95.3637 71.5747 95.3658 71.6404Z" fill="white"/>
<path d="M289.922 216.037C298.391 217.987 308.269 216.133 313.84 209.833C304.358 209.71 295.227 206.441 288.064 200.605C285.311 198.345 282.498 195.562 278.843 195.452C276.568 195.384 274.384 196.427 272.699 197.864C271.015 199.3 269.754 201.113 268.513 202.904L268.018 203.167C274.211 208.932 281.452 214.087 289.922 216.037Z" fill="#F0F0F0"/>
<path d="M313.716 209.707C306.972 212.123 299.589 212.482 292.615 210.734C291.107 210.382 289.667 209.81 288.348 209.037C287.09 208.246 286.08 207.152 285.424 205.87C284.786 204.687 284.28 203.406 283.347 202.389C282.861 201.875 282.265 201.463 281.598 201.18C280.931 200.897 280.208 200.75 279.476 200.748C277.652 200.699 275.918 201.268 274.243 201.88C272.384 202.559 270.463 203.293 268.427 203.136C268.181 203.117 268.164 203.477 268.41 203.496C271.952 203.769 274.945 201.51 278.381 201.152C279.984 200.985 281.651 201.27 282.819 202.383C283.842 203.357 284.365 204.676 284.999 205.88C285.62 207.14 286.56 208.237 287.736 209.077C289.009 209.91 290.423 210.534 291.918 210.921C295.269 211.844 298.755 212.266 302.246 212.172C306.231 212.086 310.171 211.36 313.895 210.026C314.126 209.944 313.945 209.625 313.716 209.707H313.716Z" fill="white"/>
<path d="M294.826 211.421C294.672 212.56 294.954 213.712 295.622 214.673C296.29 215.635 297.3 216.341 298.472 216.668C298.709 216.733 298.829 216.39 298.591 216.324C297.499 216.022 296.558 215.364 295.938 214.468C295.318 213.572 295.06 212.497 295.21 211.437C295.242 211.207 294.858 211.192 294.826 211.421V211.421Z" fill="white"/>
<path d="M285.663 206.511C287.623 205.057 290.096 204.351 292.587 204.532C292.833 204.551 292.85 204.19 292.604 204.172C290.012 203.987 287.44 204.727 285.404 206.244C285.209 206.389 285.47 206.655 285.663 206.511H285.663Z" fill="white"/>
<path d="M306.018 211.651C305.979 211.199 306.061 210.745 306.256 210.33C306.45 209.915 306.752 209.552 307.133 209.273C307.329 209.131 307.068 208.865 306.874 209.007C306.454 209.316 306.122 209.718 305.906 210.176C305.689 210.634 305.596 211.135 305.634 211.635C305.633 211.682 305.651 211.728 305.686 211.763C305.72 211.798 305.767 211.82 305.817 211.823C305.868 211.825 305.917 211.808 305.955 211.776C305.992 211.744 306.015 211.699 306.018 211.651Z" fill="white"/>
<path d="M308.357 182.589C308.232 182.675 308.107 182.761 307.979 182.845C306.292 183.988 304.509 185 302.647 185.872C302.504 185.942 302.358 186.01 302.214 186.076C297.705 188.131 292.829 189.382 287.833 189.766C285.845 189.917 283.848 189.925 281.859 189.792C279.111 189.607 276.148 189.202 273.572 189.861C273.303 189.927 273.038 190.008 272.779 190.105L267.715 202.58C267.719 202.614 267.719 202.647 267.723 202.681L267.496 203.17C267.598 203.184 267.705 203.196 267.807 203.21C267.866 203.218 267.926 203.223 267.985 203.231C268.025 203.236 268.065 203.24 268.101 203.246C268.114 203.248 268.127 203.249 268.138 203.25C268.173 203.256 268.207 203.258 268.24 203.263C268.833 203.332 269.428 203.398 270.024 203.459C270.027 203.46 270.027 203.46 270.032 203.458C274.572 203.967 279.16 203.968 283.701 203.461C283.836 203.444 283.975 203.429 284.112 203.406C286.137 203.144 288.137 202.727 290.089 202.159C291.158 201.845 292.208 201.48 293.237 201.066C295.894 199.991 298.354 198.531 300.528 196.738C304.86 193.164 307.926 188.329 308.33 182.997C308.341 182.861 308.35 182.727 308.357 182.589Z" fill="#F0F0F0"/>
<path d="M308.177 182.557C304.341 188.299 298.677 192.76 291.988 195.307C290.558 195.879 289.041 196.236 287.493 196.365C285.981 196.444 284.473 196.142 283.127 195.49C281.859 194.905 280.634 194.169 279.237 193.884C278.52 193.748 277.78 193.756 277.066 193.908C276.352 194.059 275.68 194.35 275.094 194.763C273.606 195.755 272.587 197.189 271.642 198.625C270.593 200.219 269.53 201.89 267.803 202.916C267.594 203.04 267.812 203.337 268.021 203.213C271.024 201.429 271.965 197.933 274.479 195.704C275.651 194.664 277.165 193.95 278.812 194.178C280.253 194.377 281.516 195.135 282.795 195.738C284.098 196.392 285.552 196.737 287.03 196.743C288.58 196.688 290.109 196.387 291.551 195.851C294.818 194.693 297.872 193.06 300.599 191.011C303.726 188.689 306.406 185.882 308.525 182.711C308.656 182.515 308.307 182.362 308.177 182.557H308.177Z" fill="white"/>
<path d="M294.193 194.606C294.8 195.602 295.765 196.363 296.914 196.752C298.064 197.142 299.323 197.135 300.468 196.733C300.7 196.651 300.575 196.31 300.343 196.392C299.278 196.768 298.104 196.774 297.035 196.409C295.965 196.044 295.07 195.332 294.51 194.402C294.388 194.2 294.072 194.405 294.193 194.606Z" fill="white"/>
<path d="M283.729 195.866C284.362 193.596 285.883 191.635 287.988 190.372C288.197 190.247 287.98 189.949 287.771 190.074C285.583 191.392 284.004 193.437 283.351 195.8C283.289 196.025 283.667 196.09 283.729 195.866Z" fill="white"/>
<path d="M303.277 188.463C302.956 188.123 302.731 187.714 302.62 187.273C302.509 186.831 302.517 186.371 302.643 185.933C302.708 185.709 302.33 185.644 302.265 185.867C302.128 186.351 302.12 186.86 302.242 187.348C302.363 187.836 302.609 188.289 302.96 188.667C302.99 188.705 303.034 188.731 303.083 188.74C303.133 188.748 303.184 188.739 303.227 188.713C303.269 188.686 303.297 188.645 303.307 188.598C303.316 188.551 303.305 188.502 303.277 188.463Z" fill="white"/>
<path d="M323.86 139.593L310.944 160.002L311.435 160.245L307.062 168.032L306.151 167.579L303.277 172.118L303.991 172.503L299.306 180.122L298.493 179.682L256.352 246.281C255.246 248.024 253.45 249.284 251.357 249.784C249.263 250.284 247.044 249.985 245.186 248.95L166.842 205.237C164.986 204.199 163.644 202.512 163.111 200.546C162.578 198.581 162.898 196.496 164 194.752L231.508 88.0643C232.613 86.3214 234.409 85.0615 236.503 84.561C238.596 84.0605 240.815 84.3604 242.673 85.3948L321.017 129.108C322.872 130.147 324.213 131.833 324.746 133.799C325.279 135.764 324.96 137.848 323.86 139.593Z" fill="#3F3D56"/>
<path d="M247.978 244.832L169.359 200.965C168.787 200.645 168.373 200.125 168.209 199.519C168.045 198.913 168.143 198.271 168.482 197.733L236.438 90.3358C236.779 89.7986 237.333 89.4103 237.978 89.2561C238.623 89.1018 239.307 89.1942 239.88 89.513L318.5 133.38C319.072 133.7 319.485 134.22 319.649 134.826C319.814 135.432 319.715 136.074 319.376 136.612L251.42 244.009C251.079 244.546 250.525 244.935 249.88 245.089C249.235 245.243 248.551 245.151 247.978 244.832Z" fill="white"/>
<path d="M280.273 109.749C280.655 109.749 280.966 109.458 280.966 109.098C280.966 108.739 280.655 108.447 280.273 108.447C279.89 108.447 279.58 108.739 279.58 109.098C279.58 109.458 279.89 109.749 280.273 109.749Z" fill="white"/>
<path d="M275.984 186.682L210.356 150.064C210.15 149.95 209.97 149.799 209.827 149.62C209.683 149.441 209.579 149.236 209.519 149.019C209.46 148.802 209.447 148.576 209.481 148.354C209.515 148.132 209.595 147.918 209.717 147.725C209.839 147.532 210 147.364 210.192 147.23C210.383 147.096 210.601 146.998 210.833 146.943C211.064 146.889 211.305 146.877 211.541 146.91C211.778 146.943 212.005 147.019 212.21 147.134L277.837 183.752C278.043 183.866 278.223 184.017 278.367 184.196C278.51 184.375 278.615 184.579 278.674 184.797C278.733 185.014 278.746 185.24 278.713 185.462C278.679 185.684 278.598 185.898 278.476 186.091C278.354 186.284 278.193 186.452 278.001 186.586C277.81 186.72 277.592 186.817 277.361 186.872C277.129 186.927 276.888 186.939 276.652 186.906C276.416 186.873 276.188 186.797 275.983 186.682H275.984Z" fill="#E6E6E6"/>
<path d="M249.779 181.008L228.192 168.963C227.987 168.849 227.808 168.698 227.666 168.518C227.523 168.339 227.419 168.135 227.36 167.918C227.301 167.702 227.289 167.476 227.323 167.254C227.357 167.033 227.437 166.82 227.559 166.628C227.68 166.435 227.841 166.267 228.032 166.133C228.223 165.999 228.44 165.902 228.671 165.847C228.902 165.791 229.143 165.779 229.378 165.811C229.614 165.844 229.841 165.919 230.046 166.033L251.633 178.078C251.838 178.192 252.016 178.343 252.159 178.523C252.302 178.702 252.406 178.906 252.464 179.122C252.523 179.339 252.536 179.565 252.502 179.786C252.468 180.008 252.388 180.221 252.266 180.413C252.144 180.606 251.983 180.774 251.792 180.908C251.601 181.042 251.384 181.139 251.153 181.194C250.922 181.249 250.682 181.261 250.446 181.229C250.211 181.197 249.984 181.122 249.779 181.008Z" fill="#E6E6E6"/>
<path d="M241.292 194.421L219.705 182.376C219.291 182.145 218.992 181.77 218.874 181.332C218.755 180.894 218.826 180.43 219.072 180.041C219.318 179.653 219.718 179.372 220.184 179.26C220.651 179.149 221.145 179.216 221.559 179.446L243.145 191.491C243.35 191.605 243.529 191.756 243.672 191.936C243.815 192.115 243.918 192.319 243.977 192.536C244.036 192.753 244.049 192.978 244.015 193.2C243.98 193.421 243.9 193.634 243.779 193.826C243.657 194.019 243.496 194.187 243.305 194.321C243.114 194.455 242.897 194.552 242.666 194.607C242.435 194.663 242.195 194.675 241.959 194.643C241.723 194.611 241.496 194.535 241.292 194.421Z" fill="#E6E6E6"/>
<path d="M236.945 201.291L215.358 189.247C215.152 189.133 214.973 188.982 214.83 188.802C214.686 188.623 214.582 188.419 214.523 188.202C214.464 187.985 214.451 187.759 214.485 187.537C214.519 187.315 214.599 187.102 214.721 186.909C214.843 186.717 215.004 186.548 215.195 186.414C215.387 186.28 215.604 186.183 215.835 186.128C216.067 186.073 216.307 186.061 216.544 186.094C216.78 186.126 217.007 186.202 217.212 186.317L238.798 198.362C239.004 198.475 239.184 198.626 239.328 198.805C239.471 198.985 239.576 199.189 239.635 199.406C239.695 199.623 239.708 199.85 239.674 200.072C239.64 200.294 239.56 200.507 239.438 200.7C239.316 200.893 239.154 201.061 238.963 201.196C238.771 201.33 238.553 201.427 238.322 201.482C238.09 201.537 237.849 201.548 237.613 201.516C237.377 201.483 237.149 201.407 236.945 201.291V201.291Z" fill="#E6E6E6"/>
<path d="M257.701 194.375L211.902 168.821C211.49 168.589 211.193 168.213 211.075 167.776C210.958 167.339 211.03 166.876 211.275 166.489C211.52 166.101 211.919 165.821 212.384 165.709C212.848 165.597 213.342 165.662 213.755 165.891L259.555 191.446C259.761 191.559 259.941 191.71 260.085 191.89C260.228 192.069 260.333 192.273 260.392 192.49C260.452 192.708 260.465 192.934 260.431 193.156C260.397 193.378 260.317 193.591 260.194 193.784C260.072 193.977 259.911 194.146 259.72 194.28C259.528 194.414 259.31 194.511 259.079 194.566C258.847 194.621 258.606 194.632 258.37 194.6C258.133 194.567 257.906 194.491 257.701 194.375Z" fill="#E6E6E6"/>
<path d="M248.972 227.035L241.134 222.661C240.431 222.268 239.924 221.629 239.722 220.885C239.521 220.141 239.643 219.352 240.06 218.692C240.478 218.032 241.158 217.554 241.95 217.364C242.742 217.175 243.583 217.288 244.286 217.679L252.124 222.053C252.828 222.445 253.336 223.084 253.538 223.829C253.74 224.574 253.619 225.363 253.201 226.024C252.783 226.684 252.102 227.162 251.309 227.352C250.516 227.541 249.675 227.427 248.972 227.035Z" fill="#92EAF1"/>
<path d="M263.596 156.027C272.469 156.027 279.662 149.272 279.662 140.94C279.662 132.608 272.469 125.854 263.596 125.854C254.723 125.854 247.53 132.608 247.53 140.94C247.53 149.272 254.723 156.027 263.596 156.027Z" fill="#92EAF1"/>
<path d="M0.189209 202.246H217.605V84.0479C217.604 83.1622 217.229 82.3132 216.562 81.687C215.895 81.0608 214.991 80.7085 214.048 80.7075H3.74646C2.80336 80.7085 1.89919 81.0608 1.23231 81.687C0.56543 82.3132 0.190298 83.1622 0.189209 84.0479V202.246Z" fill="#CACACA"/>
<path d="M210.888 85.3276H6.90662V194.073H210.888V85.3276Z" fill="white"/>
<path d="M2.92477e-10 199.048V213.634C-7.03241e-06 214.238 0.126816 214.837 0.373228 215.396C0.619639 215.954 0.980815 216.462 1.43613 216.89C1.89145 217.317 2.43199 217.656 3.0269 217.888C3.6218 218.119 4.25941 218.238 4.90333 218.238H85.1499V247.024H84.0839C84.0003 247.024 83.9174 247.039 83.8402 247.069C83.7629 247.099 83.6927 247.143 83.6335 247.199C83.5744 247.254 83.5274 247.32 83.4954 247.393C83.4634 247.465 83.447 247.543 83.447 247.622V249.624C83.447 249.702 83.4634 249.78 83.4954 249.853C83.5274 249.925 83.5743 249.991 83.6335 250.047C83.6926 250.102 83.7629 250.146 83.8402 250.177C83.9174 250.207 84.0003 250.222 84.0839 250.222H133.9C133.984 250.222 134.066 250.207 134.144 250.177C134.221 250.146 134.291 250.102 134.35 250.047C134.41 249.991 134.456 249.925 134.488 249.853C134.52 249.78 134.537 249.702 134.537 249.624V247.622C134.537 247.543 134.52 247.465 134.488 247.393C134.456 247.32 134.41 247.254 134.35 247.199C134.291 247.143 134.221 247.099 134.144 247.069C134.066 247.039 133.984 247.024 133.9 247.024H132.834V218.238H213.081C213.724 218.238 214.362 218.119 214.957 217.888C215.552 217.656 216.092 217.317 216.548 216.89C217.003 216.462 217.364 215.954 217.611 215.396C217.857 214.837 217.984 214.238 217.984 213.634V199.048L2.92477e-10 199.048Z" fill="#3F3D56"/>
<path d="M181.372 121.696H84.774C84.165 121.696 83.581 121.469 83.1504 121.065C82.7198 120.66 82.4779 120.112 82.4779 119.54C82.4779 118.968 82.7198 118.42 83.1504 118.015C83.581 117.611 84.165 117.384 84.774 117.384H181.372C181.981 117.384 182.565 117.611 182.995 118.015C183.426 118.42 183.668 118.968 183.668 119.54C183.668 120.112 183.426 120.66 182.995 121.065C182.565 121.469 181.981 121.696 181.372 121.696Z" fill="#E6E6E6"/>
<path d="M148.96 131.429H117.186C116.577 131.429 115.993 131.202 115.562 130.798C115.132 130.393 114.89 129.845 114.89 129.273C114.89 128.701 115.132 128.153 115.562 127.748C115.993 127.344 116.577 127.117 117.186 127.117H148.96C149.569 127.117 150.153 127.344 150.583 127.748C151.014 128.153 151.256 128.701 151.256 129.273C151.256 129.845 151.014 130.393 150.583 130.798C150.153 131.202 149.569 131.429 148.96 131.429Z" fill="#E6E6E6"/>
<path d="M148.96 151.172H117.186C116.577 151.172 115.993 150.945 115.562 150.541C115.132 150.136 114.89 149.588 114.89 149.016C114.89 148.444 115.132 147.896 115.562 147.491C115.993 147.087 116.577 146.86 117.186 146.86H148.96C149.569 146.86 150.153 147.087 150.583 147.491C151.014 147.896 151.256 148.444 151.256 149.016C151.256 149.588 151.014 150.136 150.583 150.541C150.153 150.945 149.569 151.172 148.96 151.172Z" fill="#E6E6E6"/>
<path d="M148.96 161.284H117.186C116.884 161.284 116.586 161.229 116.307 161.12C116.029 161.012 115.776 160.853 115.562 160.653C115.349 160.453 115.18 160.215 115.065 159.953C114.949 159.692 114.89 159.411 114.89 159.128C114.89 158.845 114.949 158.565 115.065 158.303C115.18 158.042 115.349 157.804 115.562 157.604C115.776 157.403 116.029 157.245 116.307 157.136C116.586 157.028 116.884 156.972 117.186 156.972H148.96C149.261 156.972 149.56 157.028 149.838 157.136C150.117 157.245 150.37 157.403 150.583 157.604C150.796 157.804 150.966 158.042 151.081 158.303C151.196 158.565 151.256 158.845 151.256 159.128C151.256 159.411 151.196 159.692 151.081 159.953C150.966 160.215 150.796 160.453 150.583 160.653C150.37 160.853 150.117 161.012 149.838 161.12C149.56 161.229 149.261 161.284 148.96 161.284Z" fill="#E6E6E6"/>
<path d="M166.779 141.162H99.3662C98.7573 141.162 98.1733 140.935 97.7427 140.531C97.3121 140.126 97.0702 139.578 97.0702 139.006C97.0702 138.434 97.3121 137.886 97.7427 137.482C98.1733 137.077 98.7573 136.85 99.3662 136.85H166.779C167.388 136.85 167.972 137.077 168.403 137.482C168.834 137.886 169.075 138.434 169.075 139.006C169.075 139.578 168.834 140.126 168.403 140.531C167.972 140.935 167.388 141.162 166.779 141.162Z" fill="#E6E6E6"/>
<path d="M179.763 181.989H168.227C167.191 181.989 166.198 181.602 165.466 180.915C164.733 180.227 164.322 179.295 164.322 178.322C164.322 177.35 164.733 176.417 165.466 175.73C166.198 175.042 167.191 174.656 168.227 174.656H179.763C180.799 174.656 181.792 175.042 182.524 175.73C183.257 176.417 183.668 177.35 183.668 178.322C183.668 179.295 183.257 180.227 182.524 180.915C181.792 181.602 180.799 181.989 179.763 181.989Z" fill="#92EAF1"/>
<path d="M54.3984 155.378C65.4895 155.378 74.4807 146.934 74.4807 136.519C74.4807 126.104 65.4895 117.661 54.3984 117.661C43.3072 117.661 34.316 126.104 34.316 136.519C34.316 146.934 43.3072 155.378 54.3984 155.378Z" fill="#92EAF1"/>
<path d="M289.402 251H0.531544C0.390882 250.999 0.256124 250.947 0.156804 250.853C0.0574854 250.76 0.00170898 250.633 0.00170898 250.501C0.00170898 250.369 0.0574854 250.242 0.156804 250.149C0.256124 250.055 0.390882 250.002 0.531544 250.002H289.402C289.543 250.002 289.678 250.055 289.777 250.149C289.876 250.242 289.932 250.369 289.932 250.501C289.932 250.633 289.876 250.76 289.777 250.853C289.678 250.947 289.543 250.999 289.402 251Z" fill="#CACACA"/>
<path d="M108.803 83.0177C109.221 83.0177 109.56 82.6995 109.56 82.3069C109.56 81.9144 109.221 81.5962 108.803 81.5962C108.385 81.5962 108.046 81.9144 108.046 82.3069C108.046 82.6995 108.385 83.0177 108.803 83.0177Z" fill="white"/>
</g>
<defs>
<clipPath id="clip0_59:436">
<rect width="325" height="251" fill="white"/>
</clipPath>
</defs>
</svg>
