<svg width="63" height="63" viewBox="0 0 63 63" fill="none" xmlns="http://www.w3.org/2000/svg">
<path d="M60.0469 43.3125H55.125V11.8125C55.125 9.63826 53.3617 7.875 51.1875 7.875H23.625V19.6875H43.3125V60.0469C43.3125 61.6772 44.6353 63 46.2656 63H52.1719C53.8022 63 55.125 61.6772 55.125 60.0469V55.125H60.0469C61.6772 55.125 63 53.8022 63 52.1719V46.2656C63 44.634 61.6772 43.3125 60.0469 43.3125ZM19.6875 2.95312C19.6875 1.32152 18.3647 0 16.7344 0H10.8281C9.19775 0 7.875 1.32152 7.875 2.95312V7.875H2.95312C1.32275 7.875 0 9.19652 0 10.8281V16.7344C0 18.3647 1.32275 19.6875 2.95312 19.6875H7.875V51.1875C7.875 53.3617 9.63826 55.125 11.8125 55.125H39.375V43.3125H19.6875V2.95312Z" fill="#92EAF1"/>
</svg>
