<svg width="62" height="72" viewBox="0 0 62 72" fill="none" xmlns="http://www.w3.org/2000/svg">
<path d="M51.6667 4.5C51.6667 3.30653 51.1223 2.16193 50.1534 1.31802C49.1844 0.474106 47.8703 0 46.5 0C45.1297 0 43.8156 0.474106 42.8466 1.31802C41.8777 2.16193 41.3333 3.30653 41.3333 4.5V18H51.6667V4.5ZM59.4167 22.5H2.58333C1.89819 22.5 1.24111 22.7371 0.756641 23.159C0.272172 23.581 0 24.1533 0 24.75L0 29.25C0 29.8467 0.272172 30.419 0.756641 30.841C1.24111 31.2629 1.89819 31.5 2.58333 31.5H5.16667V36C5.16758 41.1864 7.22478 46.2135 10.9905 50.2313C14.7561 54.249 19.9993 57.0109 25.8333 58.05V72H36.1667V58.05C42.0007 57.0109 47.2439 54.249 51.0095 50.2313C54.7752 46.2135 56.8324 41.1864 56.8333 36V31.5H59.4167C60.1018 31.5 60.7589 31.2629 61.2434 30.841C61.7278 30.419 62 29.8467 62 29.25V24.75C62 24.1533 61.7278 23.581 61.2434 23.159C60.7589 22.7371 60.1018 22.5 59.4167 22.5ZM20.6667 4.5C20.6667 3.30653 20.1223 2.16193 19.1534 1.31802C18.1844 0.474106 16.8703 0 15.5 0C14.1297 0 12.8156 0.474106 11.8466 1.31802C10.8777 2.16193 10.3333 3.30653 10.3333 4.5V18H20.6667V4.5Z" fill="#92EAF1"/>
</svg>
