<svg width="54" height="69" viewBox="0 0 54 69" fill="none" xmlns="http://www.w3.org/2000/svg">
<path d="M54 16.4335V17.25H36V0H36.852C37.7471 0 38.6056 0.340822 39.2386 0.947268L53.0115 14.1463C53.6444 14.753 54 15.5756 54 16.4335ZM34.875 21.5625C33.0187 21.5625 31.5 20.107 31.5 18.3281V0H3.375C1.51102 0 0 1.44806 0 3.23438V65.7656C0 67.5519 1.51102 69 3.375 69H50.625C52.489 69 54 67.5519 54 65.7656V21.5625H34.875ZM17.3258 53.9743C17.2576 54.044 17.1758 54.1002 17.0849 54.1396C16.9941 54.179 16.896 54.2009 16.7963 54.2039C16.6966 54.207 16.5973 54.1912 16.504 54.1575C16.4107 54.1238 16.3252 54.0728 16.2525 54.0075L7.13067 45.8121C7.05491 45.744 6.99453 45.6618 6.95325 45.5705C6.91196 45.4792 6.89066 45.3807 6.89066 45.2812C6.89066 45.1817 6.91196 45.0832 6.95325 44.9919C6.99453 44.9006 7.05491 44.8183 7.13067 44.7503L16.2525 36.5549C16.3252 36.4895 16.4107 36.4385 16.504 36.4048C16.5973 36.3711 16.6966 36.3554 16.7963 36.3584C16.896 36.3615 16.9941 36.3834 17.0849 36.4228C17.1758 36.4622 17.2576 36.5183 17.3258 36.5881L20.0791 39.4026C20.1487 39.4738 20.2027 39.5576 20.2378 39.6491C20.2729 39.7406 20.2885 39.8379 20.2836 39.9353C20.2788 40.0326 20.2535 40.1281 20.2094 40.216C20.1653 40.3038 20.1032 40.3823 20.0268 40.4467L14.2945 45.2812L20.0268 50.1158C20.1032 50.1802 20.1653 50.2587 20.2094 50.3465C20.2535 50.4344 20.2788 50.5299 20.2836 50.6272C20.2885 50.7246 20.2729 50.8219 20.2378 50.9134C20.2027 51.0049 20.1487 51.0887 20.0791 51.1599L17.3258 53.9743ZM24.5392 60.7771L20.6786 59.7031C20.4852 59.6492 20.322 59.524 20.225 59.3548C20.1279 59.1857 20.1049 58.9866 20.161 58.8012L28.801 30.2813C28.8572 30.0959 28.9879 29.9396 29.1643 29.8466C29.3408 29.7535 29.5486 29.7315 29.742 29.7852L33.6025 30.8593C33.6983 30.886 33.7876 30.9304 33.8655 30.9902C33.9433 31.0499 34.0081 31.1238 34.0561 31.2075C34.1042 31.2913 34.1346 31.3833 34.1455 31.4783C34.1565 31.5732 34.1478 31.6694 34.12 31.7612L25.48 60.2811C25.4522 60.3729 25.4059 60.4585 25.3436 60.5331C25.2813 60.6078 25.2042 60.6699 25.1169 60.7159C25.0295 60.762 24.9335 60.7911 24.8344 60.8016C24.7353 60.8121 24.635 60.8038 24.5392 60.7771ZM47.1506 45.8121L38.0288 54.0075C37.956 54.0728 37.8706 54.1238 37.7773 54.1575C37.6839 54.1912 37.5846 54.207 37.4849 54.2039C37.3853 54.2009 37.2872 54.179 37.1963 54.1396C37.1055 54.1002 37.0236 54.044 36.9554 53.9743L34.202 51.1597C34.1324 51.0886 34.0784 51.0048 34.0433 50.9133C34.0082 50.8218 33.9926 50.7245 33.9975 50.6271C34.0023 50.5297 34.0276 50.4343 34.0717 50.3464C34.1158 50.2586 34.1779 50.1801 34.2543 50.1157L39.9867 45.2812L34.2544 40.4467C34.1781 40.3823 34.116 40.3038 34.0718 40.216C34.0277 40.1281 34.0025 40.0326 33.9976 39.9353C33.9927 39.8379 34.0083 39.7406 34.0434 39.6491C34.0786 39.5576 34.1325 39.4738 34.2021 39.4026L36.9555 36.5881C37.0238 36.5183 37.1056 36.4622 37.1965 36.4228C37.2873 36.3834 37.3854 36.3615 37.4851 36.3584C37.5848 36.3554 37.6841 36.3711 37.7774 36.4048C37.8707 36.4385 37.9562 36.4895 38.0289 36.5549L47.1507 44.7503C47.2265 44.8183 47.2868 44.9006 47.3281 44.9919C47.3694 45.0832 47.3907 45.1817 47.3907 45.2812C47.3906 45.3807 47.3693 45.4792 47.328 45.5705C47.2867 45.6618 47.2263 45.744 47.1506 45.8121Z" fill="white"/>
</svg>
