<svg width="90" height="72" viewBox="0 0 90 72" fill="none" xmlns="http://www.w3.org/2000/svg">
<path d="M61.1297 9H49.05C47.925 9 46.8422 9.42188 46.0125 10.1813L32.1891 22.8375C32.175 22.8516 32.1609 22.8797 32.1469 22.8938C29.8125 25.0875 29.8547 28.5891 31.8516 30.7688C33.6375 32.7234 37.3922 33.2438 39.7406 31.1484C39.7547 31.1344 39.7828 31.1344 39.7969 31.1203L51.0328 20.8266C51.9469 19.9969 53.3812 20.0531 54.2109 20.9672C55.0547 21.8813 54.9844 23.3016 54.0703 24.1453L50.4 27.5063L70.875 44.1281C71.2828 44.4656 71.6484 44.8313 71.9859 45.2109V18L64.3078 10.3219C63.4781 9.47813 62.325 9 61.1297 9ZM76.5 18.0281V49.5141C76.5 52.0031 78.5109 54.0141 81 54.0141H90V18.0281H76.5ZM83.25 49.5141C82.0125 49.5141 81 48.5016 81 47.2641C81 46.0266 82.0125 45.0141 83.25 45.0141C84.4875 45.0141 85.5 46.0266 85.5 47.2641C85.5 48.5016 84.4875 49.5141 83.25 49.5141ZM0 54H9C11.4891 54 13.5 51.9891 13.5 49.5V18.0281H0V54ZM6.75 45.0141C7.9875 45.0141 9 46.0266 9 47.2641C9 48.5016 7.9875 49.5141 6.75 49.5141C5.5125 49.5141 4.5 48.5016 4.5 47.2641C4.5 46.0125 5.5125 45.0141 6.75 45.0141ZM68.0484 47.6297L47.0531 30.5859L42.8344 34.4531C38.6578 38.2641 32.2594 37.8984 28.5328 33.8344C24.75 29.7 25.0453 23.3016 29.1516 19.5328L40.6547 9H28.8703C27.675 9 26.5359 9.47813 25.6922 10.3219L18 18V49.4859H20.5734L33.3 61.0031C37.1531 64.1391 42.8203 63.5484 45.9562 59.6953L45.9844 59.6672L48.5016 61.8469C50.7375 63.675 54.0422 63.3234 55.8563 61.0875L60.2719 55.6594L61.0312 56.2781C62.9578 57.8391 65.7984 57.5578 67.3594 55.6172L68.6953 53.9719C70.2703 52.0313 69.975 49.2047 68.0484 47.6297Z" fill="white"/>
</svg>
