<svg width="66" height="71" viewBox="0 0 66 71" fill="none" xmlns="http://www.w3.org/2000/svg">
<path d="M1.60005 20.5272L31.6275 35.1807C32.504 35.6092 33.4953 35.6092 34.3719 35.1807L64.3993 20.5272C66.5327 19.4858 66.5327 16.0176 64.3993 14.9762L34.3732 0.321367C33.9425 0.109603 33.4745 0 33.001 0C32.5274 0 32.0594 0.109603 31.6288 0.321367L1.60005 14.9748C-0.53335 16.0163 -0.53335 19.4858 1.60005 20.5272ZM64.4006 32.7692L56.9124 29.118L36.076 39.2785C35.1015 39.7541 34.0664 39.9954 33.0003 39.9954C31.9343 39.9954 30.9004 39.7541 29.9246 39.2785L9.0895 29.118L1.60005 32.7692C-0.53335 33.8092 -0.53335 37.276 1.60005 38.3161L31.6275 52.9584C32.504 53.3856 33.4953 53.3856 34.3719 52.9584L64.4006 38.3161C66.534 37.276 66.534 33.8092 64.4006 32.7692ZM64.4006 50.4915L56.9408 46.8541L36.076 57.0285C35.1015 57.5041 34.0664 57.7454 33.0003 57.7454C31.9343 57.7454 30.9004 57.5041 29.9246 57.0285L9.06114 46.8541L1.60005 50.4915C-0.53335 51.5315 -0.53335 54.9983 1.60005 56.0383L31.6275 70.6807C32.504 71.1078 33.4953 71.1078 34.3719 70.6807L64.4006 56.0383C66.534 54.9983 66.534 51.5315 64.4006 50.4915Z" fill="#92EAF1"/>
</svg>
