<?xml version="1.0" encoding="utf-8"?>
<svg width="500" zoomAndPan="magnify" viewBox="0.831 0 372.922 76.5" height="102" preserveAspectRatio="xMidYMid meet" version="1.0" xmlns="http://www.w3.org/2000/svg">
  <defs>
    <g>
      <g id="id1"/>
      <g id="id2"/>
      <g id="id3"/>
    </g>
    <clipPath id="id4">
      <path d="M 1.21875 0 L 77 0 L 77 76.003906 L 1.21875 76.003906 Z M 1.21875 0 " clip-rule="nonzero"/>
    </clipPath>
  </defs>
  <g fill="rgb(100%, 100%, 100%)" fill-opacity="1">
    <g transform="translate(171.595429, 37.748233)">
      <g>
        <path d="M 20.167969 0 L 25.515625 0 L 17.335938 -23.242188 L 9.226562 -23.242188 L 1.046875 0 L 6.394531 0 L 8.074219 -4.753906 L 18.488281 -4.753906 Z M 9.507812 -8.84375 L 13.28125 -19.574219 L 17.058594 -8.84375 Z M 9.507812 -8.84375 " style=""/>
      </g>
    </g>
  </g>
  <g fill="rgb(100%, 100%, 100%)" fill-opacity="1">
    <g transform="translate(198.124228, 37.748233)">
      <g>
        <path d="M 19.1875 -23.242188 L 14.015625 -8.003906 C 13.597656 -6.710938 13.246094 -5.453125 12.898438 -4.160156 C 12.582031 -5.453125 12.199219 -6.710938 11.777344 -8.003906 L 6.640625 -23.242188 L 1.152344 -23.242188 L 8.949219 0 L 16.742188 0 L 24.535156 -23.242188 Z M 19.1875 -23.242188 " style=""/>
      </g>
    </g>
  </g>
  <g fill="rgb(100%, 100%, 100%)" fill-opacity="1">
    <g transform="translate(223.779223, 37.748233)">
      <g>
        <path d="M 7.339844 -4.230469 L 7.339844 -9.890625 L 19.222656 -9.890625 L 19.222656 -13.839844 L 7.339844 -13.839844 L 7.339844 -19.050781 L 20.273438 -19.050781 L 20.273438 -23.242188 L 2.027344 -23.242188 L 2.027344 0 L 20.378906 0 L 20.378906 -4.230469 Z M 7.339844 -4.230469 " style=""/>
      </g>
    </g>
  </g>
  <g fill="rgb(100%, 100%, 100%)" fill-opacity="1">
    <g transform="translate(245.904032, 37.748233)">
      <g>
        <path d="M 19.433594 -23.242188 L 19.433594 -3.773438 C 19.050781 -4.964844 18.59375 -6.152344 18.175781 -7.128906 L 10.835938 -23.242188 L 2.027344 -23.242188 L 2.027344 0 L 7.128906 0 L 7.128906 -19.433594 C 7.480469 -18.246094 7.933594 -17.058594 8.457031 -15.867188 L 15.730469 0 L 24.535156 0 L 24.535156 -23.242188 Z M 19.433594 -23.242188 " style=""/>
      </g>
    </g>
  </g>
  <g fill="rgb(100%, 100%, 100%)" fill-opacity="1">
    <g transform="translate(272.467784, 37.748233)">
      <g>
        <path d="M 31.039062 -23.242188 L 22.054688 -23.242188 L 16.601562 -5.242188 L 11.148438 -23.242188 L 2.027344 -23.242188 L 2.027344 0 L 7.304688 0 L 7.304688 -19.851562 L 13.457031 0 L 19.609375 0 L 25.726562 -19.75 L 25.726562 0 L 31.039062 0 Z M 31.039062 -23.242188 " style=""/>
      </g>
    </g>
  </g>
  <g fill="rgb(100%, 100%, 100%)" fill-opacity="1">
    <g transform="translate(305.497711, 37.748233)">
      <g>
        <path d="M 7.339844 -4.230469 L 7.339844 -9.890625 L 19.222656 -9.890625 L 19.222656 -13.839844 L 7.339844 -13.839844 L 7.339844 -19.050781 L 20.273438 -19.050781 L 20.273438 -23.242188 L 2.027344 -23.242188 L 2.027344 0 L 20.378906 0 L 20.378906 -4.230469 Z M 7.339844 -4.230469 " style=""/>
      </g>
    </g>
  </g>
  <g fill="rgb(100%, 100%, 100%)" fill-opacity="1">
    <g transform="translate(327.62252, 37.748233)">
      <g>
        <path d="M 1.363281 -7.65625 C 1.539062 -3.425781 4.160156 0.59375 11.8125 0.59375 C 19.085938 0.59375 21.914062 -2.375 21.914062 -6.957031 C 21.914062 -11.011719 19.539062 -13.246094 14.820312 -13.769531 L 9.960938 -14.367188 C 8.039062 -14.574219 7.234375 -15.589844 7.234375 -16.953125 C 7.234375 -18.769531 8.738281 -19.921875 11.570312 -19.921875 C 14.644531 -19.921875 16.183594 -18.523438 16.460938 -16.359375 L 21.671875 -16.359375 C 21.390625 -20.480469 18.523438 -23.835938 11.570312 -23.835938 C 5.03125 -23.835938 1.886719 -20.832031 1.886719 -16.636719 C 1.886719 -12.792969 4.195312 -10.519531 8.320312 -10.03125 L 13.457031 -9.367188 C 15.519531 -9.085938 16.566406 -8.179688 16.566406 -6.429688 C 16.566406 -4.578125 15.414062 -3.355469 11.882812 -3.355469 C 8.214844 -3.355469 6.675781 -5.171875 6.535156 -7.65625 Z M 1.363281 -7.65625 " style=""/>
      </g>
    </g>
  </g>
  <g fill="rgb(100%, 100%, 100%)" fill-opacity="1">
    <g transform="translate(350.970661, 37.748233)">
      <g>
        <path d="M 1.363281 -7.65625 C 1.539062 -3.425781 4.160156 0.59375 11.8125 0.59375 C 19.085938 0.59375 21.914062 -2.375 21.914062 -6.957031 C 21.914062 -11.011719 19.539062 -13.246094 14.820312 -13.769531 L 9.960938 -14.367188 C 8.039062 -14.574219 7.234375 -15.589844 7.234375 -16.953125 C 7.234375 -18.769531 8.738281 -19.921875 11.570312 -19.921875 C 14.644531 -19.921875 16.183594 -18.523438 16.460938 -16.359375 L 21.671875 -16.359375 C 21.390625 -20.480469 18.523438 -23.835938 11.570312 -23.835938 C 5.03125 -23.835938 1.886719 -20.832031 1.886719 -16.636719 C 1.886719 -12.792969 4.195312 -10.519531 8.320312 -10.03125 L 13.457031 -9.367188 C 15.519531 -9.085938 16.566406 -8.179688 16.566406 -6.429688 C 16.566406 -4.578125 15.414062 -3.355469 11.882812 -3.355469 C 8.214844 -3.355469 6.675781 -5.171875 6.535156 -7.65625 Z M 1.363281 -7.65625 " style=""/>
      </g>
    </g>
  </g>
  <g fill="rgb(100%, 100%, 100%)" fill-opacity="1">
    <g transform="translate(171.595429, 63.378548)">
      <g>
        <path d="M 3.140625 0 C 2.703125 0 2.367188 -0.125 2.140625 -0.375 C 1.910156 -0.625 1.796875 -0.945312 1.796875 -1.34375 L 1.796875 -7.046875 L 0.453125 -7.046875 L 0.453125 -8.15625 L 1.21875 -8.15625 C 1.488281 -8.15625 1.671875 -8.207031 1.765625 -8.3125 C 1.867188 -8.425781 1.921875 -8.617188 1.921875 -8.890625 L 1.921875 -10.40625 L 3.0625 -10.40625 L 3.0625 -8.15625 L 4.84375 -8.15625 L 4.84375 -7.046875 L 3.0625 -7.046875 L 3.0625 -1.109375 L 4.71875 -1.109375 L 4.71875 0 Z M 3.140625 0 " style=""/>
      </g>
    </g>
  </g>
  <g fill="rgb(100%, 100%, 100%)" fill-opacity="1">
    <g transform="translate(177.135792, 63.378548)">
      <g>
        <path d="M 6.359375 -1.328125 L 6.296875 -1.328125 C 6.210938 -1.140625 6.109375 -0.953125 5.984375 -0.765625 C 5.867188 -0.578125 5.722656 -0.410156 5.546875 -0.265625 C 5.367188 -0.128906 5.148438 -0.0195312 4.890625 0.0625 C 4.640625 0.144531 4.347656 0.1875 4.015625 0.1875 C 3.171875 0.1875 2.5 -0.0820312 2 -0.625 C 1.507812 -1.164062 1.265625 -1.929688 1.265625 -2.921875 L 1.265625 -8.15625 L 2.53125 -8.15625 L 2.53125 -3.140625 C 2.53125 -1.679688 3.148438 -0.953125 4.390625 -0.953125 C 4.640625 -0.953125 4.882812 -0.984375 5.125 -1.046875 C 5.363281 -1.109375 5.570312 -1.203125 5.75 -1.328125 C 5.9375 -1.453125 6.082031 -1.609375 6.1875 -1.796875 C 6.300781 -1.992188 6.359375 -2.234375 6.359375 -2.515625 L 6.359375 -8.15625 L 7.625 -8.15625 L 7.625 0 L 6.359375 0 Z M 6.359375 -1.328125 " style=""/>
      </g>
    </g>
  </g>
  <g fill="rgb(100%, 100%, 100%)" fill-opacity="1">
    <g transform="translate(186.101391, 63.378548)">
      <g/>
    </g>
  </g>
  <g fill="rgb(100%, 100%, 100%)" fill-opacity="1">
    <g transform="translate(189.826529, 63.378548)">
      <g>
        <path d="M 1.34375 -8.15625 L 2.609375 -8.15625 L 2.609375 -6.828125 L 2.671875 -6.828125 C 2.878906 -7.335938 3.1875 -7.71875 3.59375 -7.96875 C 4 -8.21875 4.488281 -8.34375 5.0625 -8.34375 C 5.5625 -8.34375 6.015625 -8.238281 6.421875 -8.03125 C 6.835938 -7.832031 7.191406 -7.550781 7.484375 -7.1875 C 7.773438 -6.820312 7.992188 -6.375 8.140625 -5.84375 C 8.296875 -5.320312 8.375 -4.734375 8.375 -4.078125 C 8.375 -3.421875 8.296875 -2.828125 8.140625 -2.296875 C 7.992188 -1.773438 7.773438 -1.328125 7.484375 -0.953125 C 7.191406 -0.585938 6.835938 -0.304688 6.421875 -0.109375 C 6.015625 0.0859375 5.5625 0.1875 5.0625 0.1875 C 3.945312 0.1875 3.148438 -0.316406 2.671875 -1.328125 L 2.609375 -1.328125 L 2.609375 3.15625 L 1.34375 3.15625 Z M 4.703125 -0.953125 C 5.421875 -0.953125 5.984375 -1.175781 6.390625 -1.625 C 6.804688 -2.070312 7.015625 -2.65625 7.015625 -3.375 L 7.015625 -4.765625 C 7.015625 -5.492188 6.804688 -6.082031 6.390625 -6.53125 C 5.984375 -6.976562 5.421875 -7.203125 4.703125 -7.203125 C 4.421875 -7.203125 4.148438 -7.160156 3.890625 -7.078125 C 3.628906 -7.003906 3.40625 -6.898438 3.21875 -6.765625 C 3.03125 -6.628906 2.878906 -6.460938 2.765625 -6.265625 C 2.660156 -6.066406 2.609375 -5.859375 2.609375 -5.640625 L 2.609375 -2.609375 C 2.609375 -2.347656 2.660156 -2.113281 2.765625 -1.90625 C 2.878906 -1.695312 3.03125 -1.519531 3.21875 -1.375 C 3.40625 -1.238281 3.628906 -1.132812 3.890625 -1.0625 C 4.148438 -0.988281 4.421875 -0.953125 4.703125 -0.953125 Z M 4.703125 -0.953125 " style=""/>
      </g>
    </g>
  </g>
  <g fill="rgb(100%, 100%, 100%)" fill-opacity="1">
    <g transform="translate(198.981539, 63.378548)">
      <g>
        <path d="M 7.265625 0 C 6.796875 0 6.457031 -0.125 6.25 -0.375 C 6.039062 -0.632812 5.910156 -0.953125 5.859375 -1.328125 L 5.78125 -1.328125 C 5.601562 -0.816406 5.304688 -0.4375 4.890625 -0.1875 C 4.484375 0.0625 3.992188 0.1875 3.421875 0.1875 C 2.554688 0.1875 1.882812 -0.03125 1.40625 -0.46875 C 0.925781 -0.914062 0.6875 -1.519531 0.6875 -2.28125 C 0.6875 -3.039062 0.96875 -3.625 1.53125 -4.03125 C 2.101562 -4.445312 2.984375 -4.65625 4.171875 -4.65625 L 5.78125 -4.65625 L 5.78125 -5.46875 C 5.78125 -6.039062 5.617188 -6.476562 5.296875 -6.78125 C 4.984375 -7.09375 4.503906 -7.25 3.859375 -7.25 C 3.359375 -7.25 2.941406 -7.140625 2.609375 -6.921875 C 2.273438 -6.703125 2 -6.40625 1.78125 -6.03125 L 1.03125 -6.75 C 1.25 -7.1875 1.597656 -7.5625 2.078125 -7.875 C 2.566406 -8.1875 3.179688 -8.34375 3.921875 -8.34375 C 4.910156 -8.34375 5.675781 -8.097656 6.21875 -7.609375 C 6.769531 -7.128906 7.046875 -6.457031 7.046875 -5.59375 L 7.046875 -1.109375 L 7.984375 -1.109375 L 7.984375 0 Z M 3.640625 -0.890625 C 3.953125 -0.890625 4.238281 -0.925781 4.5 -1 C 4.757812 -1.070312 4.984375 -1.175781 5.171875 -1.3125 C 5.367188 -1.445312 5.519531 -1.601562 5.625 -1.78125 C 5.726562 -1.957031 5.78125 -2.15625 5.78125 -2.375 L 5.78125 -3.71875 L 4.109375 -3.71875 C 3.378906 -3.71875 2.847656 -3.609375 2.515625 -3.390625 C 2.179688 -3.179688 2.015625 -2.878906 2.015625 -2.484375 L 2.015625 -2.140625 C 2.015625 -1.742188 2.160156 -1.4375 2.453125 -1.21875 C 2.742188 -1 3.140625 -0.890625 3.640625 -0.890625 Z M 3.640625 -0.890625 " style=""/>
      </g>
    </g>
  </g>
  <g fill="rgb(100%, 100%, 100%)" fill-opacity="1">
    <g transform="translate(207.410464, 63.378548)">
      <g>
        <path d="M 8.21875 0.90625 C 8.21875 1.75 7.882812 2.363281 7.21875 2.75 C 6.5625 3.144531 5.578125 3.34375 4.265625 3.34375 C 2.992188 3.34375 2.078125 3.171875 1.515625 2.828125 C 0.953125 2.484375 0.671875 1.988281 0.671875 1.34375 C 0.671875 0.894531 0.785156 0.546875 1.015625 0.296875 C 1.253906 0.0546875 1.570312 -0.117188 1.96875 -0.234375 L 1.96875 -0.40625 C 1.488281 -0.644531 1.25 -1.023438 1.25 -1.546875 C 1.25 -1.960938 1.378906 -2.273438 1.640625 -2.484375 C 1.898438 -2.703125 2.238281 -2.863281 2.65625 -2.96875 L 2.65625 -3.03125 C 2.164062 -3.257812 1.785156 -3.585938 1.515625 -4.015625 C 1.253906 -4.453125 1.125 -4.957031 1.125 -5.53125 C 1.125 -5.9375 1.195312 -6.3125 1.34375 -6.65625 C 1.488281 -7.007812 1.695312 -7.3125 1.96875 -7.5625 C 2.238281 -7.8125 2.554688 -8.003906 2.921875 -8.140625 C 3.296875 -8.273438 3.71875 -8.34375 4.1875 -8.34375 C 4.769531 -8.34375 5.285156 -8.238281 5.734375 -8.03125 L 5.734375 -8.171875 C 5.734375 -8.484375 5.804688 -8.738281 5.953125 -8.9375 C 6.097656 -9.144531 6.34375 -9.25 6.6875 -9.25 L 7.90625 -9.25 L 7.90625 -8.15625 L 6.34375 -8.15625 L 6.34375 -7.625 C 6.644531 -7.375 6.875 -7.070312 7.03125 -6.71875 C 7.195312 -6.363281 7.28125 -5.96875 7.28125 -5.53125 C 7.28125 -5.113281 7.207031 -4.734375 7.0625 -4.390625 C 6.914062 -4.046875 6.707031 -3.75 6.4375 -3.5 C 6.164062 -3.25 5.835938 -3.054688 5.453125 -2.921875 C 5.078125 -2.785156 4.660156 -2.71875 4.203125 -2.71875 C 3.941406 -2.71875 3.675781 -2.742188 3.40625 -2.796875 C 3.132812 -2.722656 2.890625 -2.613281 2.671875 -2.46875 C 2.453125 -2.332031 2.34375 -2.132812 2.34375 -1.875 C 2.34375 -1.632812 2.457031 -1.472656 2.6875 -1.390625 C 2.914062 -1.304688 3.210938 -1.265625 3.578125 -1.265625 L 5.328125 -1.265625 C 6.335938 -1.265625 7.070312 -1.070312 7.53125 -0.6875 C 7.988281 -0.300781 8.21875 0.226562 8.21875 0.90625 Z M 7.03125 1 C 7.03125 0.664062 6.90625 0.398438 6.65625 0.203125 C 6.40625 0.015625 5.96875 -0.078125 5.34375 -0.078125 L 2.625 -0.078125 C 2.113281 0.148438 1.859375 0.519531 1.859375 1.03125 C 1.859375 1.382812 1.992188 1.6875 2.265625 1.9375 C 2.535156 2.195312 2.992188 2.328125 3.640625 2.328125 L 4.796875 2.328125 C 5.503906 2.328125 6.050781 2.210938 6.4375 1.984375 C 6.832031 1.765625 7.03125 1.4375 7.03125 1 Z M 4.203125 -3.734375 C 4.734375 -3.734375 5.15625 -3.859375 5.46875 -4.109375 C 5.789062 -4.367188 5.953125 -4.769531 5.953125 -5.3125 L 5.953125 -5.75 C 5.953125 -6.289062 5.789062 -6.6875 5.46875 -6.9375 C 5.15625 -7.195312 4.734375 -7.328125 4.203125 -7.328125 C 3.660156 -7.328125 3.234375 -7.195312 2.921875 -6.9375 C 2.609375 -6.6875 2.453125 -6.289062 2.453125 -5.75 L 2.453125 -5.3125 C 2.453125 -4.769531 2.609375 -4.367188 2.921875 -4.109375 C 3.234375 -3.859375 3.660156 -3.734375 4.203125 -3.734375 Z M 4.203125 -3.734375 " style=""/>
      </g>
    </g>
  </g>
  <g fill="rgb(100%, 100%, 100%)" fill-opacity="1">
    <g transform="translate(215.744677, 63.378548)">
      <g>
        <path d="M 1.96875 -10.0625 C 1.695312 -10.0625 1.5 -10.125 1.375 -10.25 C 1.257812 -10.382812 1.203125 -10.5625 1.203125 -10.78125 L 1.203125 -10.984375 C 1.203125 -11.191406 1.257812 -11.359375 1.375 -11.484375 C 1.5 -11.617188 1.695312 -11.6875 1.96875 -11.6875 C 2.25 -11.6875 2.445312 -11.617188 2.5625 -11.484375 C 2.6875 -11.359375 2.75 -11.191406 2.75 -10.984375 L 2.75 -10.78125 C 2.75 -10.5625 2.6875 -10.382812 2.5625 -10.25 C 2.445312 -10.125 2.25 -10.0625 1.96875 -10.0625 Z M 1.34375 -8.15625 L 2.609375 -8.15625 L 2.609375 0 L 1.34375 0 Z M 1.34375 -8.15625 " style=""/>
      </g>
    </g>
  </g>
  <g fill="rgb(100%, 100%, 100%)" fill-opacity="1">
    <g transform="translate(219.690796, 63.378548)">
      <g>
        <path d="M 1.34375 0 L 1.34375 -8.15625 L 2.609375 -8.15625 L 2.609375 -6.828125 L 2.671875 -6.828125 C 2.867188 -7.285156 3.148438 -7.648438 3.515625 -7.921875 C 3.878906 -8.203125 4.363281 -8.34375 4.96875 -8.34375 C 5.8125 -8.34375 6.476562 -8.070312 6.96875 -7.53125 C 7.457031 -6.988281 7.703125 -6.222656 7.703125 -5.234375 L 7.703125 0 L 6.4375 0 L 6.4375 -5 C 6.4375 -6.46875 5.820312 -7.203125 4.59375 -7.203125 C 4.34375 -7.203125 4.097656 -7.171875 3.859375 -7.109375 C 3.617188 -7.046875 3.40625 -6.953125 3.21875 -6.828125 C 3.03125 -6.703125 2.878906 -6.539062 2.765625 -6.34375 C 2.660156 -6.144531 2.609375 -5.914062 2.609375 -5.65625 L 2.609375 0 Z M 1.34375 0 " style=""/>
      </g>
    </g>
  </g>
  <g fill="rgb(100%, 100%, 100%)" fill-opacity="1">
    <g transform="translate(228.656395, 63.378548)">
      <g>
        <path d="M 7.265625 0 C 6.796875 0 6.457031 -0.125 6.25 -0.375 C 6.039062 -0.632812 5.910156 -0.953125 5.859375 -1.328125 L 5.78125 -1.328125 C 5.601562 -0.816406 5.304688 -0.4375 4.890625 -0.1875 C 4.484375 0.0625 3.992188 0.1875 3.421875 0.1875 C 2.554688 0.1875 1.882812 -0.03125 1.40625 -0.46875 C 0.925781 -0.914062 0.6875 -1.519531 0.6875 -2.28125 C 0.6875 -3.039062 0.96875 -3.625 1.53125 -4.03125 C 2.101562 -4.445312 2.984375 -4.65625 4.171875 -4.65625 L 5.78125 -4.65625 L 5.78125 -5.46875 C 5.78125 -6.039062 5.617188 -6.476562 5.296875 -6.78125 C 4.984375 -7.09375 4.503906 -7.25 3.859375 -7.25 C 3.359375 -7.25 2.941406 -7.140625 2.609375 -6.921875 C 2.273438 -6.703125 2 -6.40625 1.78125 -6.03125 L 1.03125 -6.75 C 1.25 -7.1875 1.597656 -7.5625 2.078125 -7.875 C 2.566406 -8.1875 3.179688 -8.34375 3.921875 -8.34375 C 4.910156 -8.34375 5.675781 -8.097656 6.21875 -7.609375 C 6.769531 -7.128906 7.046875 -6.457031 7.046875 -5.59375 L 7.046875 -1.109375 L 7.984375 -1.109375 L 7.984375 0 Z M 3.640625 -0.890625 C 3.953125 -0.890625 4.238281 -0.925781 4.5 -1 C 4.757812 -1.070312 4.984375 -1.175781 5.171875 -1.3125 C 5.367188 -1.445312 5.519531 -1.601562 5.625 -1.78125 C 5.726562 -1.957031 5.78125 -2.15625 5.78125 -2.375 L 5.78125 -3.71875 L 4.109375 -3.71875 C 3.378906 -3.71875 2.847656 -3.609375 2.515625 -3.390625 C 2.179688 -3.179688 2.015625 -2.878906 2.015625 -2.484375 L 2.015625 -2.140625 C 2.015625 -1.742188 2.160156 -1.4375 2.453125 -1.21875 C 2.742188 -1 3.140625 -0.890625 3.640625 -0.890625 Z M 3.640625 -0.890625 " style=""/>
      </g>
    </g>
  </g>
  <g fill="rgb(100%, 100%, 100%)" fill-opacity="1">
    <g transform="translate(237.08532, 63.378548)">
      <g/>
    </g>
  </g>
  <g fill="rgb(100%, 100%, 100%)" fill-opacity="1">
    <g transform="translate(240.810457, 63.378548)">
      <g>
        <path d="M 7.265625 0 C 6.796875 0 6.457031 -0.125 6.25 -0.375 C 6.039062 -0.632812 5.910156 -0.953125 5.859375 -1.328125 L 5.78125 -1.328125 C 5.601562 -0.816406 5.304688 -0.4375 4.890625 -0.1875 C 4.484375 0.0625 3.992188 0.1875 3.421875 0.1875 C 2.554688 0.1875 1.882812 -0.03125 1.40625 -0.46875 C 0.925781 -0.914062 0.6875 -1.519531 0.6875 -2.28125 C 0.6875 -3.039062 0.96875 -3.625 1.53125 -4.03125 C 2.101562 -4.445312 2.984375 -4.65625 4.171875 -4.65625 L 5.78125 -4.65625 L 5.78125 -5.46875 C 5.78125 -6.039062 5.617188 -6.476562 5.296875 -6.78125 C 4.984375 -7.09375 4.503906 -7.25 3.859375 -7.25 C 3.359375 -7.25 2.941406 -7.140625 2.609375 -6.921875 C 2.273438 -6.703125 2 -6.40625 1.78125 -6.03125 L 1.03125 -6.75 C 1.25 -7.1875 1.597656 -7.5625 2.078125 -7.875 C 2.566406 -8.1875 3.179688 -8.34375 3.921875 -8.34375 C 4.910156 -8.34375 5.675781 -8.097656 6.21875 -7.609375 C 6.769531 -7.128906 7.046875 -6.457031 7.046875 -5.59375 L 7.046875 -1.109375 L 7.984375 -1.109375 L 7.984375 0 Z M 3.640625 -0.890625 C 3.953125 -0.890625 4.238281 -0.925781 4.5 -1 C 4.757812 -1.070312 4.984375 -1.175781 5.171875 -1.3125 C 5.367188 -1.445312 5.519531 -1.601562 5.625 -1.78125 C 5.726562 -1.957031 5.78125 -2.15625 5.78125 -2.375 L 5.78125 -3.71875 L 4.109375 -3.71875 C 3.378906 -3.71875 2.847656 -3.609375 2.515625 -3.390625 C 2.179688 -3.179688 2.015625 -2.878906 2.015625 -2.484375 L 2.015625 -2.140625 C 2.015625 -1.742188 2.160156 -1.4375 2.453125 -1.21875 C 2.742188 -1 3.140625 -0.890625 3.640625 -0.890625 Z M 3.640625 -0.890625 " style=""/>
      </g>
    </g>
  </g>
  <g fill="rgb(100%, 100%, 100%)" fill-opacity="1">
    <g transform="translate(249.239382, 63.378548)">
      <g/>
    </g>
  </g>
  <g fill="rgb(100%, 100%, 100%)" fill-opacity="1">
    <g transform="translate(252.96452, 63.378548)">
      <g>
        <path d="M 1.34375 0 L 1.34375 -8.15625 L 2.609375 -8.15625 L 2.609375 -6.828125 L 2.671875 -6.828125 C 2.765625 -7.035156 2.867188 -7.226562 2.984375 -7.40625 C 3.109375 -7.59375 3.257812 -7.753906 3.4375 -7.890625 C 3.613281 -8.035156 3.816406 -8.144531 4.046875 -8.21875 C 4.273438 -8.300781 4.546875 -8.34375 4.859375 -8.34375 C 5.398438 -8.34375 5.894531 -8.210938 6.34375 -7.953125 C 6.800781 -7.691406 7.140625 -7.269531 7.359375 -6.6875 L 7.390625 -6.6875 C 7.535156 -7.125 7.8125 -7.507812 8.21875 -7.84375 C 8.625 -8.175781 9.175781 -8.34375 9.875 -8.34375 C 10.707031 -8.34375 11.359375 -8.070312 11.828125 -7.53125 C 12.296875 -6.988281 12.53125 -6.222656 12.53125 -5.234375 L 12.53125 0 L 11.265625 0 L 11.265625 -5 C 11.265625 -5.726562 11.117188 -6.273438 10.828125 -6.640625 C 10.546875 -7.015625 10.097656 -7.203125 9.484375 -7.203125 C 9.222656 -7.203125 8.976562 -7.171875 8.75 -7.109375 C 8.53125 -7.046875 8.328125 -6.953125 8.140625 -6.828125 C 7.960938 -6.703125 7.820312 -6.539062 7.71875 -6.34375 C 7.613281 -6.144531 7.5625 -5.914062 7.5625 -5.65625 L 7.5625 0 L 6.296875 0 L 6.296875 -5 C 6.296875 -5.726562 6.15625 -6.273438 5.875 -6.640625 C 5.59375 -7.015625 5.148438 -7.203125 4.546875 -7.203125 C 4.296875 -7.203125 4.050781 -7.171875 3.8125 -7.109375 C 3.582031 -7.046875 3.378906 -6.953125 3.203125 -6.828125 C 3.023438 -6.703125 2.878906 -6.539062 2.765625 -6.34375 C 2.660156 -6.144531 2.609375 -5.914062 2.609375 -5.65625 L 2.609375 0 Z M 1.34375 0 " style=""/>
      </g>
    </g>
  </g>
  <g fill="rgb(100%, 100%, 100%)" fill-opacity="1">
    <g transform="translate(266.744384, 63.378548)">
      <g>
        <path d="M 4.40625 0.1875 C 3.84375 0.1875 3.335938 0.0859375 2.890625 -0.109375 C 2.453125 -0.304688 2.070312 -0.59375 1.75 -0.96875 C 1.425781 -1.34375 1.175781 -1.789062 1 -2.3125 C 0.832031 -2.832031 0.75 -3.421875 0.75 -4.078125 C 0.75 -4.722656 0.832031 -5.304688 1 -5.828125 C 1.175781 -6.359375 1.425781 -6.804688 1.75 -7.171875 C 2.070312 -7.546875 2.453125 -7.832031 2.890625 -8.03125 C 3.335938 -8.238281 3.84375 -8.34375 4.40625 -8.34375 C 4.957031 -8.34375 5.445312 -8.238281 5.875 -8.03125 C 6.3125 -7.832031 6.679688 -7.554688 6.984375 -7.203125 C 7.285156 -6.859375 7.519531 -6.441406 7.6875 -5.953125 C 7.851562 -5.472656 7.9375 -4.941406 7.9375 -4.359375 L 7.9375 -3.765625 L 2.0625 -3.765625 L 2.0625 -3.375 C 2.0625 -3.03125 2.117188 -2.707031 2.234375 -2.40625 C 2.347656 -2.101562 2.503906 -1.84375 2.703125 -1.625 C 2.910156 -1.40625 3.164062 -1.234375 3.46875 -1.109375 C 3.769531 -0.984375 4.109375 -0.921875 4.484375 -0.921875 C 5.003906 -0.921875 5.453125 -1.039062 5.828125 -1.28125 C 6.210938 -1.519531 6.515625 -1.867188 6.734375 -2.328125 L 7.625 -1.671875 C 7.363281 -1.117188 6.953125 -0.671875 6.390625 -0.328125 C 5.835938 0.015625 5.175781 0.1875 4.40625 0.1875 Z M 4.40625 -7.28125 C 4.0625 -7.28125 3.742188 -7.21875 3.453125 -7.09375 C 3.171875 -6.976562 2.925781 -6.804688 2.71875 -6.578125 C 2.519531 -6.359375 2.359375 -6.097656 2.234375 -5.796875 C 2.117188 -5.503906 2.0625 -5.175781 2.0625 -4.8125 L 2.0625 -4.703125 L 6.578125 -4.703125 L 6.578125 -4.875 C 6.578125 -5.601562 6.378906 -6.1875 5.984375 -6.625 C 5.585938 -7.0625 5.0625 -7.28125 4.40625 -7.28125 Z M 4.40625 -7.28125 " style=""/>
      </g>
    </g>
  </g>
  <g fill="rgb(100%, 100%, 100%)" fill-opacity="1">
    <g transform="translate(275.410069, 63.378548)">
      <g>
        <path d="M 6.5625 -1.328125 L 6.5 -1.328125 C 6 -0.316406 5.203125 0.1875 4.109375 0.1875 C 3.597656 0.1875 3.132812 0.0859375 2.71875 -0.109375 C 2.3125 -0.304688 1.960938 -0.585938 1.671875 -0.953125 C 1.390625 -1.328125 1.171875 -1.773438 1.015625 -2.296875 C 0.867188 -2.828125 0.796875 -3.421875 0.796875 -4.078125 C 0.796875 -4.734375 0.867188 -5.320312 1.015625 -5.84375 C 1.171875 -6.375 1.390625 -6.820312 1.671875 -7.1875 C 1.960938 -7.550781 2.3125 -7.832031 2.71875 -8.03125 C 3.132812 -8.238281 3.597656 -8.34375 4.109375 -8.34375 C 4.671875 -8.34375 5.15625 -8.21875 5.5625 -7.96875 C 5.96875 -7.71875 6.28125 -7.335938 6.5 -6.828125 L 6.5625 -6.828125 L 6.5625 -11.6875 L 7.8125 -11.6875 L 7.8125 0 L 6.5625 0 Z M 4.453125 -0.953125 C 4.734375 -0.953125 5.003906 -0.988281 5.265625 -1.0625 C 5.523438 -1.132812 5.75 -1.238281 5.9375 -1.375 C 6.125 -1.519531 6.273438 -1.695312 6.390625 -1.90625 C 6.503906 -2.113281 6.5625 -2.347656 6.5625 -2.609375 L 6.5625 -5.640625 C 6.5625 -5.859375 6.503906 -6.066406 6.390625 -6.265625 C 6.273438 -6.460938 6.125 -6.628906 5.9375 -6.765625 C 5.75 -6.898438 5.523438 -7.003906 5.265625 -7.078125 C 5.003906 -7.160156 4.734375 -7.203125 4.453125 -7.203125 C 3.734375 -7.203125 3.164062 -6.976562 2.75 -6.53125 C 2.34375 -6.082031 2.140625 -5.492188 2.140625 -4.765625 L 2.140625 -3.375 C 2.140625 -2.65625 2.34375 -2.070312 2.75 -1.625 C 3.164062 -1.175781 3.734375 -0.953125 4.453125 -0.953125 Z M 4.453125 -0.953125 " style=""/>
      </g>
    </g>
  </g>
  <g fill="rgb(100%, 100%, 100%)" fill-opacity="1">
    <g transform="translate(284.565079, 63.378548)">
      <g>
        <path d="M 1.96875 -10.0625 C 1.695312 -10.0625 1.5 -10.125 1.375 -10.25 C 1.257812 -10.382812 1.203125 -10.5625 1.203125 -10.78125 L 1.203125 -10.984375 C 1.203125 -11.191406 1.257812 -11.359375 1.375 -11.484375 C 1.5 -11.617188 1.695312 -11.6875 1.96875 -11.6875 C 2.25 -11.6875 2.445312 -11.617188 2.5625 -11.484375 C 2.6875 -11.359375 2.75 -11.191406 2.75 -10.984375 L 2.75 -10.78125 C 2.75 -10.5625 2.6875 -10.382812 2.5625 -10.25 C 2.445312 -10.125 2.25 -10.0625 1.96875 -10.0625 Z M 1.34375 -8.15625 L 2.609375 -8.15625 L 2.609375 0 L 1.34375 0 Z M 1.34375 -8.15625 " style=""/>
      </g>
    </g>
  </g>
  <g fill="rgb(100%, 100%, 100%)" fill-opacity="1">
    <g transform="translate(288.511198, 63.378548)">
      <g>
        <path d="M 6.5625 -1.328125 L 6.5 -1.328125 C 6 -0.316406 5.203125 0.1875 4.109375 0.1875 C 3.597656 0.1875 3.132812 0.0859375 2.71875 -0.109375 C 2.3125 -0.304688 1.960938 -0.585938 1.671875 -0.953125 C 1.390625 -1.328125 1.171875 -1.773438 1.015625 -2.296875 C 0.867188 -2.828125 0.796875 -3.421875 0.796875 -4.078125 C 0.796875 -4.734375 0.867188 -5.320312 1.015625 -5.84375 C 1.171875 -6.375 1.390625 -6.820312 1.671875 -7.1875 C 1.960938 -7.550781 2.3125 -7.832031 2.71875 -8.03125 C 3.132812 -8.238281 3.597656 -8.34375 4.109375 -8.34375 C 4.671875 -8.34375 5.15625 -8.21875 5.5625 -7.96875 C 5.96875 -7.71875 6.28125 -7.335938 6.5 -6.828125 L 6.5625 -6.828125 L 6.5625 -11.6875 L 7.8125 -11.6875 L 7.8125 0 L 6.5625 0 Z M 4.453125 -0.953125 C 4.734375 -0.953125 5.003906 -0.988281 5.265625 -1.0625 C 5.523438 -1.132812 5.75 -1.238281 5.9375 -1.375 C 6.125 -1.519531 6.273438 -1.695312 6.390625 -1.90625 C 6.503906 -2.113281 6.5625 -2.347656 6.5625 -2.609375 L 6.5625 -5.640625 C 6.5625 -5.859375 6.503906 -6.066406 6.390625 -6.265625 C 6.273438 -6.460938 6.125 -6.628906 5.9375 -6.765625 C 5.75 -6.898438 5.523438 -7.003906 5.265625 -7.078125 C 5.003906 -7.160156 4.734375 -7.203125 4.453125 -7.203125 C 3.734375 -7.203125 3.164062 -6.976562 2.75 -6.53125 C 2.34375 -6.082031 2.140625 -5.492188 2.140625 -4.765625 L 2.140625 -3.375 C 2.140625 -2.65625 2.34375 -2.070312 2.75 -1.625 C 3.164062 -1.175781 3.734375 -0.953125 4.453125 -0.953125 Z M 4.453125 -0.953125 " style=""/>
      </g>
    </g>
  </g>
  <g fill="rgb(100%, 100%, 100%)" fill-opacity="1">
    <g transform="translate(297.666208, 63.378548)">
      <g>
        <path d="M 7.265625 0 C 6.796875 0 6.457031 -0.125 6.25 -0.375 C 6.039062 -0.632812 5.910156 -0.953125 5.859375 -1.328125 L 5.78125 -1.328125 C 5.601562 -0.816406 5.304688 -0.4375 4.890625 -0.1875 C 4.484375 0.0625 3.992188 0.1875 3.421875 0.1875 C 2.554688 0.1875 1.882812 -0.03125 1.40625 -0.46875 C 0.925781 -0.914062 0.6875 -1.519531 0.6875 -2.28125 C 0.6875 -3.039062 0.96875 -3.625 1.53125 -4.03125 C 2.101562 -4.445312 2.984375 -4.65625 4.171875 -4.65625 L 5.78125 -4.65625 L 5.78125 -5.46875 C 5.78125 -6.039062 5.617188 -6.476562 5.296875 -6.78125 C 4.984375 -7.09375 4.503906 -7.25 3.859375 -7.25 C 3.359375 -7.25 2.941406 -7.140625 2.609375 -6.921875 C 2.273438 -6.703125 2 -6.40625 1.78125 -6.03125 L 1.03125 -6.75 C 1.25 -7.1875 1.597656 -7.5625 2.078125 -7.875 C 2.566406 -8.1875 3.179688 -8.34375 3.921875 -8.34375 C 4.910156 -8.34375 5.675781 -8.097656 6.21875 -7.609375 C 6.769531 -7.128906 7.046875 -6.457031 7.046875 -5.59375 L 7.046875 -1.109375 L 7.984375 -1.109375 L 7.984375 0 Z M 3.640625 -0.890625 C 3.953125 -0.890625 4.238281 -0.925781 4.5 -1 C 4.757812 -1.070312 4.984375 -1.175781 5.171875 -1.3125 C 5.367188 -1.445312 5.519531 -1.601562 5.625 -1.78125 C 5.726562 -1.957031 5.78125 -2.15625 5.78125 -2.375 L 5.78125 -3.71875 L 4.109375 -3.71875 C 3.378906 -3.71875 2.847656 -3.609375 2.515625 -3.390625 C 2.179688 -3.179688 2.015625 -2.878906 2.015625 -2.484375 L 2.015625 -2.140625 C 2.015625 -1.742188 2.160156 -1.4375 2.453125 -1.21875 C 2.742188 -1 3.140625 -0.890625 3.640625 -0.890625 Z M 3.640625 -0.890625 " style=""/>
      </g>
    </g>
  </g>
  <g clip-path="url(#id4)" style="" transform="matrix(1, 0, 0, 1.00547, 0, 0)">
    <g fill="rgb(0%, 76.078796%, 100%)" fill-opacity="1">
      <g transform="translate(77.115996, -0.0213071)">
        <g>
          <path d="M -46.671875 0 L -29.640625 0 L -0.140625 76.15625 L -17.328125 76.15625 L -38.515625 16.171875 L -59.40625 76.15625 L -75.875 76.15625 Z M -46.671875 0 "/>
        </g>
      </g>
    </g>
  </g>
  <g fill="rgb(0%, 76.078796%, 100%)" fill-opacity="1">
    <g transform="translate(117.665872, 75.943605)">
      <g>
        <path d="M 23.703 0.624 L 10.375 0.624 L 10.375 -76.074 L 23.703 -76.074 L 23.703 0.624 Z M 23.703 0.624" style=""/>
      </g>
    </g>
  </g>
  <g fill="rgb(0%, 76.078796%, 100%)" fill-opacity="1" style="" transform="matrix(1, 0, 0, 0.971051, 0, 2.82217)">
    <g transform="translate(62.581861, 75.943605)">
      <g>
        <path d="M 45.59375 0 L 31.828125 0 L 0.34375 -78.984375 L 14.671875 -78.984375 L 39.046875 -14.78125 L 63.640625 -78.984375 L 77.53125 -78.984375 Z M 45.59375 0 "/>
      </g>
    </g>
  </g>
</svg>