<?xml version="1.0" encoding="utf-8"?>
<svg width="500" zoomAndPan="magnify" viewBox="83.026 0 156.975 76.5" height="102" preserveAspectRatio="xMidYMid meet" version="1.0" xmlns="http://www.w3.org/2000/svg">
  <defs>
    <g>
      <g id="id1"/>
      <g id="id2"/>
      <g id="id3"/>
    </g>
    <clipPath id="id4">
      <path d="M 1.21875 0 L 77 0 L 77 76.003906 L 1.21875 76.003906 Z M 1.21875 0 " clip-rule="nonzero"/>
    </clipPath>
  </defs>
  <rect x="82.627" y="-0.399" width="157.573" height="76.992" style="stroke-width: 0px; stroke: rgb(0, 0, 0); paint-order: fill;"/>
  <g fill="rgb(100%, 100%, 100%)" fill-opacity="1" transform="matrix(0.407555, 0, 0, 0.407555, 78.6446, 28.571943)" style="">
    <g transform="translate(171.595429, 37.748233)">
      <g>
        <path d="M 20.167969 0 L 25.515625 0 L 17.335938 -23.242188 L 9.226562 -23.242188 L 1.046875 0 L 6.394531 0 L 8.074219 -4.753906 L 18.488281 -4.753906 Z M 9.507812 -8.84375 L 13.28125 -19.574219 L 17.058594 -8.84375 Z M 9.507812 -8.84375 " style=""/>
      </g>
    </g>
  </g>
  <g fill="rgb(100%, 100%, 100%)" fill-opacity="1" transform="matrix(0.407555, 0, 0, 0.407555, 78.6446, 28.571943)" style="">
    <g transform="translate(198.124228, 37.748233)">
      <g>
        <path d="M 19.1875 -23.242188 L 14.015625 -8.003906 C 13.597656 -6.710938 13.246094 -5.453125 12.898438 -4.160156 C 12.582031 -5.453125 12.199219 -6.710938 11.777344 -8.003906 L 6.640625 -23.242188 L 1.152344 -23.242188 L 8.949219 0 L 16.742188 0 L 24.535156 -23.242188 Z M 19.1875 -23.242188 " style=""/>
      </g>
    </g>
  </g>
  <g fill="rgb(100%, 100%, 100%)" fill-opacity="1" transform="matrix(0.407555, 0, 0, 0.407555, 78.6446, 28.571943)" style="">
    <g transform="translate(223.779223, 37.748233)">
      <g>
        <path d="M 7.339844 -4.230469 L 7.339844 -9.890625 L 19.222656 -9.890625 L 19.222656 -13.839844 L 7.339844 -13.839844 L 7.339844 -19.050781 L 20.273438 -19.050781 L 20.273438 -23.242188 L 2.027344 -23.242188 L 2.027344 0 L 20.378906 0 L 20.378906 -4.230469 Z M 7.339844 -4.230469 " style=""/>
      </g>
    </g>
  </g>
  <g fill="rgb(100%, 100%, 100%)" fill-opacity="1" transform="matrix(0.407555, 0, 0, 0.407555, 78.6446, 28.571943)" style="">
    <g transform="translate(245.904032, 37.748233)">
      <g>
        <path d="M 19.433594 -23.242188 L 19.433594 -3.773438 C 19.050781 -4.964844 18.59375 -6.152344 18.175781 -7.128906 L 10.835938 -23.242188 L 2.027344 -23.242188 L 2.027344 0 L 7.128906 0 L 7.128906 -19.433594 C 7.480469 -18.246094 7.933594 -17.058594 8.457031 -15.867188 L 15.730469 0 L 24.535156 0 L 24.535156 -23.242188 Z M 19.433594 -23.242188 " style=""/>
      </g>
    </g>
  </g>
  <g fill="rgb(100%, 100%, 100%)" fill-opacity="1" transform="matrix(0.407555, 0, 0, 0.407555, 78.6446, 28.571943)" style="">
    <g transform="translate(272.467784, 37.748233)">
      <g>
        <path d="M 31.039062 -23.242188 L 22.054688 -23.242188 L 16.601562 -5.242188 L 11.148438 -23.242188 L 2.027344 -23.242188 L 2.027344 0 L 7.304688 0 L 7.304688 -19.851562 L 13.457031 0 L 19.609375 0 L 25.726562 -19.75 L 25.726562 0 L 31.039062 0 Z M 31.039062 -23.242188 " style=""/>
      </g>
    </g>
  </g>
  <g fill="rgb(100%, 100%, 100%)" fill-opacity="1" transform="matrix(0.407555, 0, 0, 0.407555, 78.6446, 28.571943)" style="">
    <g transform="translate(305.497711, 37.748233)">
      <g>
        <path d="M 7.339844 -4.230469 L 7.339844 -9.890625 L 19.222656 -9.890625 L 19.222656 -13.839844 L 7.339844 -13.839844 L 7.339844 -19.050781 L 20.273438 -19.050781 L 20.273438 -23.242188 L 2.027344 -23.242188 L 2.027344 0 L 20.378906 0 L 20.378906 -4.230469 Z M 7.339844 -4.230469 " style=""/>
      </g>
    </g>
  </g>
  <g fill="rgb(100%, 100%, 100%)" fill-opacity="1" transform="matrix(0.407555, 0, 0, 0.407555, 78.6446, 28.571943)" style="">
    <g transform="translate(327.62252, 37.748233)">
      <g>
        <path d="M 1.363281 -7.65625 C 1.539062 -3.425781 4.160156 0.59375 11.8125 0.59375 C 19.085938 0.59375 21.914062 -2.375 21.914062 -6.957031 C 21.914062 -11.011719 19.539062 -13.246094 14.820312 -13.769531 L 9.960938 -14.367188 C 8.039062 -14.574219 7.234375 -15.589844 7.234375 -16.953125 C 7.234375 -18.769531 8.738281 -19.921875 11.570312 -19.921875 C 14.644531 -19.921875 16.183594 -18.523438 16.460938 -16.359375 L 21.671875 -16.359375 C 21.390625 -20.480469 18.523438 -23.835938 11.570312 -23.835938 C 5.03125 -23.835938 1.886719 -20.832031 1.886719 -16.636719 C 1.886719 -12.792969 4.195312 -10.519531 8.320312 -10.03125 L 13.457031 -9.367188 C 15.519531 -9.085938 16.566406 -8.179688 16.566406 -6.429688 C 16.566406 -4.578125 15.414062 -3.355469 11.882812 -3.355469 C 8.214844 -3.355469 6.675781 -5.171875 6.535156 -7.65625 Z M 1.363281 -7.65625 " style=""/>
      </g>
    </g>
  </g>
  <g fill="rgb(100%, 100%, 100%)" fill-opacity="1" transform="matrix(0.407555, 0, 0, 0.407555, 78.6446, 28.571943)" style="">
    <g transform="translate(350.970661, 37.748233)">
      <g>
        <path d="M 1.363281 -7.65625 C 1.539062 -3.425781 4.160156 0.59375 11.8125 0.59375 C 19.085938 0.59375 21.914062 -2.375 21.914062 -6.957031 C 21.914062 -11.011719 19.539062 -13.246094 14.820312 -13.769531 L 9.960938 -14.367188 C 8.039062 -14.574219 7.234375 -15.589844 7.234375 -16.953125 C 7.234375 -18.769531 8.738281 -19.921875 11.570312 -19.921875 C 14.644531 -19.921875 16.183594 -18.523438 16.460938 -16.359375 L 21.671875 -16.359375 C 21.390625 -20.480469 18.523438 -23.835938 11.570312 -23.835938 C 5.03125 -23.835938 1.886719 -20.832031 1.886719 -16.636719 C 1.886719 -12.792969 4.195312 -10.519531 8.320312 -10.03125 L 13.457031 -9.367188 C 15.519531 -9.085938 16.566406 -8.179688 16.566406 -6.429688 C 16.566406 -4.578125 15.414062 -3.355469 11.882812 -3.355469 C 8.214844 -3.355469 6.675781 -5.171875 6.535156 -7.65625 Z M 1.363281 -7.65625 " style=""/>
      </g>
    </g>
  </g>
  <g fill="rgb(100%, 100%, 100%)" fill-opacity="1" style="">
    <g transform="translate(186.101391, 63.378548)">
      <g/>
    </g>
  </g>
  <g fill="rgb(100%, 100%, 100%)" fill-opacity="1" style="">
    <g transform="translate(237.08532, 63.378548)">
      <g/>
    </g>
  </g>
  <g fill="rgb(100%, 100%, 100%)" fill-opacity="1" style="">
    <g transform="translate(249.239382, 63.378548)">
      <g/>
    </g>
  </g>
  <g clip-path="url(#id4)" style="" transform="matrix(0.386742, 0, 0, 0.389914, 90.884453, 24.254053)">
    <g fill="rgb(0%, 76.078796%, 100%)" fill-opacity="1">
      <g transform="translate(77.115996, -0.0213071)">
        <g>
          <path d="M -46.671875 0 L -29.640625 0 L -0.140625 76.15625 L -17.328125 76.15625 L -38.515625 16.171875 L -59.40625 76.15625 L -75.875 76.15625 Z M -46.671875 0 "/>
        </g>
      </g>
    </g>
  </g>
  <g fill="rgb(0%, 76.078796%, 100%)" fill-opacity="1" style="" transform="matrix(0.386742, 0, 0, 0.375545, 90.884453, 25.345503)">
    <g transform="translate(117.665872, 75.943605)">
      <g>
        <path d="M 23.703125 0 L 10.375 0 L 10.375 -78.984375 L 23.703125 -78.984375 Z M 23.703125 0 "/>
      </g>
    </g>
  </g>
  <g fill="rgb(0%, 76.078796%, 100%)" fill-opacity="1" style="" transform="matrix(0.386742, 0, 0, 0.375545, 90.884453, 25.345503)">
    <g transform="translate(62.581861, 75.943605)">
      <g>
        <path d="M 45.59375 0 L 31.828125 0 L 0.34375 -78.984375 L 14.671875 -78.984375 L 39.046875 -14.78125 L 63.640625 -78.984375 L 77.53125 -78.984375 Z M 45.59375 0 "/>
      </g>
    </g>
  </g>
</svg>