<svg width="54" height="60" viewBox="0 0 54 60" fill="none" xmlns="http://www.w3.org/2000/svg">
<path d="M46.2857 0H7.71429C3.45335 0 0 3.35742 0 7.5V52.5C0 56.6426 3.45335 59.8945 7.71429 59.8945H46.2857C50.5467 59.8945 54 56.5371 54 52.5V7.5C54 3.35741 50.5406 0 46.2857 0ZM27 56.25C24.8605 56.25 23.1429 54.5801 23.1429 52.5C23.1429 50.4199 24.8605 48.75 27 48.75C29.1395 48.75 30.8571 50.4199 30.8571 52.5C30.8571 54.5801 29.1455 56.25 27 56.25ZM46.2857 45H7.71429V7.49999H46.2857V45Z" fill="#92EAF1"/>
</svg>
