<svg width="73" height="71" viewBox="0 0 73 71" fill="none" xmlns="http://www.w3.org/2000/svg">
<path d="M66.1562 0C69.936 0 73 2.98006 73 6.65625V46.5938C73 50.2699 69.936 53.25 66.1562 53.25H25.0938C21.314 53.25 18.25 50.2699 18.25 46.5938V6.65625C18.25 2.98006 21.314 0 25.0938 0H66.1562ZM25.0938 57.6875C18.8043 57.6875 13.6875 52.7108 13.6875 46.5938V17.75H6.84375C3.064 17.75 0 20.7301 0 24.4062V64.3438C0 68.0199 3.064 71 6.84375 71H47.9062C51.686 71 54.75 68.0199 54.75 64.3438V57.6875H25.0938Z" fill="white"/>
</svg>
