<svg width="513" height="381" viewBox="0 0 513 381" fill="none" xmlns="http://www.w3.org/2000/svg">
<g clip-path="url(#clip0_58:251)">
<path d="M30.2275 292.287C15.1281 285.447 2.02081 269.085 0.358063 249.185C15.0163 261.027 32.5659 266.031 49.9017 263.311C56.5844 262.232 63.9269 260.166 69.6454 264.605C73.2037 267.367 75.4128 272.27 76.4262 277.337C77.4395 282.403 77.3938 287.692 77.3421 292.913L77.8123 294.078C62.0392 297.89 45.3269 299.127 30.2275 292.287Z" fill="#F0F0F0"/>
<path d="M0.68564 249.086C8.38031 262.593 19.2972 272.738 31.8857 278.079C34.5793 279.289 37.4093 279.963 40.2713 280.075C43.0622 280.073 45.8016 279.139 48.2048 277.373C50.4722 275.781 52.6435 273.827 55.1821 272.949C56.4868 272.524 57.8491 272.448 59.1793 272.724C60.5096 273.001 61.7779 273.624 62.9011 274.554C65.7482 276.78 67.7831 280.147 69.6813 283.525C71.7888 287.277 73.9301 291.215 77.2201 293.492C77.6187 293.768 77.2515 294.522 76.8535 294.247C71.1296 290.284 69.0103 281.88 64.1382 276.77C61.8648 274.386 59.0006 272.841 55.9962 273.611C53.369 274.285 51.1285 276.298 48.8439 277.934C46.5198 279.7 43.8836 280.731 41.1658 280.937C38.3083 281.006 35.4623 280.469 32.7495 279.35C26.6097 276.95 20.8111 273.363 15.5661 268.721C9.55644 263.464 4.31323 256.965 0.0633237 249.507C-0.199563 249.045 0.424471 248.627 0.68564 249.086V249.086Z" fill="white"/>
<path d="M27.751 276.657C26.7446 279.165 25.0549 281.147 22.9837 282.247C20.9125 283.347 18.5947 283.495 16.4441 282.663C16.0094 282.493 16.2012 281.644 16.6365 281.815C18.6379 282.593 20.797 282.455 22.724 281.426C24.651 280.397 26.2191 278.543 27.1451 276.201C27.3468 275.692 27.9515 276.151 27.751 276.657V276.657Z" fill="white"/>
<path d="M47.1405 278.368C45.7227 272.915 42.7063 268.328 38.6929 265.521C38.295 265.243 38.6621 264.489 39.0594 264.766C43.2315 267.697 46.3627 272.479 47.8281 278.158C47.9675 278.699 47.2792 278.907 47.1405 278.368Z" fill="white"/>
<path d="M10.357 262.853C10.9089 261.984 11.2786 260.957 11.4331 259.866C11.5875 258.774 11.5219 257.652 11.242 256.6C11.0972 256.061 11.7858 255.854 11.9297 256.389C12.2345 257.553 12.3058 258.793 12.1373 259.999C11.9688 261.205 11.5656 262.342 10.9629 263.31C10.9123 263.407 10.8338 263.476 10.7435 263.504C10.6532 263.531 10.5578 263.515 10.4767 263.459C10.3967 263.398 10.3393 263.3 10.3169 263.186C10.2945 263.073 10.3089 262.953 10.357 262.853V262.853Z" fill="white"/>
<path d="M38.467 200.842C38.5651 201.175 38.6632 201.508 38.767 201.843C40.1048 206.316 41.732 210.646 43.6329 214.791C43.7757 215.114 43.9244 215.439 44.0745 215.757C48.7395 225.681 54.8436 234.44 62.0765 241.59C64.9567 244.431 68.0064 246.996 71.1991 249.262C75.6085 252.39 80.5894 255.345 83.8164 259.969C84.1574 260.446 84.4743 260.95 84.7653 261.476L78.9166 293.273C78.8742 293.337 78.8375 293.403 78.7951 293.467L78.6082 294.75C78.4369 294.647 78.2611 294.537 78.0899 294.434C77.9904 294.375 77.8922 294.309 77.7927 294.25C77.7267 294.209 77.6608 294.167 77.5994 294.134C77.5774 294.12 77.5555 294.106 77.5393 294.094C77.4779 294.061 77.4237 294.023 77.3681 293.991C76.384 293.375 75.4017 292.749 74.4211 292.113C74.4153 292.111 74.4153 292.111 74.4107 292.102C66.9018 287.345 59.8726 281.496 53.4704 274.677C53.2815 274.47 53.0868 274.262 52.9007 274.041C50.0845 270.926 47.4774 267.529 45.1057 263.885C43.8121 261.884 42.6007 259.803 41.4761 257.65C38.5789 252.079 36.4034 245.976 35.0294 239.564C32.2917 226.78 32.8676 213.049 38.0632 201.704C38.1962 201.413 38.328 201.13 38.467 200.842Z" fill="#F0F0F0"/>
<path d="M38.7779 201.006C38.3909 217.559 42.2023 233.844 49.671 247.547C51.2368 250.532 53.1706 253.192 55.4014 255.427C57.6311 257.518 60.2695 258.826 63.0426 259.217C65.6224 259.647 68.3012 259.714 70.7522 260.917C71.9995 261.555 73.1243 262.515 74.0528 263.733C74.9812 264.952 75.6924 266.4 76.1397 267.985C77.3367 271.896 77.3336 276.11 77.2156 280.231C77.0845 284.807 76.8902 289.556 78.4158 293.841C78.6007 294.361 77.9429 294.687 77.7583 294.169C75.104 286.714 77.4754 278.414 76.0557 270.682C75.3933 267.074 73.8536 263.693 71.0823 262.055C68.6589 260.623 65.8966 260.551 63.2815 260.145C60.5717 259.813 57.9685 258.659 55.6992 256.786C53.3842 254.699 51.3712 252.136 49.7465 249.209C46.0044 242.69 43.1088 235.479 41.1655 227.84C38.9089 219.136 37.8644 210.017 38.0774 200.875C38.0908 200.309 38.7912 200.443 38.7779 201.006L38.7779 201.006Z" fill="white"/>
<path d="M47.0575 243.311C45.0412 244.559 42.7341 244.874 40.5484 244.2C38.3627 243.526 36.4407 241.906 35.1256 239.63C34.8607 239.168 35.4244 238.634 35.6896 239.096C36.9111 241.219 38.7016 242.727 40.738 243.35C42.7744 243.973 44.9224 243.669 46.7945 242.492C47.2015 242.237 47.4623 243.057 47.0575 243.311Z" fill="white"/>
<path d="M61.7116 259.214C63.2161 253.797 63.0257 247.873 61.1784 242.622C60.995 242.102 61.6527 241.775 61.8359 242.295C63.7501 247.763 63.9381 253.928 62.3625 259.561C62.212 260.098 61.5619 259.748 61.7116 259.214Z" fill="white"/>
<path d="M39.8435 219.249C40.7045 218.968 41.4961 218.426 42.1471 217.67C42.7981 216.915 43.2883 215.97 43.5735 214.92C43.7184 214.381 44.3684 214.732 44.2244 215.267C43.9049 216.425 43.3626 217.468 42.6448 218.305C41.927 219.142 41.0555 219.747 40.1066 220.068C40.0191 220.107 39.9229 220.104 39.8374 220.058C39.7519 220.013 39.6836 219.928 39.6463 219.822C39.6119 219.713 39.6133 219.592 39.6502 219.485C39.6872 219.378 39.7566 219.293 39.8435 219.249H39.8435Z" fill="white"/>
<path d="M487.245 291.631C501.555 282.532 512.947 264.287 512.633 244.283C499.255 258.279 482.332 265.931 464.86 265.886C458.121 265.838 450.63 264.911 445.393 270.192C442.135 273.477 440.426 278.682 439.921 283.865C439.415 289.048 439.983 294.29 440.549 299.463L440.198 300.691C456.227 302.06 472.935 300.73 487.245 291.631Z" fill="#F0F0F0"/>
<path d="M512.298 244.235C505.995 258.818 496.163 270.557 484.197 277.785C481.643 279.397 478.901 280.499 476.072 281.049C473.302 281.473 470.491 280.966 467.932 279.581C465.524 278.349 463.177 276.741 460.571 276.259C459.234 276.037 457.874 276.169 456.581 276.647C455.289 277.125 454.091 277.938 453.069 279.033C450.463 281.678 448.776 285.33 447.225 288.974C445.504 293.02 443.768 297.256 440.728 300.02C440.359 300.354 440.798 301.047 441.166 300.712C446.455 295.904 447.729 287.239 452.06 281.422C454.08 278.708 456.77 276.736 459.828 277.04C462.502 277.307 464.924 278.962 467.353 280.236C469.834 281.633 472.552 282.253 475.269 282.04C478.112 281.672 480.883 280.704 483.465 279.177C489.321 275.856 494.722 271.409 499.469 265.999C504.914 259.862 509.476 252.61 512.957 244.558C513.173 244.059 512.512 243.74 512.298 244.235Z" fill="white"/>
<path d="M488.16 275.739C489.406 278.075 491.278 279.782 493.443 280.557C495.607 281.332 497.922 281.124 499.974 279.97C500.388 279.734 500.114 278.921 499.699 279.157C497.79 280.236 495.633 280.43 493.619 279.703C491.605 278.976 489.866 277.377 488.716 275.194C488.466 274.72 487.911 275.268 488.16 275.739Z" fill="white"/>
<path d="M469.086 280.406C469.955 274.777 472.496 269.763 476.202 266.363C476.569 266.026 476.13 265.334 475.763 265.67C471.912 269.217 469.277 274.442 468.383 280.302C468.298 280.861 469.002 280.962 469.086 280.406H469.086Z" fill="white"/>
<path d="M504.059 259.378C503.426 258.6 502.957 257.638 502.696 256.578C502.435 255.519 502.39 254.395 502.564 253.308C502.654 252.751 501.95 252.651 501.86 253.204C501.673 254.406 501.724 255.647 502.011 256.818C502.297 257.99 502.809 259.056 503.503 259.924C503.563 260.013 503.648 260.069 503.74 260.083C503.832 260.097 503.925 260.066 504 259.997C504.074 259.925 504.121 259.819 504.132 259.703C504.143 259.587 504.117 259.47 504.059 259.378H504.059Z" fill="white"/>
<path d="M470.041 202.14C469.977 202.485 469.912 202.831 469.842 203.18C468.956 207.823 467.769 212.37 466.291 216.774C466.182 217.116 466.066 217.462 465.948 217.8C462.298 228.363 457.105 237.99 450.633 246.193C448.055 249.454 445.282 252.466 442.337 255.203C438.27 258.982 433.618 262.677 430.872 267.76C430.581 268.286 430.316 268.834 430.079 269.401L439.022 300.061C439.071 300.118 439.114 300.178 439.162 300.236L439.474 301.48C439.634 301.352 439.797 301.215 439.957 301.087C440.05 301.013 440.141 300.933 440.234 300.859C440.295 300.808 440.357 300.756 440.414 300.714C440.435 300.697 440.455 300.68 440.47 300.666C440.528 300.624 440.578 300.577 440.63 300.538C441.546 299.775 442.459 299.003 443.369 298.222C443.375 298.219 443.375 298.219 443.378 298.21C450.361 292.34 456.759 285.459 462.44 277.712C462.607 277.477 462.78 277.241 462.942 276.993C465.43 273.47 467.682 269.7 469.676 265.721C470.762 263.537 471.759 261.287 472.662 258.978C474.988 253.006 476.544 246.616 477.275 240.042C478.73 226.936 476.803 213.397 470.527 202.933C470.366 202.666 470.208 202.405 470.041 202.14Z" fill="#F0F0F0"/>
<path d="M469.749 202.35C471.767 218.719 469.592 235.463 463.532 250.205C462.273 253.408 460.617 256.343 458.623 258.903C456.617 261.319 454.128 263.021 451.414 263.834C448.896 264.655 446.245 265.131 443.931 266.7C442.756 267.525 441.735 268.65 440.933 270.001C440.132 271.352 439.569 272.899 439.282 274.539C438.48 278.605 438.899 282.786 439.423 286.858C440.005 291.378 440.667 296.062 439.575 300.548C439.443 301.092 440.128 301.316 440.26 300.773C442.159 292.968 438.986 285.094 439.632 277.203C439.933 273.521 441.127 269.93 443.716 267.881C445.979 266.089 448.714 265.595 451.269 264.791C453.925 264.046 456.395 262.503 458.462 260.296C460.553 257.871 462.298 255.02 463.621 251.866C466.692 244.824 468.854 237.224 470.028 229.345C471.409 220.363 471.545 211.153 470.431 202.113C470.362 201.553 469.68 201.794 469.749 202.35Z" fill="white"/>
<path d="M465.708 245.602C467.832 246.532 470.153 246.491 472.255 245.488C474.358 244.484 476.106 242.582 477.186 240.122C477.403 239.623 476.791 239.179 476.574 239.679C475.571 241.972 473.943 243.743 471.983 244.673C470.024 245.603 467.862 245.63 465.888 244.749C465.459 244.558 465.281 245.412 465.708 245.602Z" fill="white"/>
<path d="M452.735 263.627C450.707 258.481 450.311 252.573 451.626 247.08C451.757 246.536 451.072 246.312 450.941 246.855C449.581 252.575 450.003 258.722 452.123 264.071C452.326 264.581 452.936 264.134 452.735 263.627Z" fill="white"/>
<path d="M470.492 220.618C469.61 220.471 468.771 220.054 468.05 219.404C467.329 218.753 466.75 217.89 466.363 216.892C466.166 216.38 465.556 216.827 465.751 217.336C466.183 218.437 466.824 219.389 467.619 220.11C468.414 220.83 469.338 221.297 470.312 221.47C470.402 221.496 470.498 221.478 470.578 221.42C470.658 221.362 470.718 221.267 470.744 221.156C470.768 221.043 470.754 220.923 470.707 220.822C470.66 220.722 470.583 220.648 470.492 220.618V220.618Z" fill="white"/>
<path d="M446.859 13.0962H346.042V21.1723C346.041 21.5858 346.155 21.9872 346.365 22.3073C346.162 28.6198 346.042 36.6784 346.042 45.4355V261.351C346.042 281.59 346.694 298.056 347.494 298.056H445.408C446.208 298.056 446.86 281.59 446.86 261.351V45.4355C446.86 36.6784 446.74 28.6198 446.537 22.3073C446.747 21.9871 446.861 21.5858 446.86 21.1723L446.859 13.0962Z" fill="white"/>
<path d="M445.408 298.929H347.494C346.73 298.929 346.226 298.929 345.768 287.336C345.492 280.379 345.341 271.151 345.341 261.351V45.4358C345.341 36.9722 345.456 28.7461 345.664 22.2725C345.795 18.3858 345.944 15.2724 346.108 13.0176C346.43 8.60353 346.737 7.85791 347.494 7.85791H445.408C446.165 7.85791 446.471 8.60353 446.794 13.0176C446.958 15.2809 447.107 18.3943 447.237 22.2708L447.238 22.2725C447.446 28.7392 447.561 36.9654 447.561 45.4358V261.351C447.561 271.151 447.409 280.38 447.134 287.336C446.676 298.929 446.171 298.929 445.408 298.929ZM347.892 297.183H445.01C445.517 294.797 446.158 281.843 446.158 261.352V45.4358C446.158 36.9884 446.044 28.7878 445.837 22.3441H445.836C445.707 18.4953 445.559 15.4105 445.397 13.1753C445.334 11.9747 445.203 10.7813 445.003 9.6041H347.899C347.699 10.7813 347.567 11.9747 347.505 13.1753C347.343 15.402 347.195 18.4868 347.065 22.3441C346.858 28.7934 346.743 36.9948 346.743 45.4358V261.351C346.743 281.842 347.384 294.797 347.892 297.183Z" fill="#E4E4E4"/>
<path d="M445.408 8.73096H347.494C347.109 8.73188 346.74 8.92258 346.468 9.26131C346.196 9.60003 346.043 10.0592 346.042 10.5383V21.1725C346.04 21.5861 346.155 21.9874 346.365 22.3076C346.501 22.5169 346.673 22.6859 346.868 22.8021C347.064 22.9184 347.277 22.9791 347.494 22.9798H445.408C445.625 22.9791 445.838 22.9183 446.033 22.8021C446.229 22.6858 446.401 22.5169 446.537 22.3076C446.747 21.9873 446.861 21.586 446.86 21.1725V10.5383C446.859 10.0592 446.706 9.60008 446.434 9.26135C446.162 8.92261 445.793 8.73189 445.408 8.73096Z" fill="#CACACA"/>
<path d="M354.47 17.9026C355.608 17.9026 356.531 16.7536 356.531 15.3361C356.531 13.9186 355.608 12.7695 354.47 12.7695C353.331 12.7695 352.409 13.9186 352.409 15.3361C352.409 16.7536 353.331 17.9026 354.47 17.9026Z" fill="white"/>
<path d="M362.293 17.9026C363.431 17.9026 364.354 16.7536 364.354 15.3361C364.354 13.9186 363.431 12.7695 362.293 12.7695C361.155 12.7695 360.232 13.9186 360.232 15.3361C360.232 16.7536 361.155 17.9026 362.293 17.9026Z" fill="white"/>
<path d="M370.116 17.9026C371.255 17.9026 372.178 16.7536 372.178 15.3361C372.178 13.9186 371.255 12.7695 370.116 12.7695C368.978 12.7695 368.055 13.9186 368.055 15.3361C368.055 16.7536 368.978 17.9026 370.116 17.9026Z" fill="white"/>
<path d="M437.745 11.9089H428.735C428.558 11.9104 428.39 11.9983 428.265 12.1535C428.14 12.3087 428.07 12.5189 428.069 12.7384C428.066 12.8634 428.09 12.987 428.139 13.0963C428.192 13.2369 428.277 13.3558 428.382 13.4393C428.488 13.5227 428.61 13.5673 428.735 13.5678H437.745C437.871 13.5686 437.994 13.5247 438.101 13.4412C438.208 13.3577 438.293 13.2381 438.348 13.0963C438.391 12.9847 438.412 12.8622 438.411 12.7384C438.411 12.6294 438.394 12.5215 438.36 12.4209C438.327 12.3202 438.278 12.2287 438.216 12.1517C438.154 12.0747 438.08 12.0136 437.999 11.9719C437.919 11.9303 437.832 11.9089 437.745 11.9089Z" fill="white"/>
<path d="M437.745 15.0259H428.735C428.558 15.0259 428.389 15.1133 428.264 15.2688C428.139 15.4244 428.069 15.6353 428.069 15.8553C428.069 16.0753 428.139 16.2863 428.264 16.4418C428.389 16.5974 428.558 16.6848 428.735 16.6848H437.745C437.921 16.6848 438.091 16.5974 438.216 16.4418C438.34 16.2863 438.411 16.0753 438.411 15.8553C438.411 15.6353 438.34 15.4244 438.216 15.2688C438.091 15.1133 437.921 15.0259 437.745 15.0259Z" fill="white"/>
<path d="M437.745 18.1426H428.735C428.558 18.1426 428.389 18.23 428.264 18.3855C428.139 18.5411 428.069 18.752 428.069 18.972C428.069 19.192 428.139 19.403 428.264 19.5585C428.389 19.7141 428.558 19.8015 428.735 19.8015H437.745C437.921 19.8015 438.091 19.7141 438.216 19.5585C438.34 19.403 438.411 19.192 438.411 18.972C438.411 18.752 438.34 18.5411 438.216 18.3855C438.091 18.23 437.921 18.1426 437.745 18.1426Z" fill="white"/>
<path d="M406.193 46.2913H387.655C386.725 46.2917 385.834 46.7518 385.176 47.5704C384.519 48.389 384.15 49.4991 384.149 50.6567V70.6506C384.151 71.8078 384.521 72.917 385.178 73.7353C385.835 74.5535 386.726 75.0141 387.655 75.016H406.193C407.122 75.0126 408.012 74.5516 408.669 73.7337C409.326 72.9157 409.696 71.8073 409.699 70.6506V50.6567C409.697 49.4995 409.327 48.3903 408.67 47.572C408.013 46.7537 407.122 46.2932 406.193 46.2913Z" fill="#92EAF1"/>
<path d="M429.226 88.0774H364.615C364.193 88.0774 363.788 88.2862 363.49 88.6579C363.191 89.0296 363.024 89.5337 363.024 90.0593C363.024 90.5849 363.191 91.0891 363.49 91.4607C363.788 91.8324 364.193 92.0412 364.615 92.0412H429.226C429.648 92.0412 430.053 91.8324 430.351 91.4607C430.65 91.0891 430.817 90.5849 430.817 90.0593C430.817 89.5337 430.65 89.0296 430.351 88.6579C430.053 88.2862 429.648 88.0774 429.226 88.0774Z" fill="#E4E4E4"/>
<path d="M389.155 97.3672H364.615C364.193 97.3672 363.788 97.576 363.49 97.9477C363.191 98.3194 363.024 98.8235 363.024 99.3491C363.024 99.8748 363.191 100.379 363.49 100.751C363.788 101.122 364.193 101.331 364.615 101.331H389.155C389.578 101.331 389.982 101.122 390.281 100.751C390.579 100.379 390.747 99.8748 390.747 99.3491C390.747 98.8235 390.579 98.3194 390.281 97.9477C389.982 97.576 389.578 97.3672 389.155 97.3672Z" fill="#E4E4E4"/>
<path d="M406.193 132.727H387.655C386.725 132.728 385.834 133.188 385.176 134.006C384.519 134.825 384.15 135.935 384.149 137.093V157.087C384.151 158.244 384.521 159.353 385.178 160.171C385.835 160.99 386.726 161.45 387.655 161.452H406.193C407.122 161.449 408.012 160.988 408.669 160.17C409.326 159.352 409.696 158.243 409.699 157.087V137.093C409.697 135.936 409.327 134.826 408.67 134.008C408.013 133.19 407.122 132.729 406.193 132.727Z" fill="#92EAF1"/>
<path d="M429.226 174.514H364.615C364.193 174.514 363.788 174.722 363.49 175.094C363.191 175.466 363.024 175.97 363.024 176.496C363.024 177.021 363.191 177.525 363.49 177.897C363.788 178.269 364.193 178.478 364.615 178.478H429.226C429.648 178.478 430.053 178.269 430.351 177.897C430.65 177.525 430.817 177.021 430.817 176.496C430.817 175.97 430.65 175.466 430.351 175.094C430.053 174.722 429.648 174.514 429.226 174.514Z" fill="#E4E4E4"/>
<path d="M389.155 183.803H364.615C364.193 183.803 363.788 184.012 363.49 184.384C363.191 184.756 363.024 185.26 363.024 185.785C363.024 186.311 363.191 186.815 363.49 187.187C363.788 187.559 364.193 187.767 364.615 187.767H389.155C389.578 187.767 389.982 187.559 390.281 187.187C390.579 186.815 390.747 186.311 390.747 185.785C390.747 185.26 390.579 184.756 390.281 184.384C389.982 184.012 389.578 183.803 389.155 183.803Z" fill="#E4E4E4"/>
<path d="M406.193 219.164H387.655C386.725 219.164 385.834 219.624 385.176 220.443C384.519 221.261 384.15 222.371 384.149 223.529V243.523C384.151 244.68 384.521 245.789 385.178 246.608C385.835 247.426 386.726 247.886 387.655 247.888H406.193C407.122 247.885 408.012 247.424 408.669 246.606C409.326 245.788 409.696 244.68 409.699 243.523V223.529C409.697 222.372 409.327 221.263 408.67 220.444C408.013 219.626 407.122 219.165 406.193 219.164Z" fill="#92EAF1"/>
<path d="M429.226 260.95H364.615C364.193 260.95 363.788 261.159 363.49 261.53C363.191 261.902 363.024 262.406 363.024 262.932C363.024 263.457 363.191 263.961 363.49 264.333C363.788 264.705 364.193 264.914 364.615 264.914H429.226C429.648 264.914 430.053 264.705 430.351 264.333C430.65 263.961 430.817 263.457 430.817 262.932C430.817 262.406 430.65 261.902 430.351 261.53C430.053 261.159 429.648 260.95 429.226 260.95Z" fill="#E4E4E4"/>
<path d="M389.155 270.24H364.615C364.193 270.24 363.788 270.448 363.49 270.82C363.191 271.192 363.024 271.696 363.024 272.221C363.024 272.747 363.191 273.251 363.49 273.623C363.788 273.995 364.193 274.203 364.615 274.203H389.155C389.578 274.203 389.982 273.995 390.281 273.623C390.579 273.251 390.747 272.747 390.747 272.221C390.747 271.696 390.579 271.192 390.281 270.82C389.982 270.448 389.578 270.24 389.155 270.24Z" fill="#E4E4E4"/>
<path d="M318.55 2.68035C318.549 2.20133 318.396 1.74218 318.124 1.40345C317.852 1.06471 317.484 0.873988 317.099 0.873047H57.9211C57.5364 0.873972 57.1677 1.06467 56.8956 1.4034C56.6236 1.74212 56.4704 2.20129 56.4696 2.68035V13.3146C56.4683 13.7574 56.6011 14.1844 56.8413 14.5108C56.6099 21.7312 56.4696 31.2479 56.4696 41.6727V281.695C56.4696 304.203 57.1217 322.503 57.9211 322.503H317.099C317.898 322.503 318.55 304.203 318.55 281.695V41.6727C318.55 31.2479 318.41 21.7312 318.179 14.5108C318.419 14.1844 318.552 13.7573 318.55 13.3146V2.68035Z" fill="white"/>
<path d="M317.099 323.376H57.9211C57.1288 323.376 56.6505 323.376 56.195 310.578C55.9199 302.847 55.7684 292.589 55.7684 281.694V41.6727C55.7684 31.6257 55.9006 21.9671 56.1408 14.476C56.6017 1.1657e-05 57.1266 0 57.9211 0H317.099C317.893 0 318.418 0.00256955 318.879 14.476C319.119 21.9603 319.251 31.6189 319.251 41.6727V281.694C319.251 292.59 319.1 302.847 318.825 310.578C318.369 323.376 317.891 323.376 317.099 323.376ZM58.3304 321.63H316.69C317.263 318.892 317.849 303.522 317.849 281.694V41.6727C317.849 31.6415 317.717 22.0072 317.478 14.5459V14.5454C317.186 5.37499 316.845 2.58432 316.682 1.74618H58.338C58.175 2.58435 57.834 5.37499 57.5419 14.5454C57.3025 22.0145 57.1707 31.6483 57.1707 41.6727V281.694C57.1707 303.522 57.7566 318.892 58.3304 321.63Z" fill="#E4E4E4"/>
<path d="M317.099 0.873047H57.9211C57.5364 0.873972 57.1677 1.06467 56.8956 1.4034C56.6236 1.74212 56.4704 2.20129 56.4696 2.68035V13.3146C56.4683 13.7574 56.6011 14.1844 56.8413 14.5108C56.9761 14.7024 57.1421 14.856 57.3283 14.9614C57.5145 15.0668 57.7166 15.1215 57.9211 15.1219H317.099C317.303 15.1215 317.505 15.0668 317.692 14.9614C317.878 14.856 318.044 14.7024 318.179 14.5108C318.419 14.1844 318.551 13.7573 318.55 13.3146V2.68035C318.549 2.20134 318.396 1.74221 318.124 1.40348C317.852 1.06474 317.484 0.874007 317.099 0.873047Z" fill="#CACACA"/>
<path d="M64.8972 10.045C66.0355 10.045 66.9583 8.8959 66.9583 7.47842C66.9583 6.06095 66.0355 4.91187 64.8972 4.91187C63.7589 4.91187 62.8361 6.06095 62.8361 7.47842C62.8361 8.8959 63.7589 10.045 64.8972 10.045Z" fill="white"/>
<path d="M72.7205 10.045C73.8588 10.045 74.7815 8.8959 74.7815 7.47842C74.7815 6.06095 73.8588 4.91187 72.7205 4.91187C71.5821 4.91187 70.6594 6.06095 70.6594 7.47842C70.6594 8.8959 71.5821 10.045 72.7205 10.045Z" fill="white"/>
<path d="M80.5441 10.045C81.6824 10.045 82.6052 8.8959 82.6052 7.47842C82.6052 6.06095 81.6824 4.91187 80.5441 4.91187C79.4057 4.91187 78.483 6.06095 78.483 7.47842C78.483 8.8959 79.4057 10.045 80.5441 10.045Z" fill="white"/>
<path d="M309.435 4.05103H300.425C300.249 4.05103 300.079 4.13841 299.954 4.29396C299.83 4.44951 299.759 4.66048 299.759 4.88046C299.759 5.10044 299.83 5.31141 299.954 5.46696C300.079 5.62251 300.249 5.70991 300.425 5.70991H309.435C309.612 5.70991 309.781 5.62251 309.906 5.46696C310.031 5.31141 310.101 5.10044 310.101 4.88046C310.101 4.66048 310.031 4.44951 309.906 4.29396C309.781 4.13841 309.612 4.05103 309.435 4.05103Z" fill="white"/>
<path d="M309.435 7.16797H300.425C300.249 7.16797 300.079 7.25535 299.954 7.4109C299.83 7.56645 299.759 7.77742 299.759 7.9974C299.759 8.21738 299.83 8.42836 299.954 8.58391C300.079 8.73946 300.249 8.82684 300.425 8.82684H309.435C309.612 8.82684 309.781 8.73946 309.906 8.58391C310.031 8.42836 310.101 8.21738 310.101 7.9974C310.101 7.77742 310.031 7.56645 309.906 7.4109C309.781 7.25535 309.612 7.16797 309.435 7.16797Z" fill="white"/>
<path d="M309.435 10.2849H300.425C300.249 10.2849 300.079 10.3723 299.954 10.5279C299.83 10.6834 299.759 10.8944 299.759 11.1143C299.759 11.3343 299.83 11.5453 299.954 11.7009C300.079 11.8564 300.249 11.9438 300.425 11.9438H309.435C309.612 11.9438 309.781 11.8564 309.906 11.7009C310.031 11.5453 310.101 11.3343 310.101 11.1143C310.101 10.8944 310.031 10.6834 309.906 10.5279C309.781 10.3723 309.612 10.2849 309.435 10.2849Z" fill="white"/>
<path d="M141.694 54.1492H111.362C109.842 54.1515 108.384 54.9047 107.309 56.2436C106.234 57.5824 105.629 59.3977 105.627 61.2911V94.0059C105.629 95.8993 106.234 97.7145 107.309 99.0534C108.384 100.392 109.842 101.145 111.362 101.148H141.694C143.214 101.145 144.672 100.392 145.747 99.0534C146.822 97.7145 147.427 95.8993 147.429 94.0059V61.2911C147.427 59.3977 146.822 57.5824 145.747 56.2436C144.672 54.9047 143.214 54.1515 141.694 54.1492Z" fill="#92EAF1"/>
<path d="M266.799 66.8003H161.08C160.389 66.8003 159.727 67.142 159.238 67.7503C158.75 68.3586 158.476 69.1836 158.476 70.0438C158.476 70.9041 158.75 71.7291 159.238 72.3373C159.727 72.9456 160.389 73.2874 161.08 73.2874H266.799C267.489 73.2874 268.152 72.9456 268.64 72.3373C269.129 71.7291 269.403 70.9041 269.403 70.0438C269.403 69.1836 269.129 68.3586 268.64 67.7503C268.152 67.142 267.489 66.8003 266.799 66.8003Z" fill="#E4E4E4"/>
<path d="M201.235 82.0007H161.08C160.39 82.0007 159.727 82.3425 159.238 82.9507C158.75 83.559 158.476 84.384 158.476 85.2443C158.476 86.1045 158.75 86.9295 159.238 87.5378C159.727 88.1461 160.39 88.4878 161.08 88.4878H201.235C201.926 88.4878 202.588 88.1461 203.077 87.5378C203.565 86.9295 203.84 86.1045 203.84 85.2443C203.84 84.384 203.565 83.559 203.077 82.9507C202.588 82.3425 201.926 82.0007 201.235 82.0007Z" fill="#E4E4E4"/>
<path d="M141.694 141.458H111.362C109.842 141.461 108.384 142.214 107.309 143.553C106.234 144.892 105.629 146.707 105.627 148.6V181.315C105.629 183.208 106.234 185.024 107.309 186.362C108.384 187.701 109.842 188.454 111.362 188.457H141.694C143.214 188.454 144.672 187.701 145.747 186.362C146.822 185.024 147.427 183.208 147.429 181.315V148.6C147.427 146.707 146.822 144.892 145.747 143.553C144.672 142.214 143.214 141.461 141.694 141.458Z" fill="#92EAF1"/>
<path d="M266.799 154.109H161.08C160.389 154.109 159.727 154.451 159.238 155.059C158.75 155.668 158.476 156.493 158.476 157.353C158.476 158.213 158.75 159.038 159.238 159.646C159.727 160.255 160.389 160.596 161.08 160.596H266.799C267.489 160.596 268.152 160.255 268.64 159.646C269.129 159.038 269.403 158.213 269.403 157.353C269.403 156.493 269.129 155.668 268.64 155.059C268.152 154.451 267.489 154.109 266.799 154.109Z" fill="#E4E4E4"/>
<path d="M201.235 169.31H161.08C160.39 169.31 159.727 169.652 159.238 170.26C158.75 170.868 158.476 171.693 158.476 172.553C158.476 173.414 158.75 174.239 159.238 174.847C159.727 175.455 160.39 175.797 161.08 175.797H201.235C201.926 175.797 202.588 175.455 203.077 174.847C203.565 174.239 203.84 173.414 203.84 172.553C203.84 171.693 203.565 170.868 203.077 170.26C202.588 169.652 201.926 169.31 201.235 169.31Z" fill="#E4E4E4"/>
<path d="M141.694 228.768H111.362C109.842 228.77 108.384 229.523 107.309 230.862C106.234 232.201 105.629 234.016 105.627 235.909V268.624C105.629 270.518 106.234 272.333 107.309 273.672C108.384 275.011 109.842 275.764 111.362 275.766H141.694C143.214 275.764 144.672 275.011 145.747 273.672C146.822 272.333 147.427 270.518 147.429 268.624V235.909C147.427 234.016 146.822 232.201 145.747 230.862C144.672 229.523 143.214 228.77 141.694 228.768Z" fill="#92EAF1"/>
<path d="M266.799 241.419H161.08C160.389 241.419 159.727 241.76 159.238 242.369C158.75 242.977 158.476 243.802 158.476 244.662C158.476 245.522 158.75 246.348 159.238 246.956C159.727 247.564 160.389 247.906 161.08 247.906H266.799C267.489 247.906 268.152 247.564 268.64 246.956C269.129 246.348 269.403 245.522 269.403 244.662C269.403 243.802 269.129 242.977 268.64 242.369C268.152 241.76 267.489 241.419 266.799 241.419Z" fill="#E4E4E4"/>
<path d="M201.235 256.619H161.08C160.39 256.619 159.727 256.961 159.238 257.569C158.75 258.177 158.476 259.002 158.476 259.863C158.476 260.723 158.75 261.548 159.238 262.156C159.727 262.764 160.39 263.106 161.08 263.106H201.235C201.926 263.106 202.588 262.764 203.077 262.156C203.565 261.548 203.84 260.723 203.84 259.863C203.84 259.002 203.565 258.177 203.077 257.569C202.588 256.961 201.926 256.619 201.235 256.619Z" fill="#E4E4E4"/>
<path d="M363.376 380.127H189.739C188.938 380.127 188.287 364.804 188.287 345.968V145.04C188.287 126.204 188.938 110.882 189.739 110.882H363.376C364.177 110.882 364.828 126.204 364.828 145.04V345.968C364.828 364.804 364.177 380.127 363.376 380.127Z" fill="white"/>
<path d="M363.376 381H189.739C189.004 381 188.474 381 188.013 370.158C187.737 363.684 187.586 355.093 187.586 345.968V145.04C187.586 135.916 187.737 127.325 188.013 120.852C188.474 110.009 189.004 110.009 189.739 110.009H363.376C364.111 110.009 364.642 110.009 365.103 120.852C365.378 127.325 365.529 135.916 365.529 145.04V345.968C365.529 355.093 365.378 363.684 365.103 370.158C364.642 381 364.111 381 363.376 381ZM190.127 379.254H362.988C363.492 376.992 364.127 364.94 364.127 345.968V145.04C364.127 126.068 363.492 114.017 362.988 111.755H190.127C189.624 114.017 188.988 126.068 188.988 145.04V345.968C188.988 364.94 189.624 376.992 190.127 379.254Z" fill="#E4E4E4"/>
<path d="M363.376 125.131H189.739C189.354 125.131 188.985 124.94 188.713 124.601C188.441 124.262 188.288 123.803 188.287 123.323V112.69C188.288 112.21 188.441 111.751 188.713 111.412C188.985 111.073 189.354 110.882 189.739 110.882H363.376C363.761 110.882 364.13 111.073 364.402 111.412C364.675 111.751 364.828 112.21 364.828 112.69V123.323C364.828 123.803 364.675 124.262 364.402 124.601C364.13 124.94 363.761 125.131 363.376 125.131Z" fill="#CACACA"/>
<path d="M196.712 120.055C197.851 120.055 198.773 118.905 198.773 117.488C198.773 116.07 197.851 114.921 196.712 114.921C195.574 114.921 194.651 116.07 194.651 117.488C194.651 118.905 195.574 120.055 196.712 120.055Z" fill="white"/>
<path d="M204.535 120.055C205.674 120.055 206.597 118.905 206.597 117.488C206.597 116.07 205.674 114.921 204.535 114.921C203.397 114.921 202.474 116.07 202.474 117.488C202.474 118.905 203.397 120.055 204.535 120.055Z" fill="white"/>
<path d="M212.359 120.055C213.497 120.055 214.42 118.905 214.42 117.488C214.42 116.07 213.497 114.921 212.359 114.921C211.221 114.921 210.298 116.07 210.298 117.488C210.298 118.905 211.221 120.055 212.359 120.055Z" fill="white"/>
<path d="M355.711 115.721H346.702C346.525 115.721 346.356 115.634 346.231 115.478C346.105 115.322 346.035 115.111 346.035 114.891C346.035 114.67 346.105 114.459 346.231 114.303C346.356 114.147 346.525 114.06 346.702 114.06H355.711C355.888 114.06 356.057 114.148 356.182 114.304C356.306 114.46 356.376 114.671 356.376 114.891C356.376 115.11 356.306 115.321 356.182 115.477C356.057 115.633 355.888 115.721 355.711 115.721Z" fill="white"/>
<path d="M355.711 118.838H346.702C346.525 118.838 346.356 118.75 346.231 118.594C346.105 118.439 346.035 118.227 346.035 118.007C346.035 117.786 346.105 117.575 346.231 117.419C346.356 117.263 346.525 117.176 346.702 117.176H355.711C355.888 117.176 356.058 117.263 356.183 117.419C356.308 117.575 356.379 117.786 356.379 118.007C356.379 118.227 356.308 118.439 356.183 118.594C356.058 118.75 355.888 118.838 355.711 118.838Z" fill="white"/>
<path d="M355.711 121.954H346.702C346.525 121.954 346.356 121.866 346.231 121.71C346.105 121.554 346.035 121.343 346.035 121.123C346.035 120.902 346.105 120.691 346.231 120.535C346.356 120.379 346.525 120.292 346.702 120.292H355.711C355.888 120.292 356.057 120.38 356.182 120.536C356.306 120.692 356.376 120.903 356.376 121.123C356.376 121.343 356.306 121.554 356.182 121.709C356.057 121.865 355.888 121.953 355.711 121.954Z" fill="white"/>
<path d="M243.096 191.134H220.944C219.834 191.133 218.769 190.583 217.984 189.605C217.198 188.627 216.757 187.301 216.755 185.918V162.027C216.757 160.644 217.198 159.319 217.984 158.341C218.769 157.363 219.834 156.813 220.944 156.811H243.096C244.206 156.813 245.271 157.363 246.057 158.341C246.842 159.319 247.284 160.644 247.285 162.027V185.918C247.284 187.301 246.842 188.627 246.057 189.605C245.271 190.583 244.206 191.133 243.096 191.134Z" fill="#92EAF1"/>
<path d="M334.458 170.791H257.255C256.75 170.791 256.267 170.541 255.91 170.097C255.553 169.653 255.353 169.051 255.353 168.422C255.353 167.794 255.553 167.192 255.91 166.748C256.267 166.304 256.75 166.054 257.255 166.054H334.458C334.962 166.054 335.446 166.304 335.803 166.748C336.16 167.192 336.36 167.794 336.36 168.422C336.36 169.051 336.16 169.653 335.803 170.097C335.446 170.541 334.962 170.791 334.458 170.791Z" fill="#E4E4E4"/>
<path d="M286.578 181.891H257.255C256.75 181.891 256.267 181.642 255.91 181.198C255.553 180.753 255.353 180.151 255.353 179.523C255.353 178.895 255.553 178.293 255.91 177.848C256.267 177.404 256.75 177.155 257.255 177.155H286.578C286.828 177.154 287.076 177.215 287.307 177.334C287.538 177.453 287.748 177.627 287.925 177.847C288.102 178.067 288.242 178.328 288.338 178.616C288.434 178.903 288.483 179.212 288.483 179.523C288.483 179.834 288.434 180.143 288.338 180.43C288.242 180.718 288.102 180.979 287.925 181.199C287.748 181.419 287.538 181.594 287.307 181.712C287.076 181.831 286.828 181.892 286.578 181.891Z" fill="#E4E4E4"/>
<path d="M243.096 261.855H220.944C219.834 261.853 218.769 261.303 217.984 260.325C217.198 259.347 216.757 258.021 216.755 256.638V232.748C216.757 231.365 217.198 230.039 217.984 229.061C218.769 228.083 219.834 227.533 220.944 227.531H243.096C244.206 227.533 245.271 228.083 246.057 229.061C246.842 230.039 247.284 231.365 247.285 232.748V256.638C247.284 258.021 246.842 259.347 246.057 260.325C245.271 261.303 244.206 261.853 243.096 261.855Z" fill="#92EAF1"/>
<path d="M334.458 241.511H257.255C256.75 241.511 256.267 241.262 255.91 240.817C255.553 240.373 255.353 239.771 255.353 239.143C255.353 238.515 255.553 237.912 255.91 237.468C256.267 237.024 256.75 236.775 257.255 236.775H334.458C334.962 236.775 335.446 237.024 335.803 237.468C336.16 237.912 336.36 238.515 336.36 239.143C336.36 239.771 336.16 240.373 335.803 240.817C335.446 241.262 334.962 241.511 334.458 241.511Z" fill="#E4E4E4"/>
<path d="M286.578 252.612H257.255C256.75 252.612 256.267 252.362 255.91 251.918C255.553 251.474 255.353 250.872 255.353 250.244C255.353 249.615 255.553 249.013 255.91 248.569C256.267 248.125 256.75 247.875 257.255 247.875H286.578C286.828 247.875 287.076 247.935 287.307 248.054C287.538 248.173 287.748 248.347 287.925 248.567C288.102 248.787 288.242 249.049 288.338 249.336C288.434 249.624 288.483 249.932 288.483 250.244C288.483 250.555 288.434 250.863 288.338 251.151C288.242 251.438 288.102 251.7 287.925 251.92C287.748 252.14 287.538 252.314 287.307 252.433C287.076 252.552 286.828 252.612 286.578 252.612Z" fill="#E4E4E4"/>
<path d="M243.096 332.575H220.944C219.834 332.574 218.769 332.024 217.984 331.046C217.198 330.068 216.757 328.742 216.755 327.359V303.468C216.757 302.086 217.198 300.76 217.984 299.782C218.769 298.804 219.834 298.254 220.944 298.252H243.096C244.206 298.254 245.271 298.804 246.057 299.782C246.842 300.76 247.284 302.086 247.285 303.468V327.359C247.284 328.742 246.842 330.068 246.057 331.046C245.271 332.024 244.206 332.574 243.096 332.575Z" fill="#92EAF1"/>
<path d="M334.458 312.232H257.255C256.75 312.232 256.267 311.982 255.91 311.538C255.553 311.094 255.353 310.491 255.353 309.863C255.353 309.235 255.553 308.633 255.91 308.189C256.267 307.745 256.75 307.495 257.255 307.495H334.458C334.962 307.495 335.446 307.745 335.803 308.189C336.16 308.633 336.36 309.235 336.36 309.863C336.36 310.491 336.16 311.094 335.803 311.538C335.446 311.982 334.962 312.232 334.458 312.232Z" fill="#E4E4E4"/>
<path d="M286.578 323.332H257.255C256.75 323.332 256.267 323.083 255.91 322.638C255.553 322.194 255.353 321.592 255.353 320.964C255.353 320.336 255.553 319.733 255.91 319.289C256.267 318.845 256.75 318.596 257.255 318.596H286.578C286.828 318.595 287.076 318.656 287.307 318.775C287.538 318.893 287.748 319.068 287.925 319.288C288.102 319.508 288.242 319.769 288.338 320.057C288.434 320.344 288.483 320.653 288.483 320.964C288.483 321.275 288.434 321.584 288.338 321.871C288.242 322.159 288.102 322.42 287.925 322.64C287.748 322.86 287.538 323.034 287.307 323.153C287.076 323.272 286.828 323.333 286.578 323.332Z" fill="#E4E4E4"/>
</g>
<defs>
<clipPath id="clip0_58:251">
<rect width="513" height="381" fill="white"/>
</clipPath>
</defs>
</svg>
