<svg width="78" height="68" viewBox="0 0 78 68" fill="none" xmlns="http://www.w3.org/2000/svg">
<path d="M76.9519 2.53589C76.7707 1.80127 75.9376 1.07495 75.0922 0.917236C70.1872 0 66.3468 0 62.523 0C46.7962 0 37.3652 7.33166 30.3244 17H14.4479C11.9575 17.0021 9.03111 18.5771 7.91442 20.5175L0.383239 33.641C0.150499 34.0885 0.0203135 34.5714 0 35.0625C0.000350187 35.9079 0.385795 36.7186 1.07159 37.3163C1.75739 37.9141 2.68739 38.2499 3.65714 38.25H19.472L16.0481 41.2341C14.3167 42.7431 14.0683 45.5184 16.0481 47.2439L23.8031 54.0049C25.5027 55.4907 28.7019 55.7522 30.7008 54.0049L34.1246 51.0208V64.8125C34.125 65.6579 34.5104 66.4686 35.1962 67.0663C35.882 67.6641 36.812 67.9999 37.7818 68C38.3452 67.9818 38.8992 67.8683 39.4129 67.6659L54.4536 61.1062C56.6822 60.1371 58.4919 57.5867 58.4919 55.4139V41.5433C69.5516 35.3925 77.9972 27.1456 77.9972 13.5074C78.0115 10.1602 78.0115 6.81287 76.9519 2.53589ZM58.5061 22.3125C57.301 22.3122 56.123 22.0005 55.121 21.4166C54.1191 20.8327 53.3383 20.0029 52.8773 19.0321C52.4163 18.0614 52.2958 16.9932 52.5311 15.9628C52.7664 14.9324 53.3469 13.9859 54.1992 13.243C55.0515 12.5002 56.1373 11.9944 57.3193 11.7895C58.5014 11.5846 59.7265 11.6899 60.8399 12.092C61.9533 12.4941 62.905 13.1751 63.5745 14.0487C64.244 14.9223 64.6014 15.9493 64.6014 17C64.6004 18.4089 63.9579 19.7599 62.815 20.7561C61.6721 21.7522 60.1223 22.312 58.5061 22.3125Z" fill="white"/>
</svg>
