<svg width="65" height="64" viewBox="0 0 65 64" fill="none" xmlns="http://www.w3.org/2000/svg">
<path d="M64.1266 2.38672C63.9756 1.69531 63.2813 1.01172 62.5769 0.863281C58.4893 0 55.289 0 52.1025 0C38.9969 0 31.1377 6.90039 25.2703 16H12.0399C9.96456 16.002 7.52593 17.4844 6.59535 19.3105L0.319366 31.6621C0.125416 32.0833 0.016928 32.5378 0 33C0.000291822 33.7957 0.321496 34.5587 0.892992 35.1213C1.46449 35.6838 2.23949 35.9999 3.04761 36H16.2267L13.3734 38.8086C11.9306 40.2288 11.7236 42.8408 13.3734 44.4648L19.8359 50.8281C21.2522 52.2266 23.9182 52.4727 25.584 50.8281L28.4372 48.0195V61C28.4375 61.7957 28.7587 62.5587 29.3302 63.1213C29.9017 63.6838 30.6767 63.9999 31.4848 64C31.9543 63.9829 32.416 63.8761 32.8441 63.6855L45.378 57.5117C47.2352 56.5996 48.7432 54.1992 48.7432 52.1543V39.0996C57.9597 33.3105 64.9977 25.5488 64.9977 12.7129C65.0096 9.5625 65.0096 6.41211 64.1266 2.38672ZM48.7551 21C47.7508 20.9998 46.7691 20.7063 45.9342 20.1568C45.0993 19.6072 44.4486 18.8262 44.0644 17.9126C43.6803 16.9989 43.5799 15.9936 43.7759 15.0238C43.972 14.054 44.4558 13.1632 45.166 12.464C45.8762 11.7649 46.7811 11.2888 47.7661 11.096C48.7511 10.9032 49.7721 11.0022 50.6999 11.3807C51.6278 11.7592 52.4208 12.4001 52.9787 13.2223C53.5367 14.0445 53.8345 15.0111 53.8345 16C53.8337 17.3261 53.2983 18.5976 52.3458 19.5351C51.3934 20.4727 50.1019 20.9996 48.7551 21Z" fill="#92EAF1"/>
</svg>
