<svg width="571" height="502" viewBox="0 0 571 502" fill="none" xmlns="http://www.w3.org/2000/svg">
<rect width="571" height="502" fill="#76BDC2"/>
<path d="M467.695 209.424C452.586 190.097 417.344 186.332 397.439 201.965C397.233 194.061 394.395 186.385 389.277 179.885C384.158 173.386 376.984 168.349 368.642 165.399C360.299 162.448 351.156 161.714 342.344 163.286C333.532 164.858 325.438 168.668 319.064 174.244C321.907 165.459 311.424 156.895 301.054 156.423C290.685 155.951 281.081 160.851 272.185 165.56C263.288 170.268 253.627 175.118 243.258 174.505C232.032 173.843 222.702 166.955 212.218 163.391C186.546 154.666 154.056 170.148 148.369 193.822C119.956 183.782 83.5034 200.248 76.3545 226.442L492.362 230.709C490.879 225.509 487.79 220.769 483.438 217.013C479.085 213.258 473.637 210.631 467.695 209.424Z" fill="#E9E9E9"/>
<path d="M450.953 91.7256C451.673 87.1273 444.295 83.3422 438.745 82.9507C436.107 82.77 433.355 83.1213 430.854 82.3583C425.43 80.6917 423.26 74.5271 417.972 72.5693C414.01 71.0934 409.453 72.4087 405.616 74.1054C401.779 75.8022 397.987 77.9407 393.693 78.1817C389.971 78.3925 385.916 77.1777 382.662 78.774C380.229 79.9688 378.95 82.4286 376.712 83.8844C374.474 85.3402 371.664 85.6012 368.935 85.7317C366.205 85.8623 363.408 85.8924 360.941 86.8863C358.474 87.8803 356.373 90.1895 356.932 92.5389L450.953 91.7256Z" fill="#FAFAFA"/>
<path d="M88.8133 53.9149C89.213 51.3447 85.1018 49.2363 81.9613 49.0255C80.5157 49.0671 79.0697 48.9525 77.6559 48.6841C74.6296 47.7604 73.4191 44.3167 70.4613 43.2223C68.2573 42.4091 65.7106 43.132 63.6093 44.0858C61.5081 45.0396 59.2583 46.1841 56.8715 46.3548C54.7817 46.4753 52.5319 45.7926 50.7047 46.6861C49.3458 47.3588 48.6377 48.6941 47.3929 49.5375C46.0874 50.2343 44.5799 50.5831 43.0533 50.5415C41.5287 50.5096 40.0106 50.7275 38.5767 51.184C37.859 51.4212 37.2484 51.8568 36.8365 52.4253C36.4246 52.9939 36.2338 53.6646 36.2927 54.3366L88.8133 53.9149Z" fill="#FAFAFA"/>
<path d="M517.623 138.602C518.445 133.321 509.972 128.974 503.599 128.562C500.55 128.341 497.398 128.753 494.463 127.87C488.228 125.962 485.738 118.834 479.617 116.615C475.049 114.928 469.83 116.434 465.411 118.382C460.991 120.329 456.64 122.789 451.707 123.07C447.413 123.311 442.765 121.916 439.008 123.753C436.221 125.129 434.76 127.96 432.156 129.627C429.552 131.293 426.343 131.634 423.225 131.755C420.108 131.875 416.853 131.936 414.009 133.08C411.166 134.225 408.802 136.875 409.441 139.576L517.623 138.602Z" fill="#EBEBEB"/>
<path d="M505.986 47.9612C506.568 44.2363 500.596 41.1842 496.108 40.8629C493.972 40.7123 491.745 41.0034 489.724 40.381C485.327 39.0356 483.58 34.0457 479.297 32.4594C476.088 31.2747 472.445 32.3289 469.305 33.7044C466.164 35.0798 463.127 36.8067 459.655 36.9975C456.64 37.1682 453.362 36.1842 450.724 37.4794C448.76 38.4834 447.732 40.4914 445.917 41.6159C444.042 42.6339 441.873 43.1534 439.67 43.1118C437.461 43.0695 435.262 43.386 433.183 44.0456C431.185 44.8488 429.529 46.7162 429.94 48.6238L505.986 47.9612Z" fill="#EBEBEB"/>
<path d="M106.001 136.745C106.435 133.974 101.992 131.725 98.6576 131.464C97.0592 131.522 95.4589 131.4 93.8954 131.102C90.6293 130.098 89.3274 126.394 86.1412 125.209C83.7545 124.325 81.0137 125.119 78.7068 126.133C76.4 127.147 74.1388 128.442 71.5351 128.592C69.2511 128.713 66.8529 127.99 64.8886 128.954C63.4154 129.667 62.6046 131.153 61.3027 132.026C59.8968 132.787 58.2708 133.174 56.6205 133.141C54.9791 133.106 53.3446 133.341 51.8013 133.833C51.0341 134.095 50.3838 134.568 49.9475 135.181C49.5112 135.795 49.3122 136.516 49.3803 137.237L106.001 136.745Z" fill="#EBEBEB"/>
<path d="M223.398 94.3057C224.312 88.4625 214.925 83.6533 207.879 83.1513C204.51 82.9103 201.027 83.3621 197.829 82.3883C190.977 80.2698 188.168 72.4286 181.441 69.9387C176.405 68.0712 170.604 69.7278 165.727 71.8864C160.851 74.045 156.02 76.7659 150.562 77.0771C145.822 77.3381 140.672 75.792 136.515 77.8301C133.42 79.3461 131.81 82.4786 128.955 84.336C126.1 86.1934 122.526 86.5247 119.065 86.6854C115.605 86.846 112.031 86.8862 108.879 88.1512C105.727 89.4163 103.123 92.368 103.774 95.38L223.398 94.3057Z" fill="#F5F5F5"/>
<path d="M31.8049 304.122C31.8049 304.122 22.075 305.337 27.6137 324.061C33.1524 342.786 37.8118 352.404 37.8118 352.404C37.8118 352.404 38.5541 356.651 34.6599 356.531C30.7656 356.41 22.8402 353.689 20.145 357.424C17.4499 361.159 19.8139 365.868 25.9464 370.687C32.0789 375.506 45.0406 386.48 46.2055 387.484C47.3703 388.488 48.2268 390.496 45.566 390.827C42.9051 391.158 23.9822 389.181 23.4454 397.142C22.9087 405.104 42.5282 416.058 44.6409 417.293C46.7536 418.528 47.0848 419.491 46.6166 420.576C46.1484 421.66 39.8445 420.485 34.42 420.134C28.9955 419.783 22.6574 420.214 22.8173 424.833C22.9772 429.451 33.2666 441.087 63.2099 449.682L77.3821 452.864L87.8085 443.768C108.799 423.116 111.06 408.518 108.559 404.451C106.058 400.385 100.313 402.825 95.8254 405.516C91.3373 408.206 86.5524 412.002 85.5474 411.279C84.5424 410.556 84.2683 409.562 85.3875 407.564C86.5067 405.566 97.173 387.484 92.2395 380.787C87.3061 374.09 71.9462 384.141 69.4452 385.064C66.9442 385.988 66.5331 383.809 66.967 382.454C67.401 381.098 72.3573 365.848 74.961 358.98C77.5648 352.113 76.9938 347.043 72.403 344.924C67.8121 342.806 62.6731 348.8 59.3727 350.627C56.0724 352.454 54.3023 348.448 54.3023 348.448C54.3023 348.448 52.772 338.067 46.8222 319.433C40.8723 300.799 31.5765 304.152 31.5765 304.152" fill="#DBDBDB"/>
<path d="M77.3708 455.957C73.0883 442.252 65.9508 417.805 59.6812 396.801C53.4117 375.797 47.7359 356.842 43.522 343.117C41.4207 336.27 39.7191 330.718 38.5314 326.872L37.1724 322.445L36.8298 321.3L36.7271 320.898C36.7271 320.898 36.7842 321.029 36.8755 321.29L37.2638 322.425C37.595 323.429 38.0746 324.924 38.7027 326.822C39.9475 330.647 41.6948 336.189 43.8417 343.037C48.1242 356.741 53.857 375.717 60.1152 396.7C66.3734 417.684 73.4766 442.162 77.6563 455.886" fill="#E0E0E0"/>
<path d="M31.0854 361.641C31.4082 361.763 31.7178 361.911 32.0105 362.083C32.6043 362.384 33.438 362.846 34.4658 363.418C36.5099 364.573 39.285 366.219 42.3227 368.097L50.0655 372.916L52.418 374.372C52.723 374.53 53.0065 374.719 53.2631 374.934C52.933 374.822 52.6187 374.677 52.3266 374.502C51.7328 374.201 50.8991 373.739 49.8828 373.157C47.85 371.982 45.0864 370.295 42.0601 368.428L34.2602 363.649L31.9762 362.213C31.648 362.063 31.3476 361.87 31.0854 361.641Z" fill="#E0E0E0"/>
<path d="M54.4391 374.322C54.3249 374.261 57.9565 369.071 62.5359 362.725C67.1153 356.38 70.9182 351.29 71.021 351.4C71.1238 351.511 67.5036 356.641 62.9242 362.986C58.3448 369.332 54.5419 374.382 54.4391 374.322Z" fill="#E0E0E0"/>
<path d="M62.3989 406.911C62.6286 406.665 62.8891 406.443 63.1755 406.248L65.3795 404.552C67.2296 403.106 69.7877 401.108 72.517 398.809C75.2464 396.51 77.6446 394.361 79.369 392.785L81.4132 390.927C81.6441 390.682 81.9088 390.463 82.2012 390.275C82.0097 390.545 81.7878 390.797 81.5388 391.028C81.0935 391.5 80.3968 392.162 79.6089 392.976C77.953 394.602 75.589 396.791 72.8368 399.09C70.0846 401.389 67.5151 403.367 65.5965 404.753C64.6372 405.445 63.8493 405.997 63.3125 406.359C63.0364 406.577 62.7293 406.763 62.3989 406.911Z" fill="#E0E0E0"/>
<path d="M38.4058 399.592C38.7373 399.625 39.0632 399.692 39.3765 399.793L41.9688 400.496C44.15 401.098 47.1649 401.961 50.4767 402.935C53.7885 403.909 56.7805 404.823 58.9503 405.496L61.497 406.319C61.8171 406.402 62.124 406.52 62.4106 406.67C62.0795 406.63 61.7541 406.559 61.4399 406.459L58.8476 405.767C56.6549 405.154 53.6515 404.291 50.3282 403.317C47.005 402.343 44.0244 401.439 41.866 400.757L39.3194 399.943C39.0016 399.855 38.6954 399.737 38.4058 399.592Z" fill="#E0E0E0"/>
<path d="M41.272 429.1C41.695 429.158 42.1115 429.249 42.5168 429.371L45.84 430.254C48.6493 431.017 52.5093 432.102 56.7803 433.266C61.0514 434.431 64.8885 435.606 67.6636 436.439L70.9526 437.443C71.3471 437.552 71.7293 437.694 72.0946 437.865C71.6701 437.812 71.253 437.721 70.8498 437.593L67.5722 436.74C64.7629 435.977 60.903 434.893 56.6319 433.728C52.3608 432.563 48.5237 431.389 45.7486 430.555L42.4597 429.551C42.0459 429.44 41.6475 429.289 41.272 429.1Z" fill="#E0E0E0"/>
<path d="M71.4663 437.523C71.7542 437.209 72.0754 436.92 72.4256 436.66L75.1321 434.411C77.4161 432.503 80.5452 429.873 83.9255 426.871C87.3058 423.869 90.275 421.098 92.4106 419.07L94.9458 416.66C95.2404 416.354 95.5653 416.072 95.9165 415.817C95.6668 416.15 95.3881 416.465 95.0829 416.76C94.5233 417.363 93.6896 418.216 92.6504 419.25C90.572 421.329 87.6256 424.14 84.2453 427.142C80.865 430.144 77.6559 432.724 75.3719 434.622C74.2299 435.535 73.2364 436.278 72.5626 436.78C72.2201 437.053 71.8535 437.301 71.4663 437.523Z" fill="#E0E0E0"/>
<path d="M482.096 456.971C458.422 445.455 449.526 419.823 446.774 396.158C446.317 392.203 445.22 388.126 446.682 384.422C448.144 380.717 452.392 377.805 456.423 379.01C459.747 380.014 461.62 383.237 463.789 385.837C466.615 389.257 470.489 391.9 474.958 393.458C477.825 394.462 481.239 394.833 483.66 393.156C486.983 390.837 486.686 386.128 486.07 382.193L482.575 360.336C481.947 356.42 481.319 352.424 482.05 348.559C482.781 344.693 485.11 340.888 488.902 339.372C492.693 337.856 497.935 339.372 499.351 343.127C499.758 344.729 500.048 346.352 500.219 347.986C500.585 349.593 501.658 351.29 503.371 351.551C505.084 351.812 506.603 350.547 507.665 349.201C511.365 344.723 513.501 339.282 515.442 333.89C517.383 328.499 519.245 322.997 522.488 318.218C525.731 313.439 530.596 309.363 536.501 308.328C542.405 307.294 549.302 309.975 551.643 315.256C553.985 320.537 551.438 326.601 548.389 331.521C543.93 338.75 538.311 345.377 531.704 351.199C530.376 352.138 529.418 353.42 528.963 354.864C528.461 357.575 531.487 359.884 534.365 360.376C537.608 360.968 540.931 360.255 544.232 360.225C547.532 360.195 551.255 361.109 552.922 363.85C555.206 367.635 552.329 372.263 549.245 375.436C543.142 381.744 535.815 387.05 527.604 391.108C524.704 392.534 521.62 393.849 519.462 396.128C517.303 398.407 516.344 402.152 518.263 404.722C520.181 407.293 524.144 407.734 527.262 406.73C530.379 405.726 532.972 403.799 535.895 402.343C541.297 399.622 548.743 399.1 553.117 403.297C555.994 406.058 556.862 410.325 556.2 414.08C555.372 417.799 553.732 421.341 551.369 424.511C543.752 435.736 533.257 445.304 520.65 451.238C508.042 457.171 495.925 459.832 482.05 456.89" fill="#DEDEDE"/>
<path d="M486.31 441.419C488.495 428.102 491.507 414.899 495.331 401.871C496.325 398.417 497.307 394.994 498.266 391.63C499.226 388.267 500.196 384.934 501.361 381.731C503.587 375.606 506.183 369.591 509.138 363.709C511.913 358.097 514.768 352.866 517.475 347.996C520.181 343.127 522.808 338.629 525.389 334.633C529.41 328.334 533.993 322.325 539.093 316.662C540.874 314.654 542.313 313.168 543.307 312.164L544.449 311.029C544.573 310.895 544.71 310.77 544.86 310.658C544.758 310.806 544.643 310.947 544.517 311.079L543.432 312.264C542.485 313.268 541.08 314.834 539.333 316.852C534.354 322.576 529.865 328.617 525.903 334.924C523.356 338.94 520.775 343.428 518.08 348.298C515.385 353.167 512.53 358.428 509.789 364.01C506.861 369.874 504.288 375.869 502.081 381.972C500.939 385.165 499.979 388.468 499.009 391.831C498.038 395.194 497.067 398.618 496.074 402.072C492.262 415.071 489.235 428.239 487.006 441.519" fill="#E0E0E0"/>
<path d="M501.578 381.681C501.291 381.165 501.069 380.623 500.916 380.064C500.527 379.01 500.025 377.464 499.431 375.546C498.289 371.721 496.805 366.39 495.24 360.486C493.675 354.583 492.145 349.302 490.9 345.507C490.284 343.609 489.758 342.073 489.404 341.019C489.179 340.478 489.011 339.92 488.902 339.352C489.232 339.848 489.492 340.377 489.678 340.928C490.135 341.932 490.74 343.468 491.414 345.356C492.796 349.131 494.418 354.392 495.982 360.326C497.547 366.259 498.906 371.37 499.956 375.386C500.448 377.203 500.87 378.729 501.201 379.954C501.388 380.518 501.514 381.096 501.578 381.681Z" fill="#E0E0E0"/>
<path d="M553.653 365.787C552.974 366.017 552.27 366.185 551.552 366.289C550.193 366.57 548.228 366.972 545.842 367.534C541.022 368.629 534.422 370.356 527.216 372.554C520.01 374.753 513.614 377.042 509.024 378.819C506.74 379.683 504.89 380.436 503.61 380.948C502.967 381.244 502.294 381.489 501.601 381.681C502.185 381.287 502.817 380.95 503.485 380.677C504.718 380.084 506.534 379.261 508.807 378.327C514.733 375.896 520.797 373.735 526.976 371.852C533.116 369.936 539.373 368.32 545.716 367.012C548.148 366.52 550.136 366.199 551.517 366.008C552.219 365.872 552.934 365.798 553.653 365.787Z" fill="#E0E0E0"/>
<path d="M486.823 440.405C486.823 440.405 486.64 440.224 486.355 439.842L485.213 438.126C484.185 436.64 482.746 434.451 481.022 431.73C477.596 426.278 473.028 418.608 468.14 410.094C463.252 401.58 458.798 393.869 455.464 388.357L451.49 381.851L450.416 380.064C450.271 379.865 450.16 379.649 450.085 379.422C450.269 379.594 450.426 379.786 450.553 379.994L451.695 381.701C452.723 383.187 454.162 385.375 455.886 388.106C459.312 393.558 463.88 401.218 468.768 409.742C473.656 418.266 478.11 425.957 481.444 431.469L485.419 437.985L486.492 439.752C486.633 439.956 486.744 440.176 486.823 440.405Z" fill="#E0E0E0"/>
<path d="M554.635 410.245C554.435 410.392 554.212 410.514 553.973 410.606L552.009 411.5L544.734 414.743C538.602 417.483 530.185 421.359 520.889 425.656C511.593 429.953 503.131 433.758 496.907 436.379C493.812 437.694 491.3 438.728 489.541 439.391L487.52 440.164C487.052 440.335 486.8 440.415 486.789 440.385C486.992 440.243 487.214 440.125 487.451 440.033L489.416 439.13L496.679 435.887C502.8 433.146 511.228 429.27 520.524 424.973C529.82 420.676 538.282 416.871 544.506 414.251C547.6 412.945 550.124 411.901 551.883 411.239L553.904 410.466C554.135 410.361 554.381 410.287 554.635 410.245Z" fill="#E0E0E0"/>
<path d="M553.562 480.263C553.562 480.414 433.023 480.534 284.369 480.534C135.715 480.534 15.1543 480.414 15.1543 480.263C15.1543 480.113 135.67 480.002 284.369 480.002C433.069 480.002 553.562 480.123 553.562 480.263Z" fill="#263238"/>
<path d="M483.466 221.271H80.8308C71.6414 221.271 64.1919 227.821 64.1919 235.9V460.073C64.1919 468.152 71.6414 474.701 80.8308 474.701H483.466C492.655 474.701 500.105 468.152 500.105 460.073V235.9C500.105 227.821 492.655 221.271 483.466 221.271Z" fill="#455A64"/>
<path d="M47.1533 458.336H519.439V463.015C519.439 467.653 517.343 472.102 513.612 475.382C509.881 478.662 504.821 480.504 499.545 480.504H67.047C61.7708 480.504 56.7108 478.662 52.98 475.382C49.2493 472.102 47.1533 467.653 47.1533 463.015V458.336Z" fill="#455A64"/>
<path d="M487.177 231.342H75.8862V445.364H487.177V231.342Z" fill="#263238"/>
<path d="M239.169 455.967L245.039 464.159H327.503L332.939 455.967H239.169Z" fill="#263238"/>
<path d="M475.826 238.591H88.0942C86.0318 238.591 84.3599 240.06 84.3599 241.874V441.399C84.3599 443.212 86.0318 444.682 88.0942 444.682H475.826C477.888 444.682 479.56 443.212 479.56 441.399V241.874C479.56 240.06 477.888 238.591 475.826 238.591Z" fill="#EBEBEB"/>
<path d="M479.138 444.983H83.937L84.3596 253.992H479.138V444.983Z" fill="#FAFAFA"/>
<path d="M116.77 246.552C116.767 247.1 116.581 247.635 116.233 248.089C115.885 248.543 115.392 248.897 114.816 249.105C114.24 249.313 113.606 249.367 112.996 249.259C112.385 249.151 111.825 248.886 111.385 248.498C110.945 248.11 110.646 247.616 110.526 247.079C110.405 246.542 110.468 245.985 110.707 245.48C110.946 244.974 111.35 244.542 111.868 244.238C112.386 243.934 112.995 243.771 113.618 243.771C114.033 243.771 114.443 243.843 114.827 243.983C115.21 244.123 115.558 244.328 115.85 244.586C116.143 244.845 116.375 245.151 116.533 245.489C116.691 245.826 116.771 246.188 116.77 246.552Z" fill="#263238"/>
<path d="M97.6411 246.552C97.6411 247.103 97.4553 247.641 97.1072 248.098C96.7591 248.556 96.2644 248.912 95.6857 249.123C95.107 249.333 94.4704 249.387 93.8565 249.279C93.2425 249.171 92.6789 248.905 92.2369 248.515C91.795 248.125 91.4946 247.629 91.3739 247.089C91.2531 246.549 91.3174 245.989 91.5585 245.481C91.7997 244.973 92.207 244.539 92.7287 244.235C93.2504 243.931 93.8631 243.769 94.4892 243.771C94.9041 243.771 95.3149 243.843 95.6981 243.983C96.0812 244.123 96.4292 244.328 96.722 244.586C97.0149 244.845 97.2468 245.151 97.4045 245.489C97.5622 245.826 97.6426 246.188 97.6411 246.552Z" fill="#263238"/>
<path d="M106.823 246.552C106.821 247.1 106.634 247.635 106.286 248.089C105.938 248.543 105.445 248.897 104.869 249.105C104.293 249.313 103.66 249.367 103.049 249.259C102.438 249.151 101.878 248.886 101.438 248.498C100.999 248.11 100.699 247.616 100.579 247.079C100.458 246.542 100.521 245.985 100.76 245.48C100.999 244.974 101.403 244.542 101.921 244.238C102.439 243.934 103.048 243.771 103.671 243.771C104.086 243.771 104.497 243.843 104.88 243.983C105.263 244.123 105.611 244.328 105.904 244.586C106.197 244.845 106.428 245.151 106.586 245.489C106.744 245.826 106.824 246.188 106.823 246.552Z" fill="#263238"/>
<path d="M496.359 455.966C496.359 456.096 399.609 456.207 280.281 456.207C160.954 456.207 64.1919 456.096 64.1919 455.966C64.1919 455.836 160.919 455.716 280.281 455.716C399.643 455.716 496.359 455.816 496.359 455.966Z" fill="#263238"/>
<path d="M437.512 336.219C432.005 340.393 427.917 345.824 425.7 351.912C423.484 357.999 423.224 364.507 424.95 370.717C419.8 369.824 414.479 370.056 409.455 371.393C404.432 372.731 399.858 375.132 396.137 378.387C392.415 381.642 389.66 385.65 388.113 390.06C386.566 394.47 386.274 399.146 387.264 403.678C375.947 396.831 358.645 399.391 350.503 409.13C350.332 402.704 350.046 395.927 346.209 390.456C342.372 384.984 333.647 381.61 327.491 385.084C329.824 382.747 331.242 379.813 331.534 376.715C331.827 373.616 330.979 370.517 329.116 367.873C327.254 365.23 324.474 363.183 321.188 362.034C317.902 360.885 314.283 360.694 310.864 361.49C310.693 353.779 305.154 299.182 300.586 253.118H261.575C257.007 298.379 251.788 350.366 251.617 357.886C248.189 357.073 244.554 357.254 241.253 358.402C237.952 359.551 235.16 361.605 233.293 364.26C231.427 366.916 230.585 370.029 230.892 373.139C231.2 376.249 232.641 379.188 235.001 381.52C228.846 378.046 220.155 381.43 216.284 386.891C212.412 392.353 212.149 399.14 211.978 405.566C203.836 395.837 186.546 393.267 175.217 400.114C176.207 395.582 175.915 390.906 174.368 386.496C172.821 382.086 170.065 378.078 166.344 374.823C162.623 371.568 158.049 369.166 153.026 367.829C148.002 366.492 142.681 366.259 137.531 367.153C139.361 360.943 139.149 354.405 136.918 348.297C134.688 342.19 130.532 336.764 124.933 332.651C119.334 328.538 112.522 325.907 105.289 325.064C98.0559 324.22 90.6993 325.199 84.0742 327.886V444.882H478.407V331.43C471.752 328.831 464.408 327.903 457.19 328.748C449.972 329.593 443.161 332.179 437.512 336.219Z" fill="#76BDC2"/>
<g opacity="0.8">
<path opacity="0.8" d="M437.512 336.219C432.005 340.393 427.917 345.824 425.7 351.912C423.484 357.999 423.224 364.507 424.95 370.717C419.8 369.824 414.479 370.056 409.455 371.393C404.432 372.731 399.858 375.132 396.137 378.387C392.415 381.642 389.66 385.65 388.113 390.06C386.566 394.47 386.274 399.146 387.264 403.678C375.947 396.831 358.645 399.391 350.503 409.13C350.332 402.704 350.046 395.927 346.209 390.456C342.372 384.984 333.647 381.61 327.491 385.084C329.824 382.747 331.242 379.813 331.534 376.715C331.827 373.616 330.979 370.517 329.116 367.873C327.254 365.23 324.474 363.183 321.188 362.034C317.902 360.885 314.283 360.694 310.864 361.49C310.693 353.779 305.154 299.182 300.586 253.118H261.575C257.007 298.379 251.788 350.366 251.617 357.886C248.189 357.073 244.554 357.254 241.253 358.402C237.952 359.551 235.16 361.605 233.293 364.26C231.427 366.916 230.585 370.029 230.892 373.139C231.2 376.249 232.641 379.188 235.001 381.52C228.846 378.046 220.155 381.43 216.284 386.891C212.412 392.353 212.149 399.14 211.978 405.566C203.836 395.837 186.546 393.267 175.217 400.114C176.207 395.582 175.915 390.906 174.368 386.496C172.821 382.086 170.065 378.078 166.344 374.823C162.623 371.568 158.049 369.166 153.026 367.829C148.002 366.492 142.681 366.259 137.531 367.153C139.361 360.943 139.149 354.405 136.918 348.297C134.688 342.19 130.532 336.764 124.933 332.651C119.334 328.538 112.522 325.907 105.289 325.064C98.0559 324.22 90.6993 325.199 84.0742 327.886V444.882H478.407V331.43C471.752 328.831 464.408 327.903 457.19 328.748C449.972 329.593 443.161 332.179 437.512 336.219Z" fill="#F5F5F5"/>
</g>
<path d="M435.102 421.519C428.025 417.34 420.048 414.482 411.665 413.121C403.281 411.761 394.669 411.927 386.362 413.61C378.054 415.292 370.228 418.456 363.367 422.904C356.505 427.352 350.755 432.991 346.471 439.471C343.002 435.35 338.47 432.012 333.247 429.732C333.617 428.866 333.926 427.981 334.172 427.082C335.183 423.235 335.06 419.225 333.815 415.432C332.57 411.639 330.244 408.188 327.058 405.407C323.872 402.625 319.931 400.604 315.608 399.535C311.286 398.467 306.724 398.386 302.356 399.301L290.685 253.118H275.382V387.544C265.903 388.819 259.291 398.688 262.637 406.62C259.335 407.072 256.207 408.221 253.522 409.97C250.836 411.719 248.674 414.015 247.22 416.66C246.307 418.387 246.17 422.041 246.958 426.178C241.18 426.271 235.503 427.521 230.358 429.833C225.212 432.145 220.735 435.458 217.266 439.521C212.982 433.041 207.232 427.402 200.37 422.954C193.509 418.506 185.683 415.343 177.375 413.66C169.068 411.977 160.456 411.811 152.072 413.172C143.689 414.532 135.712 417.39 128.635 421.57C124.627 404.502 102.917 392.373 83.6401 396.47V445.194L261.552 444.993C262.774 445.299 264.039 445.455 265.31 445.455L308.797 445.003L480.177 445.194V396.379C460.854 392.323 439.145 404.451 435.102 421.519Z" fill="#76BDC2"/>
<g opacity="0.6">
<path opacity="0.6" d="M435.102 421.519C428.025 417.34 420.048 414.482 411.665 413.121C403.281 411.761 394.669 411.927 386.362 413.61C378.054 415.292 370.228 418.456 363.367 422.904C356.505 427.352 350.755 432.991 346.471 439.471C343.002 435.35 338.47 432.012 333.247 429.732C333.617 428.866 333.926 427.981 334.172 427.082C335.183 423.235 335.06 419.225 333.815 415.432C332.57 411.639 330.244 408.188 327.058 405.407C323.872 402.625 319.931 400.604 315.608 399.535C311.286 398.467 306.724 398.386 302.356 399.301L290.685 253.118H275.382V387.544C265.903 388.819 259.291 398.688 262.637 406.62C259.335 407.072 256.207 408.221 253.522 409.97C250.836 411.719 248.674 414.015 247.22 416.66C246.307 418.387 246.17 422.041 246.958 426.178C241.18 426.271 235.503 427.521 230.358 429.833C225.212 432.145 220.735 435.458 217.266 439.521C212.982 433.041 207.232 427.402 200.37 422.954C193.509 418.506 185.683 415.343 177.375 413.66C169.068 411.977 160.456 411.811 152.072 413.172C143.689 414.532 135.712 417.39 128.635 421.57C124.627 404.502 102.917 392.373 83.6401 396.47V445.194L261.552 444.993C262.774 445.299 264.039 445.455 265.31 445.455L308.797 445.003L480.177 445.194V396.379C460.854 392.323 439.145 404.451 435.102 421.519Z" fill="white"/>
</g>
<path d="M266.371 207.356C257.601 211.021 253.627 221.583 258.195 229.123C259.999 232.135 262.945 234.715 263.334 238.069C263.927 243.209 258.4 247.225 256.687 252.125C255.818 255.061 256.274 258.179 257.96 260.827C259.646 263.475 262.43 265.447 265.732 266.331C268.735 267.024 272.333 266.903 274.342 268.982C276.912 271.632 275.051 276.01 277.255 278.931C279.23 281.552 283.855 281.682 286.836 279.935C289.817 278.188 291.461 275.166 292.637 272.195C293.814 269.223 294.693 266.1 296.726 263.51C299.01 260.669 302.379 258.721 305.097 256.221C311.629 250.197 313.627 241.161 312.154 232.918C310.681 224.675 306.147 217.135 301.02 210.137" fill="#76BDC2"/>
<g opacity="0.3">
<path opacity="0.3" d="M266.371 207.356C257.601 211.021 253.627 221.583 258.195 229.123C259.999 232.135 262.945 234.715 263.334 238.069C263.927 243.209 258.4 247.225 256.687 252.125C255.818 255.061 256.274 258.179 257.96 260.827C259.646 263.475 262.43 265.447 265.732 266.331C268.735 267.024 272.333 266.903 274.342 268.982C276.912 271.632 275.051 276.01 277.255 278.931C279.23 281.552 283.855 281.682 286.836 279.935C289.817 278.188 291.461 275.166 292.637 272.195C293.814 269.223 294.693 266.1 296.726 263.51C299.01 260.669 302.379 258.721 305.097 256.221C311.629 250.197 313.627 241.161 312.154 232.918C310.681 224.675 306.147 217.135 301.02 210.137" fill="#E86409"/>
</g>
<path d="M274.08 211.693C266.646 214.575 263.391 223.641 267.594 229.765C270.163 233.5 275.142 236.874 273.932 241.101C273.11 243.972 269.615 245.729 268.61 248.55C267.274 252.305 271.317 256.291 275.77 256.763C280.224 257.235 284.518 255.146 287.887 252.546C299.547 243.51 302.391 225.84 295.116 213.782" fill="#76BDC2"/>
<path d="M312.406 154.224C312.406 154.224 350.594 176.433 346.426 214.856L311.321 201.001L312.406 154.224Z" fill="#76BDC2"/>
<path d="M248.956 200.228L257.635 212.868H302.641L311.321 200.951L248.956 200.228Z" fill="#263238"/>
<path d="M277.803 72.6895C269.239 73.1941 261.225 76.5805 255.428 82.145C249.63 87.7095 246.494 95.0241 246.672 102.569L248.956 200.961H311.321L313.399 102.518C313.487 98.4542 312.613 94.4183 310.833 90.6667C309.053 86.915 306.406 83.5296 303.059 80.725C299.712 77.9204 295.739 75.7579 291.391 74.3746C287.044 72.9913 282.416 72.4175 277.803 72.6895Z" fill="#76BDC2"/>
<g opacity="0.8">
<path opacity="0.8" d="M277.803 72.6895C269.239 73.1941 261.225 76.5805 255.428 82.145C249.63 87.7095 246.494 95.0241 246.672 102.569L248.956 200.961H311.321L313.399 102.518C313.487 98.4542 312.613 94.4183 310.833 90.6667C309.053 86.915 306.406 83.5296 303.059 80.725C299.712 77.9204 295.739 75.7579 291.391 74.3746C287.044 72.9913 282.416 72.4175 277.803 72.6895Z" fill="white"/>
</g>
<path d="M247.814 154.224C247.814 154.224 209.671 176.433 213.851 214.856L248.956 200.981L247.814 154.224Z" fill="#76BDC2"/>
<path d="M247.015 99.3056C260.205 89.1552 301.602 89.376 312.714 97.639C309.859 61.1134 278.134 47.439 278.134 47.439C245.678 67.1977 247.015 99.3056 247.015 99.3056Z" fill="#76BDC2"/>
<path d="M278.134 47.4475L278.511 47.7487C278.751 47.9495 279.116 48.2407 279.573 48.6322L281.309 50.078L282.451 51.0017L283.593 52.1261C284.415 52.9193 285.352 53.7928 286.345 54.7767L289.383 58.11C289.897 58.7224 290.411 59.3851 290.948 60.0477C291.484 60.7104 292.09 61.3931 292.569 62.1461C293.586 63.632 294.716 65.1581 295.687 66.9151C297.915 70.6494 299.643 74.598 300.837 78.682C301.511 80.9525 302.01 83.2602 302.333 85.5895C302.527 86.7943 302.63 88.0191 302.824 89.234C302.949 90.4959 302.998 91.7627 302.973 93.0291C302.973 103.22 302.824 114.424 302.676 126.161C302.356 149.695 301.979 170.99 301.694 186.401C301.545 194.102 301.42 200.337 301.328 204.654C301.328 206.802 301.237 208.479 301.214 209.674C301.214 210.236 301.214 210.678 301.214 210.959C301.214 211.24 301.214 211.401 301.214 211.401C301.214 211.401 301.214 211.25 301.214 210.959C301.214 210.668 301.214 210.236 301.214 209.674C301.214 208.529 301.214 206.853 301.271 204.654C301.328 200.337 301.42 194.102 301.522 186.401C301.751 170.97 302.059 149.675 302.413 126.161C302.562 114.394 302.733 103.19 302.733 93.0291C302.764 91.776 302.715 90.5223 302.585 89.2741C302.402 88.0392 302.299 86.8244 302.116 85.6296C301.797 83.3072 301.301 81.0062 300.632 78.7422C299.452 74.6755 297.747 70.741 295.55 67.0155C294.522 65.2585 293.391 63.7324 292.352 62.2465C291.85 61.4935 291.21 60.8308 290.742 60.1481C290.274 59.4654 289.714 58.8228 289.2 58.2104L286.185 54.8671C285.203 53.8631 284.278 53.0097 283.456 52.2065L282.314 51.072L281.229 50.1382L279.516 48.6724L278.477 47.7688L278.134 47.4475Z" fill="#263238"/>
<path d="M292.719 124.186C294.68 116.379 289.579 108.751 281.327 107.149C273.074 105.547 264.794 110.578 262.833 118.385C260.873 126.193 265.973 133.821 274.226 135.423C282.479 137.025 290.759 131.994 292.719 124.186Z" fill="#FAFAFA"/>
<path d="M281.32 107.147C281.233 107.158 281.145 107.158 281.058 107.147L280.315 107.057L279.767 106.976H279.093H278.317C278.031 106.976 277.734 106.976 277.426 106.976C276.732 107.014 276.041 107.095 275.359 107.217C274.548 107.368 273.754 107.58 272.984 107.85C271.103 108.509 269.383 109.477 267.913 110.701C266.132 112.179 264.741 113.981 263.836 115.982C263.584 116.528 263.374 117.088 263.208 117.659C263.128 117.95 263.025 118.241 262.946 118.532L262.774 119.436L262.683 119.898V120.36C262.683 120.671 262.626 120.992 262.603 121.303C262.58 121.615 262.603 121.936 262.603 122.257V122.739L262.66 123.231C262.961 125.959 264.151 128.552 266.086 130.701C268.124 133.036 271.034 134.664 274.303 135.299C277.571 135.935 280.99 135.537 283.958 134.175C286.729 132.926 289.035 131.007 290.605 128.643L290.89 128.231L291.13 127.789L291.61 126.936L291.987 126.052L292.169 125.611L292.318 125.159L292.592 124.275C292.672 123.984 292.706 123.683 292.775 123.392C292.889 122.81 292.966 122.224 293.003 121.635C293.155 119.485 292.765 117.332 291.861 115.33C290.815 112.986 289.057 110.941 286.779 109.416C286.218 109.049 285.63 108.713 285.02 108.412C284.735 108.292 284.484 108.151 284.232 108.051L283.513 107.79L282.885 107.569L282.36 107.428L281.629 107.237C281.546 107.219 281.465 107.192 281.389 107.157H281.64L282.371 107.318L282.919 107.448L283.547 107.659L284.278 107.91L285.077 108.261C285.703 108.561 286.306 108.897 286.882 109.265C287.55 109.71 288.179 110.196 288.766 110.721C290.187 112.017 291.311 113.541 292.078 115.209C293.022 117.234 293.439 119.419 293.3 121.605C293.272 122.204 293.2 122.801 293.083 123.392C293.014 123.693 292.98 123.994 292.9 124.295C292.82 124.597 292.717 124.898 292.615 125.199L292.478 125.651L292.295 126.092L291.907 126.996L291.427 127.87L291.187 128.321L290.89 128.743C289.305 131.159 286.957 133.119 284.13 134.386C281.098 135.784 277.601 136.196 274.257 135.547C270.914 134.899 267.939 133.232 265.858 130.841C263.903 128.641 262.714 125.992 262.432 123.211V122.719V122.227C262.432 121.906 262.432 121.574 262.432 121.223C262.432 120.872 262.432 120.581 262.523 120.219V119.747L262.603 119.275C262.671 118.974 262.729 118.663 262.786 118.362C262.843 118.06 262.968 117.769 263.06 117.468C263.229 116.889 263.446 116.322 263.711 115.771C264.631 113.737 266.055 111.909 267.879 110.42C269.377 109.191 271.129 108.226 273.041 107.579C273.823 107.312 274.629 107.104 275.45 106.956C276.14 106.84 276.839 106.766 277.54 106.735C277.86 106.735 278.157 106.735 278.442 106.735H279.23H279.904L280.452 106.826L281.195 106.946L281.32 107.147Z" fill="#263238"/>
<path d="M261.997 119.115C261.997 119.285 258.48 119.205 254.243 119.878C250.007 120.55 246.74 121.675 246.672 121.514C247.3 121.112 248.004 120.81 248.75 120.621C252.247 119.467 255.956 118.888 259.691 118.914C260.467 118.87 261.246 118.938 261.997 119.115Z" fill="#263238"/>
<path d="M312.417 119.095C311.474 119.1 310.533 119.023 309.608 118.864C307.895 118.683 305.519 118.442 302.893 118.271C300.266 118.101 297.879 118.06 296.143 118.03C295.205 118.074 294.264 118.037 293.334 117.92C294.247 117.711 295.189 117.617 296.132 117.639C298.416 117.548 300.704 117.574 302.984 117.719C305.244 117.857 307.494 118.109 309.722 118.472C310.646 118.581 311.551 118.79 312.417 119.095Z" fill="#263238"/>
<path d="M312.76 175.399C312.54 175.425 312.317 175.425 312.097 175.399L310.213 175.268L303.281 174.807C297.434 174.445 289.337 174.094 280.441 174.104C271.545 174.114 263.402 174.475 257.544 174.847L250.623 175.329L248.739 175.449C248.519 175.477 248.296 175.477 248.077 175.449C248.287 175.384 248.506 175.343 248.728 175.329L250.6 175.098C252.222 174.907 254.586 174.676 257.452 174.445C263.3 173.963 271.419 173.541 280.384 173.531C289.349 173.521 297.514 173.933 303.304 174.405C306.239 174.636 308.591 174.857 310.224 175.047L312.097 175.268C312.324 175.285 312.546 175.329 312.76 175.399Z" fill="#263238"/>
<path d="M263.653 133.221C263.653 133.301 263.265 133.331 263.003 133.723C262.926 133.824 262.876 133.938 262.854 134.057C262.832 134.177 262.84 134.299 262.877 134.416C262.935 134.539 263.033 134.645 263.159 134.72C263.285 134.795 263.433 134.836 263.585 134.837C263.738 134.857 263.894 134.838 264.034 134.781C264.174 134.724 264.292 134.631 264.373 134.516C264.43 134.406 264.459 134.286 264.459 134.165C264.459 134.043 264.43 133.924 264.373 133.813C264.179 133.391 263.802 133.311 263.825 133.231C263.848 133.151 264.35 133.08 264.773 133.622C264.892 133.784 264.967 133.968 264.99 134.16C265.014 134.352 264.987 134.546 264.91 134.727C264.795 134.952 264.601 135.139 264.356 135.26C264.111 135.381 263.829 135.43 263.551 135.399C263.311 135.388 263.079 135.318 262.882 135.196C262.686 135.074 262.532 134.906 262.439 134.711C262.346 134.516 262.317 134.302 262.356 134.094C262.395 133.885 262.501 133.69 262.66 133.532C263.162 133 263.699 133.151 263.653 133.221Z" fill="#263238"/>
<path d="M277.244 139.657C277.244 139.747 276.855 139.777 276.593 140.169C276.519 140.268 276.469 140.381 276.448 140.498C276.426 140.616 276.433 140.736 276.467 140.851C276.522 140.977 276.619 141.086 276.745 141.163C276.872 141.24 277.021 141.282 277.175 141.283C277.329 141.301 277.485 141.279 277.625 141.22C277.765 141.162 277.882 141.068 277.963 140.952C278.017 140.842 278.045 140.724 278.045 140.605C278.045 140.486 278.017 140.368 277.963 140.259C277.758 139.837 277.381 139.757 277.404 139.677C277.426 139.596 277.929 139.526 278.351 140.068C278.471 140.228 278.545 140.411 278.569 140.601C278.593 140.791 278.565 140.984 278.488 141.163C278.374 141.389 278.18 141.576 277.936 141.699C277.692 141.822 277.409 141.873 277.129 141.845C276.878 141.843 276.633 141.775 276.425 141.65C276.218 141.526 276.056 141.351 275.961 141.146C275.866 140.941 275.842 140.717 275.891 140.5C275.94 140.283 276.061 140.084 276.239 139.928C276.753 139.446 277.289 139.556 277.244 139.657Z" fill="#263238"/>
<path d="M292.238 134.164C292.238 134.255 291.861 134.285 291.587 134.676C291.513 134.776 291.464 134.889 291.442 135.006C291.42 135.124 291.427 135.244 291.461 135.359C291.521 135.485 291.621 135.592 291.748 135.669C291.876 135.745 292.026 135.788 292.181 135.791C292.333 135.811 292.489 135.79 292.627 135.731C292.766 135.672 292.881 135.577 292.957 135.46C293.011 135.35 293.039 135.232 293.039 135.113C293.039 134.994 293.011 134.876 292.957 134.767C292.763 134.345 292.375 134.265 292.398 134.174C292.421 134.084 292.923 134.034 293.346 134.576C293.469 134.734 293.548 134.917 293.573 135.107C293.599 135.298 293.572 135.491 293.494 135.67C293.375 135.895 293.178 136.082 292.933 136.204C292.687 136.326 292.404 136.379 292.124 136.353C291.844 136.343 291.574 136.255 291.355 136.101C291.135 135.948 290.976 135.737 290.902 135.5C290.857 135.312 290.863 135.117 290.921 134.932C290.978 134.747 291.085 134.577 291.233 134.435C291.747 133.954 292.284 134.104 292.238 134.164Z" fill="#263238"/>
<path d="M297.114 124.315C297.114 124.396 296.726 124.426 296.452 124.817C296.379 124.92 296.332 125.034 296.312 125.153C296.293 125.273 296.301 125.394 296.338 125.51C296.393 125.636 296.49 125.745 296.616 125.822C296.742 125.899 296.892 125.941 297.046 125.942C297.198 125.959 297.352 125.937 297.49 125.878C297.628 125.819 297.743 125.726 297.822 125.611C297.876 125.501 297.904 125.383 297.904 125.264C297.904 125.145 297.876 125.027 297.822 124.918C297.628 124.496 297.251 124.406 297.263 124.325C297.274 124.245 297.788 124.185 298.222 124.727C298.342 124.887 298.417 125.069 298.441 125.26C298.465 125.45 298.437 125.643 298.359 125.821C298.242 126.045 298.048 126.231 297.804 126.352C297.56 126.473 297.278 126.523 297 126.494C296.718 126.484 296.447 126.397 296.226 126.243C296.004 126.09 295.843 125.879 295.767 125.641C295.722 125.453 295.729 125.259 295.787 125.074C295.844 124.889 295.951 124.718 296.098 124.576C296.612 124.105 297.148 124.255 297.114 124.315Z" fill="#263238"/>
<path d="M258.697 123.361C258.697 123.442 258.309 123.472 258.046 123.863C257.973 123.965 257.924 124.079 257.902 124.198C257.88 124.317 257.887 124.439 257.921 124.556C257.977 124.681 258.074 124.789 258.2 124.866C258.326 124.943 258.475 124.985 258.629 124.988C258.782 125.003 258.938 124.98 259.077 124.922C259.216 124.863 259.334 124.771 259.417 124.656C259.473 124.548 259.502 124.43 259.502 124.31C259.502 124.191 259.473 124.072 259.417 123.964C259.223 123.542 258.846 123.452 258.869 123.371C258.891 123.291 259.394 123.231 259.816 123.773C259.937 123.933 260.012 124.115 260.035 124.306C260.059 124.496 260.031 124.688 259.953 124.867C259.838 125.092 259.644 125.279 259.4 125.4C259.155 125.521 258.873 125.57 258.594 125.54C258.313 125.53 258.042 125.443 257.82 125.289C257.599 125.136 257.438 124.925 257.361 124.687C257.316 124.498 257.324 124.303 257.384 124.118C257.444 123.932 257.553 123.762 257.704 123.622C258.206 123.15 258.743 123.301 258.697 123.361Z" fill="#263238"/>
<path d="M292.215 109.848C292.215 109.767 292.603 109.737 292.866 109.346C292.942 109.245 292.993 109.131 293.014 109.011C293.036 108.892 293.028 108.769 292.991 108.653C292.933 108.529 292.835 108.422 292.709 108.346C292.584 108.269 292.436 108.226 292.283 108.221C292.131 108.204 291.977 108.226 291.839 108.285C291.701 108.344 291.586 108.437 291.507 108.552C291.447 108.66 291.416 108.779 291.416 108.899C291.416 109.019 291.447 109.137 291.507 109.245C291.701 109.667 292.078 109.757 292.055 109.838C292.032 109.918 291.53 109.978 291.107 109.436C290.987 109.276 290.912 109.094 290.888 108.903C290.864 108.713 290.892 108.52 290.97 108.342C291.085 108.116 291.279 107.93 291.524 107.809C291.768 107.688 292.051 107.639 292.329 107.669C292.58 107.672 292.825 107.739 293.033 107.864C293.241 107.988 293.402 108.164 293.497 108.368C293.592 108.573 293.617 108.797 293.567 109.014C293.518 109.231 293.397 109.43 293.22 109.587C292.706 110.068 292.169 109.908 292.215 109.848Z" fill="#263238"/>
<path d="M277.221 104.004C277.221 103.924 277.609 103.894 277.872 103.502C277.945 103.401 277.994 103.287 278.016 103.167C278.038 103.048 278.031 102.927 277.997 102.81C277.936 102.685 277.836 102.578 277.709 102.502C277.582 102.425 277.432 102.382 277.278 102.378C277.126 102.361 276.971 102.383 276.833 102.442C276.695 102.501 276.58 102.594 276.501 102.709C276.447 102.819 276.42 102.936 276.42 103.056C276.42 103.175 276.447 103.293 276.501 103.402C276.695 103.834 277.084 103.914 277.061 103.994C277.038 104.075 276.535 104.145 276.113 103.593C275.961 103.415 275.874 103.201 275.862 102.979C275.85 102.757 275.913 102.536 276.045 102.346C276.176 102.156 276.369 102.005 276.599 101.912C276.829 101.82 277.085 101.789 277.335 101.826C277.615 101.836 277.884 101.924 278.104 102.077C278.324 102.231 278.482 102.441 278.557 102.679C278.601 102.867 278.594 103.061 278.537 103.246C278.479 103.431 278.372 103.602 278.226 103.743C277.712 104.225 277.175 104.075 277.221 104.004Z" fill="#263238"/>
<path d="M262.397 109.848C262.397 109.767 262.786 109.737 263.048 109.346C263.122 109.244 263.171 109.13 263.193 109.011C263.214 108.892 263.208 108.77 263.174 108.653C263.113 108.528 263.013 108.421 262.886 108.345C262.758 108.268 262.609 108.226 262.455 108.221C262.302 108.204 262.148 108.226 262.01 108.285C261.872 108.344 261.757 108.437 261.678 108.553C261.624 108.662 261.597 108.78 261.597 108.899C261.597 109.018 261.624 109.136 261.678 109.245C261.872 109.667 262.26 109.757 262.238 109.838C262.215 109.918 261.712 109.978 261.29 109.436C261.138 109.258 261.051 109.044 261.039 108.822C261.026 108.6 261.09 108.38 261.222 108.19C261.353 108 261.546 107.848 261.776 107.756C262.006 107.663 262.262 107.633 262.512 107.669C262.792 107.679 263.061 107.767 263.281 107.921C263.5 108.074 263.659 108.285 263.734 108.522C263.778 108.71 263.771 108.905 263.713 109.089C263.656 109.274 263.549 109.445 263.402 109.587C262.888 110.069 262.352 109.908 262.397 109.848Z" fill="#263238"/>
<path d="M275.325 158.261L276.661 217.005C276.682 217.82 277.07 218.595 277.74 219.16C278.41 219.725 279.307 220.033 280.235 220.017C281.138 219.999 281.997 219.676 282.635 219.115C283.274 218.554 283.641 217.798 283.661 217.005C283.798 206.422 284.244 170.821 284.312 158.2C284.315 157.631 284.177 157.068 283.908 156.549C283.64 156.031 283.247 155.57 282.756 155.198C282.266 154.826 281.69 154.552 281.067 154.394C280.445 154.237 279.791 154.199 279.151 154.285C278.073 154.428 277.092 154.91 276.389 155.641C275.685 156.372 275.307 157.303 275.325 158.261Z" fill="#76BDC2"/>
<g opacity="0.3">
<path opacity="0.3" d="M275.325 158.261L276.661 217.005C276.682 217.82 277.07 218.595 277.74 219.16C278.41 219.725 279.307 220.033 280.235 220.017C281.138 219.999 281.997 219.676 282.635 219.115C283.274 218.554 283.641 217.798 283.661 217.005C283.798 206.422 284.244 170.821 284.312 158.2C284.315 157.631 284.177 157.068 283.908 156.549C283.64 156.031 283.247 155.57 282.756 155.198C282.266 154.826 281.69 154.552 281.067 154.394C280.445 154.237 279.791 154.199 279.151 154.285C278.073 154.428 277.092 154.91 276.389 155.641C275.685 156.372 275.307 157.303 275.325 158.261Z" fill="black"/>
</g>
<path d="M277.392 50.8025C277.586 51.0033 275.37 52.8908 272.139 56.204C270.517 57.8505 268.713 59.8987 266.805 62.228C264.778 64.7839 262.909 67.435 261.21 70.1696C259.553 72.9205 258.07 75.7493 256.767 78.6434C255.625 81.3241 254.655 83.7839 253.981 85.8822C252.622 90.0789 252.051 92.7496 251.697 92.7094C251.343 92.6692 251.571 89.9384 252.622 85.591C253.251 83.0506 254.067 80.5487 255.066 78.1012C256.302 75.1031 257.775 72.1844 259.474 69.3664C261.219 66.5784 263.172 63.8952 265.321 61.3344C267.095 59.2522 269.022 57.2735 271.088 55.4108C274.685 52.2081 277.243 50.6519 277.392 50.8025Z" fill="#E86409"/>
<path d="M246.409 160.068C246.592 160.319 243.429 162.076 239.021 165.71L237.319 167.136C236.725 167.638 236.177 168.21 235.56 168.762C234.316 169.867 233.151 171.172 231.883 172.507C229.237 175.476 226.887 178.641 224.86 181.965C222.884 185.317 221.233 188.81 219.926 192.407C219.39 194.073 218.784 195.66 218.487 197.176C218.305 197.939 218.088 198.661 217.951 199.374C217.814 200.087 217.688 200.76 217.574 201.382C216.683 206.613 216.763 209.916 216.432 209.926C216.295 209.926 216.169 209.113 216.055 207.607C216.055 207.226 215.998 206.804 215.975 206.352C215.952 205.9 215.975 205.398 215.975 204.866C215.984 203.655 216.064 202.445 216.215 201.242C216.295 200.569 216.386 199.866 216.477 199.133C216.569 198.4 216.763 197.647 216.911 196.874C217.197 195.298 217.711 193.662 218.225 191.935C220.649 184.445 224.831 177.485 230.501 171.503C231.731 170.202 233.035 168.955 234.407 167.768C235.046 167.216 235.652 166.654 236.28 166.172L238.107 164.797C239.154 164.006 240.248 163.266 241.384 162.578C241.876 162.266 242.332 161.965 242.766 161.714L243.988 161.072C245.53 160.339 246.329 159.967 246.409 160.068Z" fill="#E86409"/>
<path d="M197.258 351.611C195.722 350.845 194.489 349.683 193.728 348.283C192.966 346.882 192.711 345.31 192.997 343.778C193.283 342.246 194.097 340.828 195.329 339.715C196.56 338.602 198.15 337.848 199.884 337.555C203.013 337.012 206.93 337.796 208.895 335.547C210.688 333.539 209.34 330.888 210.128 327.675C210.916 324.462 214.057 322.946 217.517 322.987C219.251 323.075 220.932 323.549 222.402 324.364C223.872 325.178 225.083 326.307 225.922 327.645C227.774 330.62 228.611 334.001 228.332 337.384C227.407 344.322 223.193 347.876 217.951 350.817C212.709 353.759 202.785 354.432 197.258 351.55" fill="#76BDC2"/>
<g opacity="0.8">
<path opacity="0.8" d="M197.258 351.611C195.722 350.845 194.489 349.683 193.728 348.283C192.966 346.882 192.711 345.31 192.997 343.778C193.283 342.246 194.097 340.828 195.329 339.715C196.56 338.602 198.15 337.848 199.884 337.555C203.013 337.012 206.93 337.796 208.895 335.547C210.688 333.539 209.34 330.888 210.128 327.675C210.916 324.462 214.057 322.946 217.517 322.987C219.251 323.075 220.932 323.549 222.402 324.364C223.872 325.178 225.083 326.307 225.922 327.645C227.774 330.62 228.611 334.001 228.332 337.384C227.407 344.322 223.193 347.876 217.951 350.817C212.709 353.759 202.785 354.432 197.258 351.55" fill="white"/>
</g>
<path d="M325.379 295.999C326.652 293.859 328.638 292.112 331.072 290.992C333.506 289.872 336.271 289.433 338.997 289.733C341.722 290.033 344.279 291.059 346.323 292.672C348.367 294.286 349.802 296.41 350.434 298.76C351.576 303.027 350.434 308.429 354.466 311.009C358.131 313.348 362.768 311.33 368.524 312.214C374.279 313.097 377.157 317.314 377.283 322.073C377.408 326.832 374.096 331.35 369.517 333.88C364.351 336.598 358.404 337.95 352.387 337.776C340.019 336.922 333.453 331.35 327.914 324.342C322.375 317.334 320.594 303.75 325.379 295.999Z" fill="#76BDC2"/>
<g opacity="0.8">
<path opacity="0.8" d="M325.379 295.999C326.652 293.859 328.638 292.112 331.072 290.992C333.506 289.872 336.271 289.433 338.997 289.733C341.722 290.033 344.279 291.059 346.323 292.672C348.367 294.286 349.802 296.41 350.434 298.76C351.576 303.027 350.434 308.429 354.466 311.009C358.131 313.348 362.768 311.33 368.524 312.214C374.279 313.097 377.157 317.314 377.283 322.073C377.408 326.832 374.096 331.35 369.517 333.88C364.351 336.598 358.404 337.95 352.387 337.776C340.019 336.922 333.453 331.35 327.914 324.342C322.375 317.334 320.594 303.75 325.379 295.999Z" fill="white"/>
</g>
<path d="M233.094 281.762C231.717 282.385 230.562 283.329 229.756 284.491C228.95 285.653 228.525 286.988 228.526 288.349C228.583 289.86 229.194 291.316 230.267 292.498C231.34 293.68 232.819 294.527 234.483 294.911C236.147 295.296 237.908 295.198 239.503 294.633C241.099 294.067 242.445 293.064 243.341 291.773C244.236 290.482 244.634 288.97 244.475 287.464C244.316 285.958 243.609 284.537 242.458 283.413C241.307 282.289 239.774 281.521 238.087 281.223C236.4 280.926 234.649 281.115 233.094 281.762Z" fill="#76BDC2"/>
<g opacity="0.8">
<path opacity="0.8" d="M233.094 281.762C231.717 282.385 230.562 283.329 229.756 284.491C228.95 285.653 228.525 286.988 228.526 288.349C228.583 289.86 229.194 291.316 230.267 292.498C231.34 293.68 232.819 294.527 234.483 294.911C236.147 295.296 237.908 295.198 239.503 294.633C241.099 294.067 242.445 293.064 243.341 291.773C244.236 290.482 244.634 288.97 244.475 287.464C244.316 285.958 243.609 284.537 242.458 283.413C241.307 282.289 239.774 281.521 238.087 281.223C236.4 280.926 234.649 281.115 233.094 281.762Z" fill="white"/>
</g>
<path d="M354.511 365.958C353.825 366.271 353.249 366.744 352.846 367.324C352.444 367.905 352.23 368.571 352.227 369.251C352.254 370.01 352.559 370.74 353.097 371.334C353.635 371.928 354.376 372.354 355.211 372.547C356.045 372.741 356.929 372.693 357.73 372.409C358.531 372.126 359.206 371.623 359.656 370.975C360.105 370.327 360.305 369.568 360.225 368.813C360.144 368.057 359.789 367.344 359.211 366.78C358.632 366.216 357.863 365.832 357.016 365.684C356.169 365.536 355.291 365.632 354.511 365.958Z" fill="#76BDC2"/>
<g opacity="0.8">
<path opacity="0.8" d="M354.511 365.958C353.825 366.271 353.249 366.744 352.846 367.324C352.444 367.905 352.23 368.571 352.227 369.251C352.254 370.01 352.559 370.74 353.097 371.334C353.635 371.928 354.376 372.354 355.211 372.547C356.045 372.741 356.929 372.693 357.73 372.409C358.531 372.126 359.206 371.623 359.656 370.975C360.105 370.327 360.305 369.568 360.225 368.813C360.144 368.057 359.789 367.344 359.211 366.78C358.632 366.216 357.863 365.832 357.016 365.684C356.169 365.536 355.291 365.632 354.511 365.958Z" fill="#E86409"/>
</g>
<path d="M322.707 338.479H251.72C239.27 338.479 229.177 347.352 229.177 358.297V361.079C229.177 372.024 239.27 380.897 251.72 380.897H322.707C335.157 380.897 345.25 372.024 345.25 361.079V358.297C345.25 347.352 335.157 338.479 322.707 338.479Z" fill="#76BDC2"/>
<path d="M263.882 362.494L264.67 360.958C265.64 361.55 266.79 361.872 267.971 361.882C269.341 361.882 269.901 361.48 269.901 360.938C269.901 359.291 264.076 360.416 264.076 357.153C264.076 355.657 265.458 354.412 268.302 354.412C269.502 354.396 270.685 354.663 271.728 355.185L271.02 356.731C270.176 356.299 269.221 356.064 268.245 356.049C266.863 356.049 266.338 356.5 266.338 357.053C266.338 358.669 272.162 357.555 272.162 360.787C272.162 362.253 270.769 363.518 267.914 363.518C266.483 363.54 265.079 363.184 263.882 362.494Z" fill="white"/>
<path d="M275.725 356.219H272.516V354.563H281.241V356.219H278.043V363.368H275.759L275.725 356.219Z" fill="white"/>
<path d="M288.572 361.44H283.924L283.045 363.328H280.669L285.123 354.522H287.407L291.884 363.328H289.451L288.572 361.44ZM287.841 359.894L286.254 356.52L284.666 359.894H287.841Z" fill="white"/>
<path d="M299.318 363.368L297.377 360.908H295.253V363.368H292.969V354.563H297.308C299.981 354.563 301.648 355.778 301.648 357.755C301.675 358.349 301.491 358.935 301.123 359.433C300.755 359.931 300.22 360.317 299.592 360.537L301.876 363.368H299.318ZM297.137 356.219H295.253V359.292H297.137C298.553 359.292 299.273 358.709 299.273 357.755C299.273 356.802 298.553 356.219 297.137 356.219Z" fill="white"/>
<path d="M305.371 356.219H302.173V354.563H310.898V356.219H307.689V363.368H305.405L305.371 356.219Z" fill="white"/>
<path d="M462.715 460.585L476.214 464.752L476.065 476.157C469.602 477.764 468.699 480.635 468.699 480.635L482.209 480.364L493.96 459.35L484.665 454.009L467.283 447.322" fill="#76BDC2"/>
<g opacity="0.6">
<path opacity="0.6" d="M493.96 459.35L482.209 480.364L468.699 480.635L470.172 478.818L481.147 478.065L491.985 458.216L493.96 459.35Z" fill="#E86409"/>
</g>
<path d="M476.02 470.936C476.122 471.057 476.888 470.645 477.938 470.655C478.989 470.665 479.754 471.027 479.857 470.906C479.96 470.786 479.206 470.113 477.938 470.133C476.671 470.153 475.894 470.876 476.02 470.936Z" fill="#263238"/>
<path d="M476.214 468.105C476.351 468.185 476.933 467.473 478.007 467.262C479.08 467.051 479.948 467.473 480.028 467.352C480.108 467.232 479.914 467.101 479.537 466.92C479.019 466.704 478.434 466.647 477.875 466.758C477.316 466.869 476.815 467.142 476.454 467.533C476.145 467.864 476.1 468.065 476.214 468.105Z" fill="#263238"/>
<path d="M475.985 464.47C476.134 464.531 476.579 463.838 477.516 463.537C478.452 463.236 479.297 463.487 479.366 463.346C479.434 463.205 479.217 463.125 478.84 463.015C478.339 462.865 477.793 462.873 477.297 463.038C476.801 463.202 476.386 463.514 476.122 463.918C475.928 464.219 475.917 464.45 475.985 464.47Z" fill="#263238"/>
<path d="M474.992 464.46C475.163 464.46 475.06 463.677 475.46 462.874C475.86 462.071 476.522 461.609 476.442 461.479C476.362 461.348 475.391 461.679 474.912 462.673C474.432 463.667 474.843 464.531 474.992 464.46Z" fill="#263238"/>
<path d="M473.393 463.125C473.593 462.611 473.701 462.072 473.713 461.529C473.77 460.956 473.827 460.384 473.896 459.792C473.954 459.425 473.954 459.054 473.896 458.687C473.826 458.444 473.655 458.233 473.416 458.095C473.279 458.016 473.118 457.974 472.954 457.974C472.789 457.974 472.629 458.016 472.491 458.095C472.126 458.374 471.86 458.74 471.726 459.149C471.588 459.495 471.507 459.857 471.486 460.224C471.446 460.839 471.567 461.453 471.84 462.021C472.32 463.025 472.982 463.336 472.982 463.296C472.685 462.841 472.418 462.372 472.183 461.89C471.992 461.365 471.922 460.812 471.977 460.264C472.017 459.945 472.102 459.631 472.228 459.33C472.33 459.025 472.518 458.749 472.777 458.527C472.818 458.5 472.868 458.485 472.919 458.485C472.971 458.485 473.021 458.5 473.062 458.527C473.174 458.589 473.255 458.686 473.29 458.798C473.331 459.111 473.331 459.428 473.29 459.742C473.29 460.334 473.29 460.916 473.233 461.489C473.186 462.038 473.24 462.591 473.393 463.125Z" fill="#263238"/>
<path d="M473.176 463.647C473.233 463.647 472.833 463.095 471.794 462.794C471.092 462.607 470.34 462.623 469.65 462.84C468.959 463.057 468.366 463.463 467.957 463.999C467.927 464.075 467.917 464.155 467.926 464.235C467.936 464.315 467.966 464.392 468.014 464.46C468.099 464.575 468.223 464.663 468.368 464.711C468.574 464.776 468.789 464.814 469.008 464.822C469.387 464.855 469.77 464.855 470.15 464.822C470.764 464.774 471.366 464.638 471.931 464.42C472.902 464.049 473.347 463.617 473.302 463.577C473.256 463.537 472.731 463.818 471.794 464.079C471.247 464.233 470.678 464.321 470.104 464.34C469.773 464.365 469.441 464.365 469.11 464.34C468.955 464.33 468.802 464.303 468.654 464.26C468.539 464.199 468.574 464.209 468.574 464.179C468.636 464.07 468.726 463.974 468.836 463.898C468.959 463.793 469.093 463.699 469.236 463.617C469.501 463.454 469.794 463.328 470.104 463.246C470.633 463.104 471.194 463.08 471.737 463.175C472.229 463.302 472.71 463.46 473.176 463.647Z" fill="#263238"/>
<g opacity="0.6">
<path opacity="0.6" d="M483.18 459.21C483.185 459.394 483.23 459.576 483.315 459.745C483.399 459.914 483.521 460.067 483.673 460.195C483.824 460.322 484.003 460.423 484.199 460.49C484.394 460.557 484.603 460.589 484.813 460.585C485.023 460.581 485.23 460.541 485.422 460.466C485.615 460.392 485.788 460.285 485.934 460.152C486.079 460.019 486.193 459.862 486.269 459.689C486.345 459.517 486.382 459.334 486.378 459.149C486.373 458.965 486.327 458.783 486.243 458.614C486.158 458.445 486.037 458.292 485.885 458.164C485.734 458.036 485.555 457.936 485.359 457.869C485.163 457.802 484.955 457.77 484.745 457.774C484.535 457.778 484.328 457.818 484.135 457.892C483.943 457.967 483.769 458.073 483.624 458.207C483.479 458.34 483.365 458.497 483.289 458.669C483.212 458.841 483.176 459.025 483.18 459.21Z" fill="#E86409"/>
</g>
<path d="M393.465 455.816L393.647 471.358C393.647 471.358 375.729 476.749 375.444 479.621L409.704 480.394L410.549 456.157L393.465 455.816Z" fill="#76BDC2"/>
<g opacity="0.6">
<path opacity="0.6" d="M404.268 470.294C404.594 470.39 404.868 470.589 405.039 470.852C405.209 471.115 405.264 471.423 405.193 471.719C405.094 472.009 404.875 472.255 404.578 472.408C404.281 472.56 403.93 472.609 403.594 472.543C403.248 472.439 402.957 472.228 402.776 471.948C402.595 471.669 402.537 471.341 402.612 471.027C402.75 470.731 403.012 470.494 403.344 470.365C403.676 470.235 404.052 470.224 404.394 470.334" fill="#E86409"/>
</g>
<g opacity="0.6">
<path opacity="0.6" d="M409.749 480.394V477.944L376.871 478.125C376.871 478.125 375.318 478.667 375.467 479.621L409.749 480.394Z" fill="#E86409"/>
</g>
<path d="M393.088 471.197C393.088 471.338 393.933 471.428 394.744 471.92C395.555 472.412 395.966 473.045 396.126 472.984C396.285 472.924 396.057 472.071 395.063 471.499C394.07 470.926 393.065 471.057 393.088 471.197Z" fill="#263238"/>
<path d="M389.422 472.422C389.422 472.563 390.096 472.834 390.644 473.426C391.192 474.018 391.34 474.721 391.512 474.721C391.683 474.721 391.809 473.888 391.112 473.105C390.415 472.322 389.422 472.282 389.422 472.422Z" fill="#263238"/>
<path d="M387.298 476.157C387.458 476.157 387.709 475.464 387.298 474.651C386.887 473.838 386.156 473.496 386.042 473.647C385.927 473.798 386.441 474.209 386.773 474.882C387.104 475.555 387.138 476.147 387.298 476.157Z" fill="#263238"/>
<path d="M393.499 467.643C393.567 467.784 394.332 467.643 395.28 467.643C396.228 467.643 396.959 468.005 397.05 467.874C397.142 467.744 396.445 467.211 395.326 467.131C394.207 467.051 393.419 467.533 393.499 467.643Z" fill="#263238"/>
<g opacity="0.3">
<path opacity="0.3" d="M393.499 458.888L393.533 461.659L410.389 461.91L410.48 459.41L393.499 458.888Z" fill="black"/>
</g>
<path d="M393.521 464.511C394.086 464.649 394.682 464.649 395.246 464.511C395.866 464.429 396.472 464.281 397.05 464.069C397.396 463.942 397.732 463.794 398.055 463.627C398.252 463.541 398.43 463.426 398.581 463.286C398.694 463.184 398.766 463.051 398.785 462.91C398.803 462.768 398.768 462.624 398.683 462.502C398.602 462.4 398.495 462.314 398.37 462.254C398.245 462.193 398.106 462.158 397.964 462.151C397.745 462.147 397.526 462.168 397.313 462.211C396.945 462.281 396.586 462.382 396.239 462.513C395.654 462.728 395.111 463.023 394.629 463.386C393.807 464.019 393.487 464.561 393.579 464.591C393.67 464.621 394.058 464.189 394.88 463.677C395.359 463.376 395.881 463.133 396.434 462.954C396.756 462.847 397.089 462.763 397.427 462.703C397.793 462.633 398.101 462.633 398.192 462.784C398.284 462.934 398.192 462.854 398.192 462.944C398.081 463.047 397.949 463.132 397.804 463.195C397.496 463.366 397.187 463.506 396.89 463.637C396.348 463.852 395.787 464.026 395.212 464.159C394.638 464.236 394.073 464.353 393.521 464.511Z" fill="#263238"/>
<path d="M393.739 464.732C394.07 464.303 394.242 463.794 394.23 463.276C394.281 462.718 394.219 462.157 394.047 461.619C393.95 461.299 393.812 460.989 393.636 460.695C393.55 460.493 393.406 460.314 393.218 460.175C393.03 460.036 392.804 459.942 392.563 459.902C392.409 459.902 392.258 459.94 392.128 460.013C391.998 460.086 391.895 460.191 391.832 460.314C391.741 460.487 391.676 460.669 391.638 460.856C391.583 461.189 391.583 461.527 391.638 461.86C391.709 462.428 391.945 462.971 392.323 463.436C392.974 464.23 393.659 464.44 393.682 464.37C393.705 464.3 393.156 463.999 392.665 463.236C392.385 462.797 392.214 462.311 392.163 461.81C392.137 461.518 392.156 461.224 392.22 460.936C392.288 460.615 392.426 460.364 392.563 460.394C392.7 460.424 393.019 460.645 393.156 460.906C393.314 461.171 393.447 461.447 393.556 461.73C393.73 462.221 393.826 462.731 393.842 463.246C393.842 464.159 393.647 464.701 393.739 464.732Z" fill="#263238"/>
<path d="M473.199 447.895L433.697 434.983L475.22 429.853L477.31 412.072L399.665 418.025L388.702 431.911L391.58 449.32L467.237 466.228L473.199 447.895Z" fill="#263238"/>
<path d="M389.422 460.334L385.642 396.781C385.744 393.737 386.73 390.768 388.505 388.153C390.279 385.538 392.785 383.366 395.783 381.841C398.274 380.572 401.043 379.782 403.908 379.524C406.772 379.266 409.667 379.546 412.399 380.345L462.772 395.114L490.42 401.369C490.42 401.369 495.137 411.58 492.362 419.511C489.655 427.282 479.971 432.453 471.451 430.234C460.865 427.473 412.284 409.15 412.284 409.15V460.836L389.422 460.334Z" fill="#263238"/>
<path d="M470.744 430.395L470.447 430.314L469.579 430.023L466.279 428.858L454.162 424.511L414.249 410.033L412.216 409.291L412.547 409.1C412.547 423.487 412.49 436.409 412.468 445.776C412.468 450.424 412.468 454.189 412.399 456.82C412.399 458.095 412.399 459.099 412.399 459.832C412.399 460.153 412.399 460.414 412.399 460.605C412.417 460.695 412.417 460.786 412.399 460.876C412.389 460.786 412.389 460.695 412.399 460.605V459.832C412.399 459.119 412.399 458.115 412.399 456.82C412.399 454.189 412.399 450.424 412.331 445.776C412.331 436.409 412.331 423.487 412.262 409.1V408.799L412.582 408.909L414.615 409.652L454.47 424.24L466.347 428.708L469.613 429.943L470.458 430.274L470.744 430.395Z" fill="#455A64"/>
<path d="M424.218 430.475C427.872 431.037 431.205 432.66 433.686 435.083C433.583 435.174 431.79 433.708 429.118 432.433C426.445 431.158 424.173 430.596 424.218 430.475Z" fill="#455A64"/>
<path d="M407.922 400.506C409.007 401.838 409.904 403.281 410.594 404.803C411.419 406.27 412.048 407.816 412.467 409.411C412.342 409.411 411.416 407.403 410.183 404.973C408.95 402.544 407.808 400.596 407.922 400.506Z" fill="#455A64"/>
<path d="M408.036 372.504L399.129 371.038L389.776 379.432L391.5 384.783L402.406 381.249L408.036 372.504Z" fill="#FFBE9D"/>
<path d="M325.732 353.348L335.862 351.34L352.17 353.579L351.542 362.725C351.542 362.725 346.483 363.367 344.69 362.845C343.61 362.534 342.449 362.513 341.355 362.785C341.355 362.785 342.349 364.582 340.636 364.874C338.923 365.165 336.125 365.797 335.599 363.669C335.169 363.692 334.743 363.582 334.395 363.359C334.046 363.135 333.798 362.811 333.692 362.444C333.692 362.444 332.367 362.866 331.774 360.827C331.18 358.789 331.522 355.727 336.102 354.753C336.342 354.703 336.456 354.221 335.999 354.241L328.759 355.436C328.759 355.436 323.894 355.627 325.732 353.348Z" fill="#FFBE9D"/>
<path d="M334.355 359.723C334.915 359.571 335.494 359.48 336.079 359.452C336.715 359.368 337.355 359.317 337.998 359.301C338.215 359.305 338.429 359.348 338.626 359.43C338.823 359.511 338.998 359.628 339.14 359.773C339.281 359.951 339.362 360.16 339.374 360.377C339.387 360.594 339.329 360.809 339.208 360.998C338.97 361.299 338.663 361.553 338.307 361.745C337.952 361.937 337.555 362.062 337.141 362.112C336.526 362.266 335.9 362.387 335.268 362.474C334.688 362.574 334.09 362.574 333.51 362.474C334.069 362.34 334.638 362.236 335.211 362.163C335.737 362.062 336.353 361.922 337.027 361.731C337.37 361.656 337.706 361.559 338.032 361.44C338.36 361.302 338.634 361.082 338.82 360.807C338.905 360.685 338.95 360.544 338.95 360.401C338.95 360.257 338.905 360.117 338.82 359.994C338.606 359.785 338.306 359.658 337.986 359.643C337.335 359.643 336.662 359.703 336.125 359.713C335.538 359.782 334.943 359.785 334.355 359.723Z" fill="#EB996E"/>
<path d="M336.091 357.755C336.091 357.866 335.588 358.097 335.2 358.629C334.812 359.161 334.754 359.683 334.629 359.693C334.503 359.703 334.343 359.051 334.834 358.408C335.325 357.765 336.091 357.655 336.091 357.755Z" fill="#EB996E"/>
<path d="M338.877 361.018C338.877 361.018 338.98 361.018 339.139 361.018C339.299 361.018 339.482 361.309 339.619 361.5C339.727 361.647 339.798 361.813 339.828 361.986C339.857 362.159 339.844 362.336 339.79 362.504C339.709 362.705 339.57 362.883 339.385 363.02C339.201 363.158 338.978 363.25 338.74 363.287C338.012 363.487 337.267 363.634 336.513 363.729C335.93 363.779 335.565 363.729 335.565 363.679C335.565 363.629 335.919 363.579 336.467 363.458C337.015 363.338 337.769 363.127 338.614 362.926C338.787 362.902 338.95 362.841 339.09 362.748C339.229 362.655 339.34 362.534 339.414 362.394C339.525 362.152 339.525 361.882 339.414 361.641C339.276 361.39 339.231 361.229 339.117 361.149C339.002 361.069 338.854 361.038 338.877 361.018Z" fill="#EB996E"/>
<path d="M339.551 362.575C339.551 362.575 339.665 362.394 339.985 362.354C340.387 362.33 340.788 362.422 341.127 362.615C341.3 362.722 341.443 362.863 341.544 363.026C341.645 363.19 341.702 363.372 341.709 363.558C341.709 363.82 341.709 363.98 341.606 363.98C341.504 363.98 341.492 363.83 341.401 363.609C341.321 363.345 341.144 363.112 340.898 362.946C340.624 362.789 340.318 362.679 339.996 362.625C339.745 362.585 339.585 362.625 339.551 362.575Z" fill="#EB996E"/>
<path d="M344.599 355.466L340.031 357.062L335.748 359.733C335.748 359.733 335.748 360.657 338.181 360.315C339.711 360.09 341.172 359.591 342.474 358.85C342.474 358.85 345.661 360.617 348.481 360.205" fill="#FFBE9D"/>
<path d="M348.436 360.205C348.436 360.205 348.287 360.255 347.99 360.305C347.558 360.348 347.121 360.348 346.688 360.305C345.144 360.138 343.658 359.687 342.326 358.98H342.532C340.935 359.928 339.076 360.476 337.153 360.566C336.827 360.576 336.503 360.535 336.193 360.446C336.009 360.398 335.844 360.304 335.719 360.176C335.593 360.048 335.512 359.891 335.485 359.723V359.633L335.577 359.572L339.916 356.922C341.321 356.45 342.474 356.068 343.285 355.817C343.697 355.663 344.126 355.545 344.564 355.466C344.18 355.673 343.775 355.848 343.354 355.988C342.566 356.289 341.435 356.711 340.042 357.213L335.748 359.914L335.839 359.753C335.839 359.874 336.034 360.044 336.262 360.115C336.523 360.191 336.798 360.225 337.073 360.215C338.911 360.124 340.691 359.611 342.235 358.729L342.349 358.669H342.452C343.73 359.37 345.148 359.851 346.631 360.085C347.229 360.162 347.832 360.203 348.436 360.205Z" fill="#EB996E"/>
<path d="M337.952 355.265C337.952 355.376 337.415 355.366 336.89 355.085C336.364 354.803 336.102 354.392 336.193 354.332C336.285 354.271 336.65 354.512 337.107 354.753C337.564 354.994 338.032 355.165 337.952 355.265Z" fill="#EB996E"/>
<path d="M351.291 365.145L389.959 370.084C393.8 371.151 397.964 370.845 401.55 369.231L435.993 353.699L425.715 333.709C424.385 334.11 423.087 334.589 421.832 335.145L393.499 353.097L352.387 351.832L351.291 365.145Z" fill="#76BDC2"/>
<path d="M489.678 401.218L487.211 397.413L460.854 391.61L463.96 396.329L489.678 401.218Z" fill="#FFBE9D"/>
<path d="M425.68 333.709C425.68 334.513 421.809 359.673 421.809 364.833C421.809 369.994 433.001 375.546 433.001 375.546L445.254 398.427H488.913L473.987 373.789L467.238 354.05C464.68 346.581 464.954 342.715 458.616 337.243L446.408 330.015L425.68 333.709Z" fill="#76BDC2"/>
<path d="M438.356 353.569L445.688 380.616L408.71 371.48L402.406 381.279L450.519 400.536C453.395 401.686 456.639 401.914 459.687 401.18C462.735 400.447 465.394 398.798 467.203 396.52C468.322 395.114 469.081 393.512 469.43 391.824C469.779 390.137 469.709 388.402 469.225 386.741L458.456 349.743C458.107 348.537 457.478 347.407 456.609 346.424C455.74 345.441 454.65 344.627 453.406 344.032C452.162 343.437 450.792 343.075 449.381 342.968C447.971 342.86 446.55 343.01 445.208 343.408C442.87 344.097 440.891 345.502 439.633 347.368C438.375 349.233 437.922 351.434 438.356 353.569Z" fill="#76BDC2"/>
<path d="M433.686 376.801C433.367 376.287 432.984 375.805 432.544 375.365C432.27 375.245 431.881 375.064 431.402 374.813C429.988 374.113 428.633 373.324 427.347 372.454C425.377 371.192 423.747 369.563 422.574 367.685C421.432 365.436 421.432 362.665 421.9 359.954C422.368 357.243 423.042 354.673 423.362 352.313C423.682 349.954 424.059 347.836 424.207 346.049C424.355 344.261 424.39 342.806 424.39 341.802C424.39 340.798 424.39 340.235 424.39 340.235C424.436 340.366 424.463 340.501 424.47 340.637C424.47 340.898 424.538 341.29 424.572 341.792C424.657 343.216 424.657 344.644 424.572 346.069C424.47 347.866 424.218 350.014 423.83 352.374C423.442 354.733 422.848 357.303 422.403 360.014C421.957 362.725 421.9 365.386 422.996 367.524C424.122 369.358 425.679 370.96 427.564 372.223C428.825 373.106 430.14 373.928 431.504 374.683C432.366 375.272 433.104 375.989 433.686 376.801Z" fill="#263238"/>
<path d="M448.395 331.802C448.204 332.048 447.977 332.27 447.721 332.464C447.276 332.866 446.579 333.468 445.768 334.121C444.089 335.496 441.703 337.344 438.916 339.272C436.13 341.199 433.617 342.846 431.721 343.99C430.774 344.563 429.997 344.994 429.437 345.306C429.165 345.48 428.87 345.625 428.558 345.737C428.795 345.528 429.055 345.339 429.335 345.175L431.516 343.749C433.355 342.555 435.89 340.878 438.619 338.95C441.349 337.023 443.758 335.225 445.471 333.93L447.527 332.364C447.79 332.147 448.081 331.958 448.395 331.802Z" fill="#263238"/>
<path d="M438.357 353.569C438.436 353.737 438.498 353.912 438.539 354.091C438.654 354.465 438.802 354.967 438.985 355.597C439.373 356.952 439.91 358.86 440.583 361.239C441.92 366.078 443.781 372.825 445.905 380.566L445.997 380.897L445.631 380.807L436.244 378.508L408.71 371.631L408.904 371.56L404.234 378.689L402.932 380.616L402.589 381.108C402.509 381.229 402.464 381.279 402.452 381.279C402.474 381.213 402.505 381.149 402.543 381.088L402.852 380.576L404.062 378.568L408.63 371.37L408.699 371.269H408.824L436.392 378.036L445.825 380.385L445.54 380.616C443.473 372.865 441.668 366.109 440.366 361.259C439.75 358.87 439.224 356.942 438.905 355.587C438.745 354.944 438.619 354.442 438.528 354.061C438.457 353.901 438.399 353.736 438.357 353.569Z" fill="#263238"/>
<path d="M458.616 351.882C458.7 352.031 458.761 352.19 458.798 352.354C458.913 352.705 459.05 353.147 459.232 353.699L460.717 358.719C461.939 362.976 463.618 368.759 465.456 375.195C466.358 378.418 467.249 381.48 468.003 384.291C468.753 386.777 468.989 389.362 468.7 391.921C468.467 393.653 467.761 395.31 466.644 396.751C466.243 397.281 465.74 397.746 465.159 398.126C465.637 397.664 466.08 397.174 466.484 396.66C467.532 395.219 468.181 393.582 468.38 391.881C468.61 389.356 468.34 386.815 467.58 384.371C466.781 381.58 465.913 378.518 465 375.335L460.432 358.829L459.084 353.809L458.741 352.444C458.681 352.26 458.639 352.072 458.616 351.882Z" fill="#263238"/>
<g opacity="0.3">
<path opacity="0.3" d="M465.33 398.407C470.743 398.839 473.884 396.128 474.466 392.383C474.594 390.32 474.18 388.259 473.256 386.359C469.933 377.805 466.575 369.181 461.311 361.41C463.298 369.181 465.879 376.641 467.831 384.412C468.462 386.571 468.743 388.799 468.665 391.028C468.541 393.747 467.365 396.347 465.33 398.397" fill="black"/>
</g>
<path d="M420.941 359.432C420.11 358.812 419.373 358.1 418.749 357.314C417.154 355.483 415.795 353.503 414.694 351.41C413.592 349.313 412.76 347.114 412.216 344.854C411.943 343.926 411.805 342.971 411.805 342.013C412.136 342.916 412.41 343.834 412.627 344.764C413.282 346.968 414.153 349.118 415.231 351.189C416.316 353.254 417.608 355.229 419.091 357.093C420.256 358.569 421.01 359.432 420.941 359.432Z" fill="#FAFAFA"/>
<path d="M410.343 364.984C409.68 364.313 409.098 363.583 408.607 362.805C407.602 361.42 406.323 359.472 404.93 357.273C403.537 355.075 402.418 353.047 401.641 351.561C401.163 350.778 400.78 349.954 400.499 349.101C401.075 349.824 401.573 350.594 401.984 351.4L405.41 357.022C406.723 359.131 407.922 361.038 408.916 362.615C409.47 363.366 409.947 364.159 410.343 364.984Z" fill="#FAFAFA"/>
<path d="M395.76 369.984C394.975 367.342 394.38 364.66 393.978 361.952C393.385 359.269 392.984 356.557 392.779 353.83C393.565 356.471 394.16 359.154 394.561 361.862C395.161 364.543 395.561 367.256 395.76 369.984Z" fill="#FAFAFA"/>
<path d="M382.787 369.211C382.579 368.462 382.48 367.693 382.49 366.922C382.387 365.496 382.33 363.528 382.387 361.35C382.444 359.171 382.615 357.213 382.787 355.797C382.82 355.025 382.962 354.26 383.209 353.518C383.303 354.282 383.303 355.053 383.209 355.817C383.141 357.243 383.049 359.201 382.981 361.36C382.912 363.518 382.912 365.486 382.912 366.912C382.97 367.68 382.928 368.451 382.787 369.211Z" fill="#FAFAFA"/>
<path d="M369.802 352.605C370.005 353.301 370.113 354.015 370.122 354.733C370.236 356.059 370.305 357.896 370.27 359.924C370.236 361.952 370.076 363.789 369.905 365.105C369.877 365.827 369.738 366.543 369.494 367.233C369.323 367.233 369.597 363.95 369.665 359.914C369.734 355.878 369.62 352.615 369.802 352.605Z" fill="#FAFAFA"/>
<path d="M359.136 353.81C359.219 355.856 359.108 357.904 358.805 359.934C358.7 361.979 358.39 364.011 357.88 366.008C357.902 361.918 358.322 357.837 359.136 353.81Z" fill="#FAFAFA"/>
<path d="M423.419 344.523C423.248 344.523 422.562 342.896 421.398 340.989C420.233 339.081 419.114 337.635 419.205 337.545C421.392 339.435 422.863 341.871 423.419 344.523Z" fill="#FAFAFA"/>
<path d="M443.518 371.841C443.231 371.921 442.928 371.951 442.628 371.932C441.809 371.962 440.989 371.945 440.172 371.882C437.472 371.699 434.814 371.179 432.281 370.335C429.741 369.506 427.346 368.367 425.166 366.952C424.507 366.524 423.878 366.061 423.282 365.566C422.86 365.215 422.643 365.014 422.677 364.984C422.711 364.954 423.716 365.647 425.406 366.651C429.85 369.279 434.936 370.948 440.252 371.52C442.239 371.741 443.518 371.751 443.518 371.841Z" fill="#FAFAFA"/>
<path d="M439.35 359.02C438.549 359.051 437.748 358.973 436.975 358.789C435.079 358.475 433.213 358.038 431.39 357.484C429.563 356.937 427.788 356.266 426.08 355.476C425.342 355.195 424.654 354.823 424.036 354.372C424.127 354.231 427.347 355.707 431.584 356.982C435.821 358.257 439.384 358.87 439.35 359.02Z" fill="#FAFAFA"/>
<path d="M436.929 349.804C434.865 349.918 432.798 349.626 430.878 348.951C428.958 348.275 427.233 347.232 425.829 345.898C429.097 347.999 432.914 349.343 436.929 349.804Z" fill="#FAFAFA"/>
<path d="M454.025 343.238C453.967 343.318 453.077 342.786 451.455 342.384C449.342 341.868 447.1 341.942 445.037 342.595C442.987 343.284 441.236 344.524 440.035 346.139C439.099 347.374 438.824 348.288 438.722 348.258C438.821 347.429 439.146 346.633 439.67 345.938C440.831 344.173 442.654 342.818 444.828 342.106C447.001 341.393 449.388 341.367 451.581 342.033C452.492 342.258 453.33 342.671 454.025 343.238Z" fill="#FAFAFA"/>
<path d="M456.046 355.567C455.465 355.992 454.81 356.331 454.105 356.571C450.806 357.829 447.239 358.452 443.644 358.398C442.9 358.437 442.155 358.362 441.44 358.177C441.44 358.016 444.866 358.177 448.863 357.464C452.86 356.751 455.966 355.416 456.046 355.567Z" fill="#FAFAFA"/>
<path d="M461.893 371.038C459.259 371.527 456.587 371.846 453.899 371.992C451.22 372.307 448.517 372.451 445.814 372.424C448.448 371.931 451.12 371.612 453.808 371.47C456.488 371.155 459.19 371.01 461.893 371.038Z" fill="#FAFAFA"/>
<path d="M467.078 392.474C466.765 392.464 466.457 392.41 466.164 392.313C465.354 392.116 464.557 391.878 463.778 391.6C461.194 390.687 458.725 389.539 456.412 388.176C454.11 386.817 451.892 385.353 449.765 383.789C448.843 383.191 447.987 382.519 447.207 381.781C448.175 382.295 449.091 382.879 449.948 383.528C451.649 384.642 453.991 386.199 456.674 387.765C458.964 389.103 461.37 390.281 463.869 391.289C465.822 392.022 467.078 392.393 467.078 392.474Z" fill="#FAFAFA"/>
<path d="M439.362 395.737C439.17 394.989 439.109 394.221 439.179 393.458C439.268 389.761 440.274 386.125 442.125 382.805C442.458 382.099 442.913 381.442 443.473 380.857C442.326 383.218 441.357 385.643 440.572 388.116C439.984 390.631 439.58 393.176 439.362 395.737Z" fill="#FAFAFA"/>
<path d="M425.44 389.18C424.998 384.968 426.463 380.772 429.517 377.504C428.446 379.331 427.515 381.22 426.731 383.156C426.142 385.136 425.711 387.148 425.44 389.18Z" fill="#FAFAFA"/>
<path d="M417.675 373.156C416.069 374.835 414.647 376.644 413.427 378.558C412.385 380.552 411.562 382.63 410.972 384.763C410.893 384.09 410.951 383.41 411.143 382.755C411.485 381.195 412.073 379.684 412.89 378.267C413.708 376.85 414.75 375.542 415.985 374.381C416.466 373.893 417.038 373.479 417.675 373.156Z" fill="#FAFAFA"/>
<path d="M468.973 359.131C468.118 360.07 467 360.797 465.729 361.24C464.457 361.684 463.076 361.829 461.722 361.661C461.722 361.5 463.503 361.46 465.502 360.747C467.5 360.034 468.848 359.02 468.973 359.131Z" fill="#FAFAFA"/>
<path d="M463.743 345.045C463.35 346.053 462.602 346.925 461.607 347.534C460.732 348.277 459.606 348.749 458.398 348.88C458.398 348.739 459.769 348.187 461.231 347.123C462.692 346.059 463.652 344.954 463.743 345.045Z" fill="#FAFAFA"/>
<path d="M445.095 335.667C446.107 336.195 446.906 336.988 447.379 337.936C448.024 338.807 448.355 339.829 448.326 340.868C448.155 340.868 447.744 339.613 446.853 338.187C445.962 336.762 444.98 335.768 445.095 335.667Z" fill="#FAFAFA"/>
<path d="M472.788 372.394C471.793 373.177 470.572 373.705 469.259 373.92C467.996 374.294 466.64 374.353 465.342 374.09C465.342 373.94 467.078 373.88 469.11 373.408C471.143 372.936 472.719 372.263 472.788 372.394Z" fill="#FAFAFA"/>
<path d="M480.782 384.753C476.664 385.409 472.484 385.718 468.3 385.677C470.34 385.264 472.42 385.022 474.512 384.954C476.59 384.706 478.69 384.638 480.782 384.753Z" fill="#FAFAFA"/>
<path d="M486.332 394.692C480.203 394.907 474.066 394.772 467.957 394.291C474.085 394.076 480.223 394.211 486.332 394.692Z" fill="#FAFAFA"/>
<path d="M445.917 295.055C446.682 298.459 452.243 299.814 452.769 303.248C452.997 304.714 452.198 306.18 452.266 307.666C452.335 309.674 453.922 311.35 454.722 313.218C456.389 317.073 454.516 321.641 450.987 324.362C447.458 327.083 442.639 328.187 437.957 328.268" fill="#263238"/>
<path d="M414.42 298.57C414.911 300.387 413.826 302.214 412.684 303.79C411.542 305.367 410.252 307.013 410.275 308.871C410.275 312.184 414.454 314.684 414.295 317.987C414.203 319.754 412.856 321.35 412.878 323.127C412.976 323.982 413.28 324.809 413.77 325.551C414.261 326.294 414.926 326.936 415.722 327.435C417.207 328.539 418.646 328.147 420.016 329.372C421.596 330.739 423.482 331.803 425.555 332.495C429.929 333.87 434.268 330.386 436.13 329.613" fill="#263238"/>
<path d="M447.059 296.913C446.807 295.236 444.775 294.192 442.947 293.831C441.12 293.469 439.076 293.509 437.329 292.827C435.878 292.055 434.516 291.161 433.263 290.156C431.576 289.06 429.587 288.378 427.5 288.181C425.414 287.984 423.306 288.279 421.392 289.035C419.478 289.792 417.828 290.982 416.61 292.485C415.393 293.988 414.653 295.748 414.466 297.586C414.215 300.055 415.185 302.796 417.595 304.081C420.393 305.567 423.99 304.654 427.051 303.64C430.111 302.626 433.594 301.571 436.529 302.836C438.208 303.758 439.645 304.983 440.743 306.431C441.977 307.776 443.473 309.121 445.414 309.443C447.355 309.764 449.685 308.439 449.457 306.712" fill="#263238"/>
<path d="M447.721 332.465L443.153 299.945C443.043 299.244 442.638 298.605 442.019 298.154C441.4 297.702 440.611 297.471 439.807 297.505L422.312 296.07C416.83 296.311 414.318 302.636 414.774 307.445C415.334 312.776 416.248 319.282 417.664 323.127C420.496 330.858 427.588 330.918 427.588 330.918C427.588 330.918 428.867 342.364 429.392 345.175" fill="#FFBE9D"/>
<path d="M417.127 313.378C417.145 313.512 417.193 313.64 417.269 313.757C417.345 313.874 417.446 313.976 417.568 314.057C417.689 314.138 417.828 314.198 417.976 314.231C418.124 314.265 418.277 314.272 418.429 314.252C418.728 314.226 419.003 314.098 419.196 313.895C419.388 313.692 419.482 313.431 419.456 313.168C419.438 313.034 419.39 312.906 419.314 312.789C419.238 312.673 419.137 312.571 419.015 312.489C418.894 312.408 418.755 312.348 418.607 312.315C418.459 312.281 418.305 312.274 418.154 312.294C417.855 312.32 417.58 312.448 417.387 312.651C417.195 312.854 417.101 313.115 417.127 313.378Z" fill="#263238"/>
<path d="M416.83 311.37C417.001 311.491 417.778 310.798 419.023 310.628C420.267 310.457 421.307 310.889 421.387 310.728C421.466 310.567 421.249 310.447 420.816 310.246C420.217 309.989 419.543 309.901 418.886 309.995C418.236 310.082 417.636 310.349 417.173 310.758C416.83 311.069 416.716 311.32 416.83 311.37Z" fill="#263238"/>
<path d="M429.678 311.762C429.696 311.894 429.744 312.022 429.819 312.138C429.894 312.254 429.994 312.355 430.115 312.436C430.235 312.518 430.372 312.577 430.518 312.611C430.665 312.646 430.818 312.654 430.968 312.635C431.265 312.61 431.539 312.483 431.731 312.282C431.923 312.082 432.018 311.823 431.996 311.561C431.977 311.429 431.929 311.301 431.854 311.185C431.779 311.07 431.679 310.968 431.559 310.887C431.439 310.805 431.301 310.746 431.155 310.712C431.008 310.678 430.855 310.669 430.705 310.688C430.408 310.713 430.134 310.84 429.942 311.041C429.75 311.241 429.655 311.5 429.678 311.762Z" fill="#263238"/>
<path d="M429.072 309.905C429.243 310.015 430.02 309.322 431.265 309.162C432.509 309.001 433.549 309.413 433.629 309.262C433.709 309.111 433.492 308.971 433.046 308.77C432.451 308.516 431.78 308.432 431.128 308.529C430.481 308.617 429.883 308.88 429.415 309.282C429.083 309.593 428.992 309.854 429.072 309.905Z" fill="#263238"/>
<path d="M425.966 318.639C425.275 318.566 424.578 318.566 423.887 318.639C423.567 318.639 423.259 318.639 423.168 318.449C423.086 318.165 423.11 317.866 423.236 317.595C423.408 316.882 423.602 316.129 423.796 315.336C424.352 313.415 424.734 311.457 424.938 309.483C424.207 311.362 423.65 313.289 423.271 315.246C423.088 316.042 422.917 316.795 422.757 317.505C422.608 317.868 422.608 318.266 422.757 318.629C422.82 318.722 422.906 318.801 423.009 318.86C423.112 318.919 423.229 318.957 423.35 318.971C423.537 318.986 423.724 318.986 423.91 318.971C424.609 318.94 425.3 318.828 425.966 318.639Z" fill="#263238"/>
<path d="M427.542 330.918C431.771 330.474 435.762 328.961 439.03 326.561C438.072 328.482 436.5 330.117 434.505 331.268C432.511 332.419 430.179 333.037 427.793 333.047L427.542 330.918Z" fill="#EB996E"/>
<path d="M426.982 321.21C427.175 320.916 427.448 320.67 427.778 320.495C428.107 320.319 428.482 320.22 428.867 320.206C429.145 320.191 429.423 320.225 429.686 320.306C429.949 320.387 430.191 320.513 430.397 320.677C430.596 320.838 430.734 321.048 430.793 321.28C430.852 321.511 430.83 321.753 430.728 321.973C430.564 322.197 430.327 322.372 430.048 322.476C429.769 322.58 429.461 322.607 429.164 322.555C428.54 322.456 427.946 322.248 427.416 321.943C427.266 321.87 427.127 321.778 427.005 321.671C426.951 321.615 426.916 321.547 426.904 321.474C426.891 321.401 426.903 321.327 426.937 321.26" fill="#EB996E"/>
<path d="M429.791 318.9C429.586 318.9 429.791 320.105 428.786 321.099C427.781 322.093 426.32 322.173 426.331 322.334C426.343 322.495 426.697 322.525 427.313 322.455C428.112 322.344 428.84 321.988 429.369 321.451C429.876 320.944 430.145 320.288 430.123 319.613C430.088 319.151 429.883 318.88 429.791 318.9Z" fill="#263238"/>
<path d="M427.953 306.923C428.136 307.204 429.357 306.923 430.842 306.842C432.327 306.762 433.571 306.983 433.72 306.692C433.868 306.401 433.526 306.3 433 306.079C432.303 305.812 431.545 305.688 430.785 305.718C430.025 305.747 429.283 305.929 428.615 306.25C428.113 306.511 427.884 306.782 427.953 306.923Z" fill="#263238"/>
<path d="M416.693 308.148C416.955 308.358 417.766 307.987 418.794 307.836C419.822 307.686 420.735 307.736 420.884 307.455C421.032 307.174 420.77 307.083 420.347 306.903C419.788 306.682 419.165 306.623 418.566 306.732C417.96 306.821 417.401 307.073 416.967 307.455C416.647 307.766 416.579 308.037 416.693 308.148Z" fill="#263238"/>
<path d="M448.223 324.292C445.825 325.075 445.403 324.001 443.278 322.736C442.22 322.097 441.345 321.25 440.724 320.262C440.104 319.273 439.754 318.171 439.704 317.043C439.635 315.035 440.469 312.907 439.373 311.17C437.911 308.881 433.891 308.67 432.429 306.381C431.573 305.045 431.813 303.319 430.888 302.033C430.382 301.47 429.752 301.001 429.036 300.656C428.32 300.311 427.532 300.097 426.719 300.025C425.09 299.885 423.494 299.523 421.991 298.951C420.564 298.258 419.479 296.722 420.084 295.387C426.948 295.165 433.818 295.66 440.549 296.863C442.141 297.015 443.638 297.602 444.832 298.539C445.834 299.74 446.381 301.187 446.396 302.676C447.302 309.845 448.2 317.016 449.091 324.192" fill="#263238"/>
<path d="M450.987 307.324C450.897 305.988 451.305 304.661 452.149 303.546C452.993 302.431 454.227 301.589 455.664 301.145C457.102 300.701 458.664 300.682 460.116 301.088C461.567 301.495 462.828 302.306 463.709 303.399C464.459 304.48 464.933 305.693 465.097 306.952C465.26 308.21 465.11 309.485 464.657 310.688C463.755 313.589 461.356 316.451 457.953 316.782C454.767 317.093 451.775 315.005 450.382 312.455C448.988 309.905 448.84 306.993 448.714 304.172" fill="#263238"/>
<path d="M454.71 317.947C454.878 317.794 455.011 317.613 455.098 317.415C455.363 316.887 455.496 316.315 455.487 315.738C455.468 314.884 455.287 314.039 454.95 313.238C454.607 312.334 454.07 311.411 453.625 310.407C453.164 309.488 452.916 308.499 452.894 307.495C452.894 306.591 453.26 305.778 453.351 305.045C453.45 304.47 453.363 303.882 453.1 303.349C452.883 302.977 452.654 302.837 452.643 302.857C452.632 302.877 452.791 303.037 452.951 303.399C453.145 303.92 453.185 304.477 453.066 305.015C452.828 305.828 452.649 306.653 452.529 307.485C452.53 308.522 452.775 309.547 453.248 310.497C453.705 311.501 454.253 312.435 454.607 313.308C454.941 314.074 455.142 314.879 455.201 315.698C455.233 316.47 455.065 317.239 454.71 317.947Z" fill="#455A64"/>
<path d="M453.134 308.399C453.565 308.839 454.109 309.183 454.721 309.403C456.165 310.032 457.791 310.264 459.386 310.067C460.982 309.87 462.473 309.253 463.663 308.298C464.181 307.937 464.599 307.477 464.885 306.953C464.828 306.953 464.405 307.455 463.48 308.107C462.286 308.958 460.855 309.513 459.335 309.714C457.811 309.893 456.26 309.705 454.847 309.172C453.75 308.77 453.168 308.348 453.134 308.399Z" fill="#455A64"/>
<path d="M453.796 309.583C454.042 310.014 454.38 310.399 454.79 310.718C455.725 311.547 456.844 312.196 458.079 312.626C459.303 313.067 460.616 313.285 461.939 313.268C462.486 313.295 463.034 313.223 463.549 313.057C463.017 313.029 462.483 313.029 461.95 313.057C459.374 312.956 456.915 312.081 454.984 310.577C454.612 310.225 454.215 309.893 453.796 309.583Z" fill="#455A64"/>
<path d="M453.488 320.828C453.488 320.828 453.488 320.828 453.58 320.718C453.648 320.604 453.709 320.487 453.762 320.366C453.981 319.901 454.101 319.404 454.116 318.9C454.143 318.098 453.947 317.302 453.545 316.581C453.021 315.605 452.118 314.826 450.999 314.382C449.655 314 448.392 313.423 447.264 312.676C446.993 312.442 446.78 312.162 446.639 311.853C446.497 311.544 446.43 311.212 446.442 310.879C446.488 310.145 446.626 309.417 446.853 308.71C447.072 307.907 447.098 307.073 446.931 306.261C446.764 305.449 446.407 304.676 445.882 303.991C445.329 303.261 444.58 302.661 443.701 302.244C442.775 301.858 441.768 301.646 440.743 301.622C439.739 301.561 438.745 301.622 437.797 301.471C436.867 301.391 435.972 301.112 435.193 300.658C434.489 300.171 433.993 299.487 433.789 298.72C433.566 297.954 433.283 297.203 432.944 296.471C432.287 295.103 431.212 293.921 429.837 293.058C428.624 292.316 427.181 291.92 425.703 291.923C424.476 291.906 423.274 292.237 422.277 292.867C421.534 293.335 420.938 293.96 420.541 294.684C420.29 295.138 420.131 295.627 420.073 296.13C420.046 296.303 420.046 296.479 420.073 296.652C420.123 295.987 420.325 295.338 420.667 294.744C421.147 293.949 421.869 293.287 422.752 292.831C423.635 292.375 424.645 292.144 425.669 292.164C427.083 292.181 428.458 292.576 429.609 293.298C430.925 294.139 431.952 295.282 432.578 296.602C432.896 297.327 433.167 298.068 433.389 298.82C433.617 299.656 434.161 300.399 434.931 300.929C435.757 301.425 436.711 301.732 437.706 301.822C438.699 301.943 439.693 301.913 440.686 301.973C441.652 301.996 442.602 302.197 443.473 302.565C444.301 302.945 445.007 303.501 445.528 304.182C446.024 304.831 446.361 305.562 446.521 306.331C446.68 307.1 446.657 307.889 446.453 308.65C446.229 309.378 446.095 310.125 446.054 310.879C446.041 311.252 446.118 311.624 446.28 311.97C446.441 312.316 446.683 312.628 446.99 312.887C448.153 313.658 449.459 314.246 450.85 314.623C451.912 315.018 452.781 315.729 453.305 316.631C453.708 317.325 453.92 318.092 453.922 318.87C453.925 319.542 453.778 320.207 453.488 320.828Z" fill="#455A64"/>
<path d="M448.908 298.78C448.942 298.655 448.942 298.524 448.908 298.399C448.875 298.027 448.707 297.676 448.429 297.395C447.983 296.943 447.381 296.633 446.716 296.511C445.835 296.387 444.932 296.485 444.112 296.792C443.198 297.083 442.273 297.545 441.234 297.877C440.711 298.088 440.142 298.197 439.567 298.197C438.991 298.197 438.423 298.088 437.9 297.877C436.835 297.22 435.987 296.326 435.444 295.286C434.751 294.161 433.852 293.144 432.783 292.274C430.715 290.588 428.068 289.553 425.258 289.333C424.025 289.26 422.791 289.463 421.672 289.925C420.696 290.334 419.872 290.978 419.296 291.782C418.828 292.457 418.612 293.243 418.68 294.031C418.724 294.619 418.932 295.188 419.285 295.688C419.501 296.004 419.784 296.28 420.119 296.501C420.238 296.574 420.364 296.638 420.496 296.692C420.068 296.389 419.702 296.026 419.411 295.618C419.103 295.123 418.927 294.574 418.897 294.011C418.861 293.271 419.084 292.538 419.536 291.913C420.097 291.16 420.889 290.561 421.82 290.186C422.892 289.756 424.072 289.576 425.246 289.664C427.965 289.89 430.522 290.9 432.521 292.535C433.558 293.371 434.437 294.347 435.125 295.427C435.698 296.516 436.598 297.446 437.728 298.118C438.306 298.387 438.96 298.506 439.613 298.459C440.212 298.418 440.8 298.3 441.36 298.108C442.445 297.746 443.347 297.274 444.226 296.973C444.995 296.669 445.845 296.558 446.682 296.652C447.308 296.752 447.88 297.026 448.315 297.435C448.598 297.689 448.782 298.016 448.84 298.369C448.92 298.64 448.886 298.78 448.908 298.78Z" fill="#455A64"/>
</svg>
