<svg width="570" height="502" xmlns="http://www.w3.org/2000/svg" fill="none">
 <g>
  <title>Layer 1</title>
  <rect width="598.74182" height="543" fill="#EA823A" id="svg_1" y="-16.77416" x="-12.90317" stroke="null"/>
  <path d="m513.14084,428.98584l-37.823,0l0,0.271l37.823,0l0,-0.271z" fill="#8CD0D4" id="svg_2"/>
  <path d="m377.60784,431.93984l-9.924,0l0,0.27l9.924,0l0,-0.27z" fill="#8CD0D4" id="svg_3"/>
  <path d="m474.17584,418.90784l-21.915,0l0,0.27l21.915,0l0,-0.27z" fill="#8CD0D4" id="svg_4"/>
  <path d="m108.58684,420.73184l-49.3226,0l0,0.272l49.3226,0l0,-0.272z" fill="#8CD0D4" id="svg_5"/>
  <path d="m125.99084,420.73184l-7.229,0l0,0.272l7.229,0l0,-0.272z" fill="#8CD0D4" id="svg_6"/>
  <path d="m256.47584,425.31484l-106.982,0l0,0.271l106.982,0l0,-0.271z" fill="#8CD0D4" id="svg_7"/>
  <path d="m42.49064,62.09794l-0.0001,0l0,0.0046l0,294.7733c0,1.785 0.7462,3.492 2.0654,4.747c1.3184,1.254 3.1013,1.954 4.9555,1.954l220.4974,0c1.854,0 3.637,-0.7 4.955,-1.954c1.32,-1.255 2.066,-2.962 2.066,-4.747l0,-294.719c0,-1.7855 -0.746,-3.4926 -2.066,-4.7471c-1.318,-1.2537 -3.101,-1.9539 -4.955,-1.9539l-220.4974,0c0,0 0,0 0,0c-1.8436,-0.0001 -3.6173,0.6921 -4.9338,1.9332c-1.3174,1.2418 -2.0707,2.9336 -2.087,4.7089zm2.9596,-3.8227c1.0734,-1.0207 2.5334,-1.5995 4.0616,-1.6022l220.497,0c1.528,0.0027 2.988,0.5815 4.061,1.6022c1.073,1.02 1.671,2.3972 1.674,3.8283l0,294.7713c-0.003,1.431 -0.601,2.808 -1.674,3.828c-1.073,1.021 -2.534,1.6 -4.062,1.602l-220.4956,0c-1.5283,-0.002 -2.9885,-0.581 -4.062,-1.602c-1.0725,-1.02 -1.6713,-2.397 -1.6742,-3.828l0,-294.7718c0.0029,-1.4309 0.6017,-2.8079 1.6742,-3.8278z" fill="#8CD0D4" stroke="#8CD0D4" id="svg_8"/>
  <path d="m517.03484,363.57684l0.002,0c1.85,-0.006 3.626,-0.709 4.939,-1.962c1.314,-1.254 2.057,-2.958 2.057,-4.739l0,-294.7733l0,-0.0046c-0.016,-1.7712 -0.766,-3.4595 -2.078,-4.7007c-1.311,-1.2404 -3.079,-1.9354 -4.918,-1.9414l-0.002,0l-220.52,0l-0.001,0c-1.842,0.0029 -3.614,0.6961 -4.93,1.9363c-1.316,1.241 -2.07,2.9308 -2.09,4.7049l0,0l0,0.0055l0,294.7733l0,0.001c0.003,1.784 0.751,3.489 2.069,4.743c1.317,1.253 3.098,1.954 4.951,1.957l0.001,0l220.52,0zm-220.52,-306.9038l220.52,0c1.528,0.0027 2.988,0.5815 4.061,1.6022c1.073,1.02 1.672,2.3972 1.674,3.8283l0,294.7713c-0.002,1.431 -0.601,2.808 -1.674,3.828c-1.073,1.021 -2.533,1.6 -4.062,1.602l-220.518,0c-1.529,-0.002 -2.989,-0.581 -4.062,-1.602c-1.073,-1.02 -1.671,-2.397 -1.674,-3.828l0,-294.7718c0.003,-1.4309 0.601,-2.8079 1.674,-3.8278c1.073,-1.0207 2.533,-1.5995 4.061,-1.6022z" fill="#F0F0F0" stroke="#8CD0D4" id="svg_9"/>
  <path d="m570.35484,411.51184l-571,0l0,0.272l571,0l0,-0.272z" fill="#8CD0D4" id="svg_10"/>
  <path d="m290.79284,301.20684c-1.315,0.005 -2.602,-0.362 -3.697,-1.054c-1.096,-0.691 -1.951,-1.676 -2.458,-2.83c-0.507,-1.154 -0.643,-2.425 -0.39,-3.652c0.253,-1.227 0.883,-2.355 1.811,-3.242c0.927,-0.886 2.11,-1.491 3.399,-1.738c1.29,-0.247 2.627,-0.125 3.843,0.351c1.216,0.476 2.256,1.285 2.989,2.323c0.732,1.039 1.125,2.26 1.127,3.511c0,1.674 -0.697,3.279 -1.938,4.465c-1.241,1.187 -2.926,1.858 -4.686,1.866zm0,-9.383c-0.638,-0.004 -1.263,0.172 -1.796,0.507c-0.533,0.334 -0.949,0.811 -1.196,1.371c-0.247,0.56 -0.314,1.177 -0.191,1.773c0.123,0.596 0.429,1.143 0.879,1.573c0.451,0.43 1.026,0.723 1.652,0.842c0.626,0.119 1.275,0.058 1.864,-0.175c0.59,-0.233 1.094,-0.627 1.447,-1.132c0.354,-0.506 0.541,-1.1 0.539,-1.707c-0.006,-0.806 -0.344,-1.577 -0.943,-2.148c-0.598,-0.571 -1.407,-0.895 -2.255,-0.904z" fill="#263238" id="svg_11"/>
  <path d="m295.39984,297.14484l-2.425,2.302l7.868,7.492l2.424,-2.302l-7.867,-7.492z" fill="#263238" id="svg_12"/>
  <path d="m508.25884,114.48584c3.03,-17.75 -9.645,-34.4736 -28.309,-37.3547c-18.665,-2.8811 -36.251,9.1718 -39.281,26.9207c-3.029,17.749 9.645,34.473 28.309,37.355c18.665,2.881 36.251,-9.172 39.281,-26.921z" fill="#E1E1E1" id="svg_13"/>
  <path d="m474.54084,142.54284c-9.175,-0.158 -17.919,-3.735 -24.349,-9.961c-6.43,-6.226 -10.032,-14.604 -10.032,-23.331c0,-8.726 3.602,-17.1042 10.032,-23.3303c6.43,-6.2262 15.174,-9.803 24.349,-9.9606l0,1.4661c-8.769,0.1541 -17.124,3.5748 -23.268,9.5264c-6.144,5.9516 -9.586,13.9584 -9.586,22.2984c0,8.341 3.442,16.348 9.586,22.299c6.144,5.952 14.499,9.373 23.268,9.527l0,1.466z" fill="white" id="svg_14"/>
  <path d="m474.54084,142.54284l0,-1.466c4.447,0.078 8.866,-0.688 12.998,-2.252c4.132,-1.564 7.895,-3.896 11.069,-6.859c3.174,-2.963 5.695,-6.498 7.416,-10.398c1.721,-3.9 2.607,-8.087 2.607,-12.316c0,-4.23 -0.886,-8.417 -2.607,-12.317c-1.721,-3.9003 -4.242,-7.4351 -7.416,-10.3981c-3.174,-2.963 -6.937,-5.2947 -11.069,-6.859c-4.132,-1.5643 -8.551,-2.3297 -12.998,-2.2516l0,-1.4661c4.651,-0.0799 9.271,0.7222 13.592,2.3594c4.321,1.6371 8.256,4.0766 11.574,7.1759c3.319,3.0993 5.955,6.7963 7.754,10.8755c1.799,4.078 2.726,8.457 2.726,12.881c0,4.423 -0.927,8.802 -2.726,12.88c-1.799,4.079 -4.435,7.776 -7.754,10.876c-3.318,3.099 -7.253,5.538 -11.574,7.175c-4.321,1.638 -8.941,2.44 -13.592,2.36z" fill="white" id="svg_15"/>
  <path d="m492.43584,109.25684l-1.541,0c0,-10.784 -5.711,-25.228 -16.765,-31.9394l0.834,-1.2381c11.465,7.0264 17.472,21.9915 17.472,33.1775z" fill="white" id="svg_16"/>
  <path d="m474.96384,141.44584l-0.834,-1.238c11.009,-6.711 16.765,-21.155 16.765,-31.939l1.541,0c0,11.186 -6.007,26.172 -17.472,33.177z" fill="white" id="svg_17"/>
  <path d="m458.19884,109.25684l-1.541,0c0,-11.197 5.995,-26.1836 17.472,-33.1775l0.834,1.2272c-11.009,6.7223 -16.765,21.1553 -16.765,31.9503z" fill="white" id="svg_18"/>
  <path d="m474.12984,141.43484c-11.477,-7.005 -17.472,-21.991 -17.472,-33.177l1.541,0c0,10.795 5.71,25.228 16.765,31.939l-0.834,1.238z" fill="white" id="svg_19"/>
  <path d="m475.31784,76.68754l-1.542,0l0,65.1163l1.542,0l0,-65.1163z" fill="white" id="svg_20"/>
  <path d="m503.53684,91.17484l-57.968,0l0,1.4661l57.968,0l0,-1.4661z" fill="white" id="svg_21"/>
  <path d="m508.77784,109.07184l-68.451,0l0,1.466l68.451,0l0,-1.466z" fill="white" id="svg_22"/>
  <path d="m502.75984,126.95884l-56.426,0l0,1.466l56.426,0l0,-1.466z" fill="white" id="svg_23"/>
  <path d="m108.51884,97.22384c0.012,-2.2078 -0.327,-4.4046 -1.005,-6.516l5.973,-4.9848l-3.758,-6.1902l-7.525,2.487c-3.1613,-3.2313 -7.2586,-5.4989 -11.7745,-6.516l-1.5645,-7.3957l-7.5029,0l-1.5532,7.3957c-4.5191,1.017 -8.6202,3.2844 -11.7854,6.516l-7.5258,-2.4218l-3.7457,6.1902l5.9612,4.9847c-1.3399,4.2173 -1.3399,8.7169 0,12.9339l-5.9612,4.974l3.7457,6.19l7.5258,-2.443c3.1652,3.232 7.2663,5.499 11.7854,6.516l1.5532,7.406l7.5029,0l1.5645,-7.406c4.5159,-1.017 8.6132,-3.285 11.7745,-6.516l7.525,2.422l3.758,-6.19l-5.973,-4.92c0.677,-2.112 1.015,-4.308 1.005,-6.516zm-23.3998,12.033c-2.4082,0.002 -4.763,-0.675 -6.7664,-1.946c-2.0035,-1.271 -3.5656,-3.078 -4.4887,-5.193c-0.9232,-2.115 -1.1659,-4.443 -0.6975,-6.6898c0.4685,-2.2463 1.627,-4.3101 3.3291,-5.9303c1.702,-1.6201 3.8712,-2.7237 6.2329,-3.1713c2.3618,-0.4476 4.8101,-0.219 7.0353,0.6569c2.2251,0.8759 4.127,2.3597 5.4652,4.2638c1.3382,1.904 2.0524,4.1427 2.0524,6.4327c0.0015,1.52 -0.3119,3.025 -0.9225,4.43c-0.6105,1.404 -1.5061,2.68 -2.6357,3.755c-1.1295,1.076 -2.4708,1.928 -3.9471,2.51c-1.4763,0.582 -3.0588,0.882 -4.657,0.882z" fill="#E1E1E1" id="svg_24"/>
  <path d="m140.72284,128.00084c-0.002,-1.666 -0.259,-3.324 -0.765,-4.919l4.568,-3.801l-2.855,-4.703l-5.71,1.846c-2.408,-2.452 -5.529,-4.168 -8.965,-4.93l-1.142,-5.636l-5.71,0l-1.142,5.636c-3.439,0.762 -6.563,2.478 -8.976,4.93l-5.71,-1.846l-2.866,4.703l4.568,3.801c-1.021,3.211 -1.021,6.638 0,9.85l-4.568,3.79l2.866,4.713l5.71,-1.846c2.413,2.452 5.537,4.169 8.976,4.93l1.142,5.637l5.71,0l1.142,-5.637c3.436,-0.762 6.557,-2.478 8.965,-4.93l5.71,1.846l2.855,-4.713l-4.568,-3.79c0.506,-1.6 0.763,-3.261 0.765,-4.931zm-17.827,9.155c-1.835,0.002 -3.629,-0.513 -5.156,-1.482c-1.526,-0.968 -2.717,-2.345 -3.42,-3.957c-0.703,-1.611 -0.888,-3.385 -0.53,-5.097c0.357,-1.712 1.24,-3.284 2.538,-4.518c1.298,-1.234 2.951,-2.074 4.751,-2.414c1.8,-0.34 3.665,-0.164 5.36,0.505c1.695,0.669 3.143,1.801 4.161,3.252c1.018,1.452 1.56,3.159 1.558,4.904c0,2.336 -0.976,4.576 -2.713,6.227c-1.736,1.652 -4.092,2.58 -6.549,2.58z" fill="#E1E1E1" id="svg_25"/>
  <path d="m226.16784,27.00394l3.026,-5.8535l3.038,5.8427l6.783,0.9339l-4.91,4.5504l1.164,6.4182l-6.064,-3.0299l-6.052,3.0408l1.153,-6.4183l-4.91,-4.5503l6.772,-0.934z" fill="#8CD0D4" id="svg_26"/>
  <path d="m253.76984,27.00394l3.026,-5.8535l3.038,5.8427l6.772,0.9339l-4.899,4.5504l1.165,6.4182l-6.064,-3.0299l-6.064,3.0408l1.153,-6.4183l-4.911,-4.5503l6.784,-0.934z" fill="#8CD0D4" id="svg_27"/>
  <path d="m281.35984,27.00394l3.027,-5.8535l3.037,5.8427l6.784,0.9339l-4.899,4.5504l1.165,6.4182l-6.064,-3.0299l-6.064,3.0408l1.153,-6.4183l-4.911,-4.5503l6.772,-0.934z" fill="#8CD0D4" id="svg_28"/>
  <path d="m308.96284,27.00394l3.026,-5.8535l3.038,5.8427l6.783,0.9339l-4.911,4.5504l1.165,6.4182l-6.064,-3.0299l-6.052,3.0408l1.153,-6.4183l-4.911,-4.5503l6.773,-0.934z" fill="#8CD0D4" id="svg_29"/>
  <path d="m336.56484,27.00394l3.026,-5.8535l3.038,5.8427l6.772,0.9339l-4.899,4.5504l1.165,6.4182l-6.065,-3.0299l-6.064,3.0408l1.154,-6.4183l-4.911,-4.5503l6.784,-0.934z" fill="#8CD0D4" id="svg_30"/>
  <path d="m279.35084,456.37484c122.288,0 221.422,-5.504 221.422,-12.293c0,-6.79 -99.134,-12.294 -221.422,-12.294c-122.289,0 -221.4228,5.504 -221.4228,12.294c0,6.789 99.1338,12.293 221.4228,12.293z" fill="#8CD0D4" id="svg_31"/>
  <path d="m204.52684,433.26484l-0.228,2.498c-0.025,0.307 0.01,0.616 0.102,0.912c0.042,0.138 0.104,0.269 0.183,0.391c0.084,0.121 0.175,0.237 0.274,0.347c0.101,0.112 0.216,0.21 0.343,0.294c0.387,0.261 0.85,0.402 1.324,0.402l94.101,0c0.225,0 0.448,-0.033 0.663,-0.098c0.149,-0.043 0.294,-0.098 0.434,-0.163c0.497,-0.231 0.898,-0.614 1.142,-1.086c0.145,-0.263 0.234,-0.551 0.262,-0.847l0.217,-2.4c0.036,-0.286 0.001,-0.576 -0.103,-0.847c-0.043,-0.125 -0.1,-0.246 -0.171,-0.359c-0.177,-0.284 -0.429,-0.52 -0.731,-0.684c-0.129,-0.067 -0.262,-0.125 -0.399,-0.174c-0.211,-0.065 -0.43,-0.098 -0.651,-0.097l-23.434,0c-0.295,0.003 -0.59,-0.023 -0.88,-0.076l-0.331,-0.087c-0.125,-0.034 -0.247,-0.078 -0.365,-0.131c-0.115,-0.034 -0.222,-0.085 -0.32,-0.152c-0.164,-0.081 -0.321,-0.175 -0.468,-0.282c-0.178,-0.134 -0.342,-0.283 -0.491,-0.445c-0.08,-0.098 -0.16,-0.185 -0.24,-0.294l-0.16,-0.217l-0.057,-0.087c-0.068,-0.099 -0.126,-0.204 -0.171,-0.315l-0.137,-0.293c0.005,-0.021 0.005,-0.043 0,-0.065c0.006,-0.025 0.006,-0.051 0,-0.076c-0.034,-0.084 -0.057,-0.171 -0.069,-0.261c-0.012,-0.122 -0.012,-0.246 0,-0.369c0,-0.108 0,-0.228 0,-0.347c0,-0.12 0,-0.228 0,-0.348l0,-0.141c-0.006,-0.116 -0.006,-0.232 0,-0.348c0,-0.13 0.057,-0.238 0.08,-0.358l9.205,-33.579l1.77,-6.451l1.381,-5.05l-53.445,0l-2.867,5.05l-3.654,6.451l-20.784,36.642c-0.069,0.13 -0.137,0.26 -0.217,0.391l-0.206,0.445c-0.057,0.152 -0.126,0.293 -0.183,0.456l-0.102,0.304c-0.281,0.624 -0.488,1.276 -0.617,1.944z" fill="#263238" id="svg_32"/>
  <path opacity="0.2" d="m303.30984,433.53584l-0.217,2.422c-0.059,0.587 -0.343,1.133 -0.798,1.534c-0.455,0.4 -1.049,0.628 -1.669,0.638l-94.078,0c-0.316,0.001 -0.628,-0.06 -0.918,-0.18c-0.29,-0.12 -0.55,-0.296 -0.765,-0.516c-0.215,-0.221 -0.379,-0.481 -0.482,-0.765c-0.104,-0.284 -0.144,-0.585 -0.119,-0.885l0.229,-2.497c0.059,-0.668 0.197,-1.327 0.411,-1.966c0.193,-0.559 0.438,-1.1 0.731,-1.618l27.316,-48.143l53.446,0l-12.357,45.08c-0.081,0.258 -0.131,0.524 -0.148,0.793c-0.078,0.89 0.188,1.777 0.75,2.493c0.562,0.716 1.379,1.213 2.299,1.395c0.288,0.063 0.584,0.092 0.879,0.087l23.4,0c0.289,-0.008 0.577,0.044 0.844,0.15c0.267,0.106 0.508,0.265 0.705,0.466c0.198,0.202 0.348,0.441 0.441,0.701c0.094,0.261 0.127,0.537 0.1,0.811z" fill="white" id="svg_33"/>
  <path d="m202.63084,429.68084l27.305,-48.153l3.027,0l-27.317,48.153c-0.633,1.108 -1.022,2.328 -1.142,3.584l-0.228,2.498c-0.035,0.3 -0.001,0.605 0.099,0.892c0.1,0.287 0.264,0.551 0.481,0.772c0.216,0.222 0.481,0.396 0.775,0.512c0.294,0.116 0.611,0.17 0.929,0.158l-3.027,0c-0.318,0.012 -0.634,-0.042 -0.928,-0.158c-0.294,-0.116 -0.559,-0.29 -0.776,-0.512c-0.216,-0.221 -0.38,-0.485 -0.48,-0.772c-0.1,-0.287 -0.134,-0.592 -0.1,-0.892l0.229,-2.498c0.119,-1.258 0.511,-2.478 1.153,-3.584z" fill="#263238" id="svg_34"/>
  <path opacity="0.3" d="m232.98484,381.52784l53.435,0l-3.152,11.511l-56.815,0l6.532,-11.511z" fill="black" id="svg_35"/>
  <path d="m142.31084,221.98384l0,156.677c-0.002,1.04 0.212,2.071 0.63,3.033c0.418,0.962 1.031,1.836 1.804,2.572c0.773,0.736 1.691,1.32 2.702,1.719c1.011,0.399 2.095,0.604 3.189,0.604l228.023,0c1.094,0 2.178,-0.205 3.188,-0.604c1.011,-0.399 1.929,-0.983 2.703,-1.719c0.773,-0.736 1.386,-1.61 1.804,-2.572c0.417,-0.962 0.632,-1.993 0.63,-3.033l0,-156.677c0.002,-1.042 -0.213,-2.073 -0.631,-3.036c-0.419,-0.962 -1.033,-1.837 -1.807,-2.573c-0.775,-0.737 -1.694,-1.321 -2.706,-1.719c-1.013,-0.398 -2.097,-0.602 -3.193,-0.6l-227.988,0c-1.834,0.001 -3.616,0.578 -5.071,1.64c-0.204,0.144 -0.399,0.299 -0.582,0.467c-0.562,0.484 -1.047,1.044 -1.439,1.661c-0.276,0.407 -0.506,0.84 -0.685,1.293c-0.372,0.915 -0.565,1.886 -0.571,2.867z" fill="#263238" id="svg_36"/>
  <path d="m386.98384,361.71884l0,16.942c0,2.102 -0.878,4.119 -2.442,5.606c-1.563,1.486 -3.683,2.322 -5.894,2.322l-227.989,0c-2.211,0 -4.332,-0.836 -5.895,-2.322c-1.564,-1.487 -2.442,-3.504 -2.442,-5.606l0,-16.942l244.662,0z" fill="#8CD0D4" id="svg_37"/>
  <path opacity="0.6" d="m386.98384,361.71884l0,16.942c0,2.102 -0.878,4.119 -2.442,5.606c-1.563,1.486 -3.683,2.322 -5.894,2.322l-227.989,0c-2.211,0 -4.332,-0.836 -5.895,-2.322c-1.564,-1.487 -2.442,-3.504 -2.442,-5.606l0,-16.942l244.662,0z" fill="white" id="svg_38"/>
  <path d="m150.80684,356.92984l227.692,0c1.212,0 2.373,-0.458 3.23,-1.272c0.857,-0.815 1.338,-1.92 1.338,-3.072l0,-129.386c0,-1.152 -0.481,-2.257 -1.338,-3.072c-0.857,-0.814 -2.018,-1.272 -3.23,-1.272l-227.692,0c-1.211,0 -2.373,0.458 -3.23,1.272c-0.857,0.815 -1.338,1.92 -1.338,3.072l0,129.429c0.012,1.145 0.499,2.239 1.354,3.044c0.855,0.805 2.01,1.257 3.214,1.257z" fill="#8CD0D4" id="svg_39"/>
  <path d="m145.61084,214.05584l5.048,0c-2.211,0 -4.332,0.835 -5.895,2.322c-1.564,1.487 -2.442,3.503 -2.442,5.606l0,156.677c0,2.102 0.878,4.119 2.442,5.606c1.563,1.486 3.684,2.322 5.895,2.322l-5.048,0c-2.211,0 -4.331,-0.836 -5.895,-2.322c-1.563,-1.487 -2.442,-3.504 -2.442,-5.606l0,-156.677c0,-2.103 0.879,-4.119 2.442,-5.606c1.564,-1.487 3.684,-2.322 5.895,-2.322z" fill="#263238" id="svg_40"/>
  <g opacity="0.2" id="svg_41">
   <path opacity="0.2" d="m145.61084,214.05584l5.048,0c-2.211,0 -4.332,0.835 -5.895,2.322c-1.564,1.487 -2.442,3.503 -2.442,5.606l0,156.677c0,2.102 0.878,4.119 2.442,5.606c1.563,1.486 3.684,2.322 5.895,2.322l-5.048,0c-2.211,0 -4.331,-0.836 -5.895,-2.322c-1.563,-1.487 -2.442,-3.504 -2.442,-5.606l0,-156.677c0,-2.103 0.879,-4.119 2.442,-5.606c1.564,-1.487 3.684,-2.322 5.895,-2.322z" fill="white" id="svg_42"/>
  </g>
  <path opacity="0.5" d="m384.41484,301.30484c-5.87,-1.086 -15.166,2.53 -16.902,7.96c0.195,-1.658 -0.115,-3.334 -0.895,-4.828c-0.78,-1.495 -1.995,-2.744 -3.502,-3.599c-3.026,-1.662 -6.989,-2.834 -9.775,-0.836c1.321,-5.337 1.052,-10.919 -0.775,-16.119c-1.828,-5.2 -5.142,-9.813 -9.572,-13.323c-8.93,-6.874 -21.96,-7.602 -32.273,-2.812c1.491,-2.724 2.336,-5.724 2.477,-8.791c0.142,-3.067 -0.425,-6.126 -1.659,-8.962c-1.234,-2.837 -3.106,-5.382 -5.484,-7.458c-2.379,-2.075 -5.206,-3.631 -8.284,-4.557c-14.344,-4.75 -29.683,-6.133 -44.709,-4.029c-8.691,1.217 -17.553,3.801 -23.868,9.6c-6.315,5.8 -7.994,16.29 -3.746,23.599c-4.902,-1.506 -10.144,-1.705 -15.157,-0.578c-5.013,1.128 -9.605,3.54 -13.279,6.975c-3.541,3.517 -5.994,7.896 -7.088,12.653c-1.094,4.758 -0.787,9.71 0.887,14.312c-1.347,-0.76 -2.873,-1.189 -4.438,-1.246c-1.566,-0.056 -3.122,0.26 -4.526,0.92c-1.384,0.668 -2.566,1.659 -3.435,2.88c-0.869,1.222 -1.396,2.634 -1.533,4.103c-1.826,-2.292 -4.204,-4.133 -6.935,-5.368c-2.73,-1.236 -5.732,-1.83 -8.754,-1.732c-3.022,0.098 -5.975,0.885 -8.611,2.294c-2.635,1.41 -4.876,3.401 -6.534,5.805l0,48.762l237.022,0l1.348,-55.625z" fill="white" id="svg_43"/>
  <path d="m331.59684,279.89984l-122.102,0c-6.213,0 -11.249,4.789 -11.249,10.697c0,5.908 5.036,10.697 11.249,10.697l122.102,0c6.213,0 11.249,-4.789 11.249,-10.697c0,-5.908 -5.036,-10.697 -11.249,-10.697z" fill="white" id="svg_44"/>
  <path d="m208.79784,294.69084c-1.315,0 -2.6,-0.37 -3.693,-1.065c-1.093,-0.694 -1.945,-1.682 -2.448,-2.837c-0.503,-1.154 -0.634,-2.425 -0.378,-3.651c0.257,-1.226 0.89,-2.353 1.819,-3.237c0.93,-0.883 2.114,-1.485 3.403,-1.729c1.289,-0.244 2.626,-0.119 3.84,0.359c1.215,0.479 2.253,1.289 2.983,2.328c0.73,1.04 1.12,2.262 1.12,3.512c-0.003,1.675 -0.704,3.281 -1.95,4.466c-1.246,1.185 -2.934,1.851 -4.696,1.854zm0,-9.383c-0.637,0 -1.26,0.18 -1.789,0.516c-0.53,0.337 -0.943,0.815 -1.186,1.375c-0.244,0.559 -0.308,1.175 -0.184,1.769c0.125,0.594 0.431,1.14 0.882,1.568c0.45,0.429 1.024,0.72 1.649,0.838c0.624,0.119 1.272,0.058 1.86,-0.174c0.589,-0.232 1.092,-0.624 1.446,-1.128c0.353,-0.503 0.542,-1.096 0.542,-1.701c-0.003,-0.812 -0.343,-1.589 -0.946,-2.163c-0.604,-0.573 -1.421,-0.897 -2.274,-0.9z" fill="#263238" id="svg_45"/>
  <path d="m213.39784,290.61684l-2.424,2.302l7.868,7.492l2.424,-2.302l-7.868,-7.492z" fill="#263238" id="svg_46"/>
  <g opacity="0.1" id="svg_47">
   <path opacity="0.1" d="m305.94784,218.84484l8.748,0l18.169,138.085l-8.759,0l-18.158,-138.085z" fill="white" id="svg_48"/>
   <path opacity="0.1" d="m341.71484,356.92984l-18.158,-138.085l32.901,0l18.158,138.085l-32.901,0z" fill="white" id="svg_49"/>
  </g>
  <path opacity="0.2" d="m220.75484,433.55784l-0.206,2.291c-0.034,0.287 -0.004,0.578 0.09,0.853c0.093,0.275 0.247,0.528 0.451,0.742c0.205,0.213 0.455,0.383 0.733,0.498c0.279,0.114 0.581,0.171 0.884,0.166l77.919,0c0.62,-0.01 1.214,-0.238 1.669,-0.638c0.455,-0.401 0.739,-0.947 0.798,-1.534l0.217,-2.4c0.036,-0.276 0.009,-0.556 -0.079,-0.821c-0.088,-0.265 -0.235,-0.509 -0.431,-0.715c-0.196,-0.207 -0.437,-0.37 -0.706,-0.48c-0.269,-0.109 -0.559,-0.163 -0.851,-0.156l-23.4,0c-0.292,0.001 -0.584,-0.032 -0.868,-0.097l-53.674,0c-0.645,0.021 -1.26,0.265 -1.729,0.687c-0.469,0.422 -0.759,0.993 -0.817,1.604z" fill="white" id="svg_50"/>
  <path opacity="0.2" d="m204.91484,431.29884l72.06,0c-0.921,-0.178 -1.74,-0.673 -2.301,-1.391c-0.561,-0.717 -0.823,-1.607 -0.736,-2.497l-66.739,0l-2.284,3.888z" fill="black" id="svg_51"/>
  <path d="m241.76684,267.06284l1.576,-3.334c1.952,1.283 4.263,1.98 6.635,1.999c2.753,0 3.872,-0.88 3.872,-2.053c0,-3.573 -11.683,-1.086 -11.683,-8.21c0,-3.258 2.752,-5.951 8.462,-5.951c2.445,-0.049 4.857,0.537 6.978,1.694l-1.439,3.356c-1.689,-0.952 -3.61,-1.468 -5.573,-1.499c-2.752,0 -3.814,0.977 -3.814,2.172c0,3.519 11.682,1.086 11.682,8.101c0,3.193 -2.786,5.93 -8.53,5.93c-2.894,0.069 -5.742,-0.7 -8.166,-2.205z" fill="#263238" id="svg_52"/>
  <path d="m277.21484,265.40184l0,3.54l-15.554,0l0,-19.102l15.2,0l0,3.551l-10.563,0l0,4.148l9.33,0l0,3.443l-9.33,0l0,4.42l10.917,0z" fill="#263238" id="svg_53"/>
  <path d="m279.60184,259.39584c0,-5.68 4.648,-9.882 10.986,-9.882c6.338,0 10.997,4.181 10.997,9.882c0,5.702 -4.682,9.883 -10.997,9.883c-6.315,0 -10.986,-4.203 -10.986,-9.883zm17.278,0c-0.036,-1.174 -0.434,-2.313 -1.146,-3.273c-0.712,-0.961 -1.706,-1.701 -2.857,-2.128c-1.151,-0.427 -2.409,-0.522 -3.617,-0.274c-1.207,0.249 -2.311,0.83 -3.174,1.671c-0.863,0.841 -1.446,1.905 -1.677,3.06c-0.231,1.154 -0.099,2.348 0.378,3.431c0.478,1.084 1.281,2.01 2.308,2.663c1.028,0.652 2.234,1.003 3.47,1.008c0.85,0.025 1.697,-0.118 2.486,-0.42c0.789,-0.303 1.503,-0.758 2.097,-1.337c0.594,-0.579 1.054,-1.27 1.353,-2.027c0.298,-0.758 0.427,-1.566 0.379,-2.374z" fill="#263238" id="svg_54"/>
  <path opacity="0.8" d="m264.54984,315.33584l-48.192,0c-2.428,0 -4.397,1.872 -4.397,4.181l0,9.687c0,2.31 1.969,4.181 4.397,4.181l48.192,0c2.429,0 4.397,-1.871 4.397,-4.181l0,-9.687c0,-2.309 -1.968,-4.181 -4.397,-4.181z" fill="white" id="svg_55"/>
  <path opacity="0.8" d="m334.44084,315.33584l-48.193,0c-2.428,0 -4.396,1.872 -4.396,4.181l0,9.687c0,2.31 1.968,4.181 4.396,4.181l48.193,0c2.428,0 4.396,-1.871 4.396,-4.181l0,-9.687c0,-2.309 -1.968,-4.181 -4.396,-4.181z" fill="white" id="svg_56"/>
  <path d="m239.08384,225.00284l28.31,-47.784c0.1,-0.167 0.244,-0.306 0.419,-0.403c0.174,-0.097 0.372,-0.148 0.575,-0.148c0.202,0 0.4,0.051 0.574,0.148c0.175,0.097 0.319,0.236 0.419,0.403l28.31,47.784c0.095,0.164 0.143,0.35 0.14,0.538c-0.003,0.188 -0.057,0.371 -0.157,0.533c-0.1,0.162 -0.243,0.297 -0.414,0.391c-0.171,0.094 -0.365,0.144 -0.562,0.145l-56.609,0c-0.199,0 -0.394,-0.048 -0.567,-0.141c-0.172,-0.093 -0.317,-0.228 -0.418,-0.39c-0.101,-0.162 -0.157,-0.347 -0.16,-0.536c-0.004,-0.188 0.045,-0.375 0.14,-0.54z" fill="#8CD0D4" id="svg_57"/>
  <path opacity="0.3" d="m239.08384,225.00284l28.31,-47.784c0.1,-0.167 0.244,-0.306 0.419,-0.403c0.174,-0.097 0.372,-0.148 0.575,-0.148c0.202,0 0.4,0.051 0.574,0.148c0.175,0.097 0.319,0.236 0.419,0.403l28.31,47.784c0.095,0.164 0.143,0.35 0.14,0.538c-0.003,0.188 -0.057,0.371 -0.157,0.533c-0.1,0.162 -0.243,0.297 -0.414,0.391c-0.171,0.094 -0.365,0.144 -0.562,0.145l-56.609,0c-0.199,0 -0.394,-0.048 -0.567,-0.141c-0.172,-0.093 -0.317,-0.228 -0.418,-0.39c-0.101,-0.162 -0.157,-0.347 -0.16,-0.536c-0.004,-0.188 0.045,-0.375 0.14,-0.54z" fill="black" id="svg_58"/>
  <path d="m254.93484,233.76684l-1.382,-5.365l-4.957,0l-1.37,5.365c2.468,0.972 5.241,0.972 7.709,0z" fill="#263238" id="svg_59"/>
  <path opacity="0.2" d="m248.59684,228.40184l-0.32,1.249c1.827,0.51 3.769,0.51 5.596,0l-0.32,-1.249l-4.956,0z" fill="white" id="svg_60"/>
  <path opacity="0.4" d="m247.93384,230.99684c-0.091,0.348 -0.182,0.685 -0.262,1.01c2.23,0.667 4.622,0.667 6.852,0l-0.252,-1.01c-2.091,0.403 -4.246,0.403 -6.338,0z" fill="white" id="svg_61"/>
  <path d="m256.30484,228.02184c-3.35,1.315 -7.111,1.315 -10.461,0l0,-39.856c-0.003,-2.231 0.457,-4.441 1.355,-6.502c0.897,-2.062 2.215,-3.934 3.876,-5.51c1.661,1.576 2.978,3.448 3.875,5.51c0.898,2.061 1.358,4.271 1.355,6.502l0,39.856z" fill="#8CD0D4" id="svg_62"/>
  <path d="m245.84384,188.16584l0,37.564c3.387,1.124 7.074,1.124 10.461,0l0,-37.564c0.003,-2.231 -0.457,-4.441 -1.355,-6.502c-0.897,-2.062 -2.214,-3.934 -3.875,-5.51c-1.661,1.576 -2.979,3.448 -3.876,5.51c-0.898,2.061 -1.358,4.271 -1.355,6.502z" fill="#8CD0D4" id="svg_63"/>
  <path opacity="0.4" d="m245.84384,188.16584l0,37.564c3.387,1.124 7.074,1.124 10.461,0l0,-37.564c0.003,-2.231 -0.457,-4.441 -1.355,-6.502c-0.897,-2.062 -2.214,-3.934 -3.875,-5.51c-1.661,1.576 -2.979,3.448 -3.876,5.51c-0.898,2.061 -1.358,4.271 -1.355,6.502z" fill="white" id="svg_64"/>
  <path d="m245.84384,188.16584l0,28.236c3.419,0.929 7.042,0.929 10.461,0l0,-28.236c0.003,-2.231 -0.457,-4.441 -1.355,-6.502c-0.897,-2.062 -2.214,-3.934 -3.875,-5.51c-1.661,1.576 -2.979,3.448 -3.876,5.51c-0.898,2.061 -1.358,4.271 -1.355,6.502z" fill="#8CD0D4" id="svg_65"/>
  <path opacity="0.6" d="m245.84384,188.16584l0,28.236c3.419,0.929 7.042,0.929 10.461,0l0,-28.236c0.003,-2.231 -0.457,-4.441 -1.355,-6.502c-0.897,-2.062 -2.214,-3.934 -3.875,-5.51c-1.661,1.576 -2.979,3.448 -3.876,5.51c-0.898,2.061 -1.358,4.271 -1.355,6.502z" fill="white" id="svg_66"/>
  <path d="m245.84384,188.16584l0,14.769c3.418,0.934 7.043,0.934 10.461,0l0,-14.769c0.003,-2.231 -0.457,-4.441 -1.355,-6.502c-0.897,-2.062 -2.214,-3.934 -3.875,-5.51c-1.661,1.576 -2.979,3.448 -3.876,5.51c-0.898,2.061 -1.358,4.271 -1.355,6.502z" fill="#8CD0D4" id="svg_67"/>
  <path opacity="0.8" d="m245.84384,188.16584l0,14.769c3.418,0.934 7.043,0.934 10.461,0l0,-14.769c0.003,-2.231 -0.457,-4.441 -1.355,-6.502c-0.897,-2.062 -2.214,-3.934 -3.875,-5.51c-1.661,1.576 -2.979,3.448 -3.876,5.51c-0.898,2.061 -1.358,4.271 -1.355,6.502z" fill="white" id="svg_68"/>
  <path d="m245.84384,188.16584l0,1.726c3.419,0.929 7.042,0.929 10.461,0l0,-1.726c0.003,-2.231 -0.457,-4.441 -1.355,-6.502c-0.897,-2.062 -2.214,-3.934 -3.875,-5.51c-1.661,1.576 -2.979,3.448 -3.876,5.51c-0.898,2.061 -1.358,4.271 -1.355,6.502z" fill="#8CD0D4" id="svg_69"/>
  <path opacity="0.4" d="m245.84384,188.16584l0,1.726c3.419,0.929 7.042,0.929 10.461,0l0,-1.726c0.003,-2.231 -0.457,-4.441 -1.355,-6.502c-0.897,-2.062 -2.214,-3.934 -3.875,-5.51c-1.661,1.576 -2.979,3.448 -3.876,5.51c-0.898,2.061 -1.358,4.271 -1.355,6.502z" fill="white" id="svg_70"/>
  <path d="m288.58884,233.76684l-1.37,-5.365l-4.956,0l-1.382,5.365c2.468,0.972 5.241,0.972 7.708,0z" fill="#263238" id="svg_71"/>
  <path opacity="0.2" d="m282.26284,228.40184l-0.32,1.249c1.827,0.51 3.769,0.51 5.596,0l-0.32,-1.249l-4.956,0z" fill="white" id="svg_72"/>
  <path opacity="0.4" d="m281.58884,230.99684c-0.08,0.348 -0.171,0.685 -0.251,1.01c2.23,0.667 4.622,0.667 6.852,0l-0.263,-1.01c-2.092,0.403 -4.247,0.403 -6.338,0z" fill="white" id="svg_73"/>
  <path d="m289.97084,228.02184c-3.349,1.315 -7.111,1.315 -10.46,0l0,-39.856c-0.004,-2.231 0.457,-4.441 1.354,-6.502c0.898,-2.062 2.215,-3.934 3.876,-5.51c1.661,1.576 2.978,3.448 3.876,5.51c0.897,2.061 1.358,4.271 1.354,6.502l0,39.856z" fill="#8CD0D4" id="svg_74"/>
  <path d="m279.51084,188.16584l0,37.564c3.386,1.124 7.073,1.124 10.46,0l0,-37.564c0.004,-2.231 -0.457,-4.441 -1.354,-6.502c-0.898,-2.062 -2.215,-3.934 -3.876,-5.51c-1.661,1.576 -2.978,3.448 -3.876,5.51c-0.897,2.061 -1.358,4.271 -1.354,6.502z" fill="#8CD0D4" id="svg_75"/>
  <path opacity="0.4" d="m279.51084,188.16584l0,37.564c3.386,1.124 7.073,1.124 10.46,0l0,-37.564c0.004,-2.231 -0.457,-4.441 -1.354,-6.502c-0.898,-2.062 -2.215,-3.934 -3.876,-5.51c-1.661,1.576 -2.978,3.448 -3.876,5.51c-0.897,2.061 -1.358,4.271 -1.354,6.502z" fill="white" id="svg_76"/>
  <path d="m279.51084,188.16584l0,28.236c3.418,0.929 7.042,0.929 10.46,0l0,-28.236c0.004,-2.231 -0.457,-4.441 -1.354,-6.502c-0.898,-2.062 -2.215,-3.934 -3.876,-5.51c-1.661,1.576 -2.978,3.448 -3.876,5.51c-0.897,2.061 -1.358,4.271 -1.354,6.502z" fill="#8CD0D4" id="svg_77"/>
  <path opacity="0.6" d="m279.51084,188.16584l0,28.236c3.418,0.929 7.042,0.929 10.46,0l0,-28.236c0.004,-2.231 -0.457,-4.441 -1.354,-6.502c-0.898,-2.062 -2.215,-3.934 -3.876,-5.51c-1.661,1.576 -2.978,3.448 -3.876,5.51c-0.897,2.061 -1.358,4.271 -1.354,6.502z" fill="white" id="svg_78"/>
  <path d="m279.51084,188.16584l0,14.769c3.417,0.934 7.043,0.934 10.46,0l0,-14.769c0.004,-2.231 -0.457,-4.441 -1.354,-6.502c-0.898,-2.062 -2.215,-3.934 -3.876,-5.51c-1.661,1.576 -2.978,3.448 -3.876,5.51c-0.897,2.061 -1.358,4.271 -1.354,6.502z" fill="#8CD0D4" id="svg_79"/>
  <path opacity="0.8" d="m279.51084,188.16584l0,14.769c3.417,0.934 7.043,0.934 10.46,0l0,-14.769c0.004,-2.231 -0.457,-4.441 -1.354,-6.502c-0.898,-2.062 -2.215,-3.934 -3.876,-5.51c-1.661,1.576 -2.978,3.448 -3.876,5.51c-0.897,2.061 -1.358,4.271 -1.354,6.502z" fill="white" id="svg_80"/>
  <path d="m279.51084,188.16584l0,1.726c3.418,0.929 7.042,0.929 10.46,0l0,-1.726c0.004,-2.231 -0.457,-4.441 -1.354,-6.502c-0.898,-2.062 -2.215,-3.934 -3.876,-5.51c-1.661,1.576 -2.978,3.448 -3.876,5.51c-0.897,2.061 -1.358,4.271 -1.354,6.502z" fill="#8CD0D4" id="svg_81"/>
  <path opacity="0.4" d="m279.51084,188.16584l0,1.726c3.418,0.929 7.042,0.929 10.46,0l0,-1.726c0.004,-2.231 -0.457,-4.441 -1.354,-6.502c-0.898,-2.062 -2.215,-3.934 -3.876,-5.51c-1.661,1.576 -2.978,3.448 -3.876,5.51c-0.897,2.061 -1.358,4.271 -1.354,6.502z" fill="white" id="svg_82"/>
  <path d="m274.13184,236.83984l-2.284,-8.688l-7.994,0l-2.227,8.688c1.98,0.79 4.105,1.197 6.252,1.197c2.147,0 4.273,-0.407 6.253,-1.197z" fill="#263238" id="svg_83"/>
  <path opacity="0.2" d="m263.91084,228.18484c0,0 -0.331,1.303 -0.525,2.02c2.953,0.82 6.091,0.82 9.044,0l-0.525,-2.031l-7.994,0.011z" fill="white" id="svg_84"/>
  <path opacity="0.4" d="m262.82584,232.38684l-0.411,1.629c3.578,1.054 7.408,1.054 10.986,0l-0.411,-1.629c-3.356,0.63 -6.808,0.63 -10.164,0z" fill="white" id="svg_85"/>
  <path d="m276.35884,227.54384c-2.678,1.062 -5.55,1.609 -8.451,1.609c-2.901,0 -5.774,-0.547 -8.451,-1.609l0,-64.313c-0.004,-3.601 0.741,-7.168 2.191,-10.494c1.451,-3.327 3.578,-6.349 6.26,-8.891c2.682,2.542 4.809,5.564 6.259,8.891c1.451,3.326 2.195,6.893 2.192,10.494l0,64.313z" fill="#8CD0D4" id="svg_86"/>
  <path d="m259.45684,163.23084l0,60.653c5.474,1.803 11.427,1.803 16.902,0l0,-60.653c0.003,-3.601 -0.741,-7.168 -2.192,-10.494c-1.45,-3.327 -3.577,-6.349 -6.259,-8.891c-2.682,2.542 -4.809,5.564 -6.26,8.891c-1.45,3.326 -2.195,6.893 -2.191,10.494z" fill="#8CD0D4" id="svg_87"/>
  <path opacity="0.4" d="m259.45684,163.23084l0,60.653c5.474,1.803 11.427,1.803 16.902,0l0,-60.653c0.003,-3.601 -0.741,-7.168 -2.192,-10.494c-1.45,-3.327 -3.577,-6.349 -6.259,-8.891c-2.682,2.542 -4.809,5.564 -6.26,8.891c-1.45,3.326 -2.195,6.893 -2.191,10.494z" fill="white" id="svg_88"/>
  <path d="m259.45684,163.23084l0,45.547c5.524,1.497 11.378,1.497 16.902,0l0,-45.547c0.003,-3.601 -0.741,-7.168 -2.192,-10.494c-1.45,-3.327 -3.577,-6.349 -6.259,-8.891c-2.682,2.542 -4.809,5.564 -6.26,8.891c-1.45,3.326 -2.195,6.893 -2.191,10.494z" fill="#8CD0D4" id="svg_89"/>
  <path opacity="0.6" d="m259.45684,163.23084l0,45.547c5.524,1.497 11.378,1.497 16.902,0l0,-45.547c0.003,-3.601 -0.741,-7.168 -2.192,-10.494c-1.45,-3.327 -3.577,-6.349 -6.259,-8.891c-2.682,2.542 -4.809,5.564 -6.26,8.891c-1.45,3.326 -2.195,6.893 -2.191,10.494z" fill="white" id="svg_90"/>
  <path d="m259.45684,163.23084l0,23.892c5.524,1.497 11.378,1.497 16.902,0l0,-23.892c0.003,-3.601 -0.741,-7.168 -2.192,-10.494c-1.45,-3.327 -3.577,-6.349 -6.259,-8.891c-2.682,2.542 -4.809,5.564 -6.26,8.891c-1.45,3.326 -2.195,6.893 -2.191,10.494z" fill="#8CD0D4" id="svg_91"/>
  <path opacity="0.8" d="m259.45684,163.23084l0,23.892c5.524,1.497 11.378,1.497 16.902,0l0,-23.892c0.003,-3.601 -0.741,-7.168 -2.192,-10.494c-1.45,-3.327 -3.577,-6.349 -6.259,-8.891c-2.682,2.542 -4.809,5.564 -6.26,8.891c-1.45,3.326 -2.195,6.893 -2.191,10.494z" fill="white" id="svg_92"/>
  <path d="m259.45684,163.23084l0,2.791c5.524,1.497 11.378,1.497 16.902,0l0,-2.791c0.003,-3.601 -0.741,-7.168 -2.192,-10.494c-1.45,-3.327 -3.577,-6.349 -6.259,-8.891c-2.682,2.542 -4.809,5.564 -6.26,8.891c-1.45,3.326 -2.195,6.893 -2.191,10.494z" fill="#8CD0D4" id="svg_93"/>
  <path opacity="0.1" d="m259.45684,163.23084l0,2.791c5.524,1.497 11.378,1.497 16.902,0l0,-2.791c0.003,-3.601 -0.741,-7.168 -2.192,-10.494c-1.45,-3.327 -3.577,-6.349 -6.259,-8.891c-2.682,2.542 -4.809,5.564 -6.26,8.891c-1.45,3.326 -2.195,6.893 -2.191,10.494z" fill="white" id="svg_94"/>
  <path d="m272.82984,176.09984c0.002,0.926 -0.285,1.832 -0.824,2.604c-0.54,0.771 -1.307,1.372 -2.207,1.728c-0.899,0.356 -1.889,0.45 -2.844,0.271c-0.956,-0.179 -1.834,-0.624 -2.523,-1.278c-0.69,-0.655 -1.16,-1.489 -1.351,-2.397c-0.191,-0.908 -0.094,-1.85 0.278,-2.706c0.373,-0.856 1.003,-1.587 1.813,-2.102c0.81,-0.515 1.762,-0.79 2.736,-0.79c1.303,0 2.554,0.492 3.476,1.367c0.923,0.876 1.443,2.064 1.446,3.303z" fill="#8CD0D4" id="svg_95"/>
  <path d="m267.90784,180.78084c-1.244,0.002 -2.443,-0.445 -3.352,-1.252c-0.91,-0.806 -1.463,-1.912 -1.547,-3.092c0,0.119 0,0.239 0,0.347c0,1.242 0.518,2.432 1.441,3.31c0.923,0.878 2.175,1.371 3.481,1.371c1.305,0 2.557,-0.493 3.48,-1.371c0.923,-0.878 1.442,-2.068 1.442,-3.31c0,-0.108 0,-0.228 0,-0.347c-0.088,1.187 -0.648,2.297 -1.567,3.104c-0.919,0.808 -2.127,1.251 -3.378,1.24z" fill="#8CD0D4" id="svg_96"/>
  <path opacity="0.3" d="m267.90784,180.78084c-1.244,0.002 -2.443,-0.445 -3.352,-1.252c-0.91,-0.806 -1.463,-1.912 -1.547,-3.092c0,0.119 0,0.239 0,0.347c0,1.242 0.518,2.432 1.441,3.31c0.923,0.878 2.175,1.371 3.481,1.371c1.305,0 2.557,-0.493 3.48,-1.371c0.923,-0.878 1.442,-2.068 1.442,-3.31c0,-0.108 0,-0.228 0,-0.347c-0.088,1.187 -0.648,2.297 -1.567,3.104c-0.919,0.808 -2.127,1.251 -3.378,1.24z" fill="black" id="svg_97"/>
  <path d="m267.90784,179.41184c1.924,0 3.483,-1.483 3.483,-3.312c0,-1.829 -1.559,-3.312 -3.483,-3.312c-1.924,0 -3.483,1.483 -3.483,3.312c0,1.829 1.559,3.312 3.483,3.312z" fill="white" id="svg_98"/>
  <path d="m267.72484,179.39084l1.427,-6.364c-0.364,-0.137 -0.75,-0.21 -1.141,-0.218l-1.428,6.354c0.363,0.14 0.75,0.218 1.142,0.228z" fill="#8CD0D4" id="svg_99"/>
  <path d="m269.02684,179.22784l1.233,-5.55c-0.158,-0.138 -0.33,-0.262 -0.514,-0.369l-1.359,6.06c0.217,-0.03 0.431,-0.078 0.64,-0.141z" fill="#8CD0D4" id="svg_100"/>
  <g opacity="0.7" id="svg_101">
   <path opacity="0.7" d="m267.72484,179.39084l1.427,-6.364c-0.364,-0.137 -0.75,-0.21 -1.141,-0.218l-1.428,6.354c0.363,0.14 0.75,0.218 1.142,0.228z" fill="white" id="svg_102"/>
   <path opacity="0.7" d="m269.02684,179.22784l1.233,-5.55c-0.159,-0.138 -0.331,-0.262 -0.514,-0.369l-1.359,6.06c0.217,-0.03 0.431,-0.078 0.64,-0.141z" fill="white" id="svg_103"/>
  </g>
  <path d="m393.99584,301.67384l-1.314,0.272c-0.587,0.113 -1.124,0.397 -1.533,0.814c-0.41,0.417 -0.672,0.944 -0.751,1.51l-0.114,0.879c-0.059,0.439 -0.005,0.886 0.158,1.3c0.163,0.415 0.431,0.785 0.779,1.079c2.158,1.792 7.251,5.115 13.418,2.976l4.922,-3.53l-0.811,-6.321l-10.278,-1.411c-0.621,0.021 -1.218,0.235 -1.701,0.608l-2.775,1.824z" fill="#FAB27B" id="svg_104"/>
  <path d="m409.59584,306.97384l13.669,-0.652l-2.112,-7.069l-12.368,1.401l0.811,6.32z" fill="#FAB27B" id="svg_105"/>
  <path d="m417.73784,299.30684c-0.56,0.997 -0.753,2.144 -0.548,3.258c0.248,1.804 1.011,3.509 2.204,4.93c-2.303,0.033 -4.568,0.564 -6.624,1.553l-0.114,0.055c-7.126,-4.627 -3.015,-10.111 -3.015,-10.111l0.469,0.065c2.527,0.333 5.083,0.416 7.628,0.25z" fill="#8CD0D4" id="svg_106"/>
  <path d="m445.72884,305.13884c-12.7,2.78 -28.493,2.508 -28.493,2.508c-0.521,-0.834 -0.756,-1.802 -0.674,-2.769c0.114,-2.02 0.4,-4.55 1.142,-5.571c0.742,-1.021 6.235,-1.564 6.235,-1.564c0,0 10.609,-4.681 12.619,-6.212c2.01,-1.531 1.93,-8.688 1.553,-13.39c-2.021,-25.272 2.65,-27.15 6.852,-28.312c8.908,-2.357 12.003,52.844 0.766,55.31z" fill="#8CD0D4" id="svg_107"/>
  <path d="m358.71884,310.55784l35.494,0c1.142,0 1.679,-0.891 1.142,-1.988l-8.862,-19.037c-0.277,-0.555 -0.702,-1.031 -1.233,-1.38c-0.531,-0.348 -1.15,-0.558 -1.793,-0.608l-35.505,0c-1.142,0 -1.679,0.891 -1.142,1.988l8.907,19.037c0.273,0.551 0.693,1.025 1.218,1.373c0.525,0.349 1.137,0.561 1.774,0.615z" fill="#8CD0D4" id="svg_108"/>
  <path opacity="0.2" d="m358.71884,310.55784l35.494,0c1.142,0 1.679,-0.891 1.142,-1.988l-8.862,-19.037c-0.277,-0.555 -0.702,-1.031 -1.233,-1.38c-0.531,-0.348 -1.15,-0.558 -1.793,-0.608l-35.505,0c-1.142,0 -1.679,0.891 -1.142,1.988l8.907,19.037c0.273,0.551 0.693,1.025 1.218,1.373c0.525,0.349 1.137,0.561 1.774,0.615z" fill="black" id="svg_109"/>
  <path d="m346.41984,287.54484l1.542,0c-1.142,0 -1.679,0.891 -1.142,1.988l8.907,19.037c0.275,0.554 0.698,1.03 1.228,1.378c0.529,0.349 1.145,0.559 1.787,0.61l-1.53,0c-0.644,-0.05 -1.262,-0.259 -1.793,-0.608c-0.531,-0.349 -0.957,-0.825 -1.233,-1.38l-8.896,-19.037c-0.537,-1.097 -0.023,-1.988 1.13,-1.988z" fill="#8CD0D4" id="svg_110"/>
  <path opacity="0.4" d="m346.41984,287.54484l1.542,0c-1.142,0 -1.679,0.891 -1.142,1.988l8.907,19.037c0.275,0.554 0.698,1.03 1.228,1.378c0.529,0.349 1.145,0.559 1.787,0.61l-1.53,0c-0.644,-0.05 -1.262,-0.259 -1.793,-0.608c-0.531,-0.349 -0.957,-0.825 -1.233,-1.38l-8.896,-19.037c-0.537,-1.097 -0.023,-1.988 1.13,-1.988z" fill="black" id="svg_111"/>
  <path d="m359.38184,308.37484l32.124,0l-8.713,-18.647l-32.125,0l8.714,18.647z" fill="#263238" id="svg_112"/>
  <path opacity="0.8" d="m359.38184,308.37484l32.124,0l-8.713,-18.647l-32.125,0l8.714,18.647z" fill="white" id="svg_113"/>
  <path d="m465.08484,309.06984c0,0 0.88,11.142 1.005,15.052c0.857,26.118 -21.561,28.106 -38.051,25.228l-59.727,-15.878c-2.364,7.548 -29.977,49.109 -29.977,49.109l-14.515,-7.927c0,0 15.052,-34.307 24.77,-58.188c5.539,-13.63 50.682,-4.203 67.31,-1.39c5.047,1.292 4.076,-6.212 4.076,-6.212l45.109,0.206z" fill="#263238" id="svg_114"/>
  <path d="m334.63484,381.79984l-5.55,8.785l-10.335,-4.887l5.378,-10.002l10.507,6.104z" fill="#FAB27B" id="svg_115"/>
  <path d="m313.24484,383.92784c-1.359,-0.597 -2.661,-1.444 -2.843,-2.172c-0.033,-0.211 0,-0.427 0.096,-0.62c0.095,-0.193 0.249,-0.355 0.44,-0.466c0.166,-0.107 0.352,-0.181 0.548,-0.219c0.196,-0.037 0.398,-0.036 0.594,0.002c2.067,0.315 4.899,4.061 5.014,4.224c0.036,0.046 0.055,0.101 0.055,0.158c0,0.057 -0.019,0.112 -0.055,0.157c-0.037,0.043 -0.084,0.076 -0.139,0.095c-0.054,0.019 -0.113,0.024 -0.17,0.014c-1.214,-0.291 -2.398,-0.684 -3.54,-1.173zm-0.765,-2.791c-0.166,-0.077 -0.343,-0.128 -0.525,-0.152c-0.115,-0.03 -0.235,-0.034 -0.352,-0.014c-0.116,0.021 -0.226,0.067 -0.322,0.133c-0.343,0.228 -0.354,0.402 -0.32,0.522c0.183,0.901 2.946,2.117 5.105,2.769c-0.964,-1.305 -2.181,-2.421 -3.586,-3.291l0,0.033z" fill="#8CD0D4" id="svg_116"/>
  <path d="m316.70484,385.01384c-0.033,0.013 -0.069,0.013 -0.102,0c-1.04,-1.086 -2.593,-4.529 -1.793,-5.604c0.16,-0.271 0.548,-0.521 1.302,-0.271c0.273,0.091 0.525,0.235 0.739,0.421c0.214,0.187 0.386,0.413 0.505,0.665c0.868,1.705 -0.194,4.648 -0.239,4.778c-0.017,0.047 -0.048,0.088 -0.088,0.118c-0.041,0.031 -0.089,0.05 -0.141,0.056c-0.041,-0.012 -0.079,-0.033 -0.111,-0.061c-0.032,-0.029 -0.056,-0.063 -0.072,-0.102zm-0.651,-5.43l-0.137,-0.076c-0.491,-0.174 -0.605,0 -0.651,0.054c-0.411,0.674 0.469,3.193 1.462,4.551c0.438,-1.24 0.466,-2.578 0.08,-3.834c-0.153,-0.312 -0.421,-0.559 -0.754,-0.695z" fill="#8CD0D4" id="svg_117"/>
  <path d="m318.56684,384.09084l11.968,5.202c0.212,0.092 0.387,0.249 0.496,0.445c0.11,0.196 0.148,0.422 0.109,0.641l-2.284,10.208c-0.046,0.217 -0.137,0.422 -0.267,0.605c-0.131,0.183 -0.298,0.34 -0.492,0.461c-0.194,0.121 -0.412,0.205 -0.64,0.245c-0.229,0.041 -0.463,0.038 -0.691,-0.008c-0.122,-0.021 -0.241,-0.058 -0.354,-0.108c-4.282,-1.944 -7.994,-3.845 -13.395,-6.169c-6.338,-2.758 -5.082,-1.336 -12.562,-4.485c-4.568,-1.9 -3.004,-7.113 -0.994,-6.516c9.227,2.758 11.34,0.641 16.137,-0.858c0.999,-0.245 2.058,-0.125 2.969,0.337z" fill="#263238" id="svg_118"/>
  <path opacity="0.2" d="m331.81384,386.26284l2.821,-4.463l-10.507,-6.104l-2.604,4.833l10.29,5.734z" fill="black" id="svg_119"/>
  <path d="m340.64184,381.75584l-17.998,-10.676c-0.819,0.435 -1.477,1.098 -1.886,1.901c-0.408,0.802 -0.547,1.705 -0.398,2.585l17.313,10.534c0,0 2.318,-0.141 2.969,-4.344z" fill="#8CD0D4" id="svg_120"/>
  <path d="m365.26284,425.51084l-2.181,9.741l-11.123,-1.39l1.621,-10.816l11.683,2.465z" fill="#FAB27B" id="svg_121"/>
  <path d="m346.30584,433.88384c-1.45,-0.141 -2.924,-0.532 -3.346,-1.173c-0.092,-0.174 -0.128,-0.369 -0.104,-0.563c0.024,-0.193 0.108,-0.375 0.241,-0.523c0.228,-0.285 0.564,-0.476 0.936,-0.532c1.999,-0.326 5.847,2.259 6.019,2.378c0.045,0.032 0.08,0.076 0.098,0.126c0.018,0.051 0.02,0.105 0.005,0.157c-0.018,0.052 -0.051,0.098 -0.096,0.133c-0.044,0.035 -0.098,0.056 -0.156,0.062c-1.199,0.076 -2.402,0.054 -3.597,-0.065zm-1.633,-2.335c-0.178,-0.027 -0.359,-0.027 -0.537,0c-0.115,0.009 -0.227,0.041 -0.328,0.096c-0.101,0.054 -0.187,0.129 -0.254,0.219c-0.24,0.315 -0.183,0.478 -0.114,0.576c0.468,0.771 3.426,1.086 5.607,1.01c-1.317,-0.898 -2.801,-1.55 -4.374,-1.923l0,0.022z" fill="#8CD0D4" id="svg_122"/>
  <path d="m349.86884,433.88384c-0.037,0.011 -0.077,0.011 -0.114,0c-1.336,-0.728 -3.894,-3.389 -3.518,-4.616c0.058,-0.304 0.332,-0.64 1.142,-0.64c0.277,-0.004 0.551,0.046 0.807,0.146c0.255,0.101 0.486,0.251 0.678,0.44c1.37,1.303 1.37,4.344 1.37,4.463c0.001,0.048 -0.013,0.095 -0.039,0.135c-0.026,0.04 -0.064,0.073 -0.109,0.094c-0.035,0.016 -0.073,0.022 -0.112,0.018c-0.038,-0.004 -0.075,-0.018 -0.105,-0.04zm-2.398,-4.757l-0.149,0c-0.502,0 -0.559,0.185 -0.582,0.25c-0.149,0.749 1.496,2.802 2.855,3.747c-0.007,-1.27 -0.426,-2.506 -1.199,-3.541c-0.246,-0.241 -0.574,-0.391 -0.925,-0.423l0,-0.033z" fill="#8CD0D4" id="svg_123"/>
  <path d="m351.26184,432.42884l12.733,1.194c0.235,0.021 0.454,0.118 0.622,0.274c0.169,0.156 0.276,0.362 0.303,0.584l1.291,10.067c0.055,0.429 -0.07,0.861 -0.348,1.203c-0.278,0.341 -0.686,0.565 -1.137,0.622c-0.121,0.011 -0.244,0.011 -0.365,0c-4.568,-0.511 -8.645,-1.086 -14.355,-1.651c-6.749,-0.63 -5.116,0.293 -13.065,-0.337c-4.785,-0.39 -5.127,-5.636 -3.071,-5.701c9.387,-0.239 10.632,-2.813 14.526,-5.636c0.844,-0.531 1.863,-0.751 2.866,-0.619z" fill="#263238" id="svg_124"/>
  <path opacity="0.2" d="m352.72384,428.73584l11.626,0.858l0.913,-4.083l-11.682,-2.465l-0.857,5.69z" fill="black" id="svg_125"/>
  <path d="m368.56284,421.65584l-0.331,1.227l-17.05,-1.282l0.183,-1.227l17.198,1.282z" fill="#263238" id="svg_126"/>
  <path d="m369.25984,426.73784l-4.202,-0.358l-11.831,-1.01l-3.815,-0.326c-0.542,-0.694 -0.849,-1.528 -0.879,-2.391c-0.031,-0.864 0.216,-1.715 0.708,-2.442l2.124,0.163l17.199,1.281l1.233,0.098c1.427,3.899 -0.537,4.985 -0.537,4.985z" fill="#8CD0D4" id="svg_127"/>
  <path d="m438.48784,359.03684c-15.428,1.292 -51.013,1.835 -55.832,1.162l-14.092,61.457l-17.199,-1.282c0,0 1.816,-53.138 9.399,-75.108c6.098,-17.658 103.648,-13.998 103.648,-13.998l0.342,4.974c0.674,17.137 -8.599,21.307 -26.266,22.795z" fill="#263238" id="svg_128"/>
  <path opacity="0.1" d="m438.48784,359.03684c-15.428,1.292 -51.013,1.835 -55.832,1.162l-14.092,61.457l-17.199,-1.282c0,0 1.816,-53.138 9.399,-75.108c6.098,-17.658 103.648,-13.998 103.648,-13.998l0.342,4.974c0.674,17.137 -8.599,21.307 -26.266,22.795z" fill="black" id="svg_129"/>
  <path d="m360.48884,351.68484c-0.005,-0.098 -0.005,-0.196 0,-0.293l0,0.293z" fill="#263238" id="svg_130"/>
  <path d="m361.64284,343.74584l-0.171,1.205c0.033,-0.404 0.09,-0.807 0.171,-1.205z" fill="#263238" id="svg_131"/>
  <path d="m416.25284,247.73284l4.74,6.581l10.655,-8.666l-6.658,-7.776l-8.737,9.861z" fill="#FAB27B" id="svg_132"/>
  <path opacity="0.2" d="m418.62884,250.84984c2.055,-2.878 1.142,-7.342 1.142,-7.342l-1.873,2.27l-1.622,1.955l2.353,3.117z" fill="black" id="svg_133"/>
  <path d="m398.02684,233.23484c0.229,0.64 0.777,1.086 1.222,0.89c0.446,-0.195 0.64,-0.836 0.4,-1.455c-0.24,-0.619 -0.765,-1.086 -1.222,-0.88c-0.457,0.206 -0.617,0.804 -0.4,1.445z" fill="#263238" id="svg_134"/>
  <path d="m400.49384,233.42984l-1.508,6.147c0.763,0.151 1.552,0.132 2.305,-0.057c0.753,-0.188 1.45,-0.541 2.035,-1.029l-2.832,-5.061z" fill="#ED893E" id="svg_135"/>
  <path d="m397.35284,228.74984c0.055,-0.027 0.116,-0.041 0.177,-0.041c0.062,0 0.122,0.014 0.177,0.041c0.432,0.172 0.9,0.244 1.367,0.21c0.467,-0.034 0.918,-0.173 1.317,-0.406c0.038,-0.029 0.082,-0.05 0.13,-0.062c0.047,-0.012 0.096,-0.014 0.144,-0.007c0.049,0.007 0.095,0.024 0.136,0.049c0.041,0.025 0.077,0.057 0.104,0.096c0.055,0.079 0.076,0.174 0.059,0.267c-0.017,0.093 -0.071,0.176 -0.151,0.233c-0.499,0.317 -1.075,0.51 -1.673,0.561c-0.599,0.051 -1.201,-0.041 -1.753,-0.268c-0.046,-0.017 -0.089,-0.042 -0.125,-0.075c-0.037,-0.033 -0.066,-0.072 -0.086,-0.115c-0.02,-0.044 -0.031,-0.091 -0.032,-0.138c-0.001,-0.048 0.008,-0.095 0.026,-0.139c0.039,-0.084 0.103,-0.156 0.183,-0.206z" fill="#263238" id="svg_136"/>
  <path d="m423.34484,222.11384c3.426,8.395 5.128,11.881 2.775,18.082c-4.625,7.33 -15.28,11.783 -21.355,4.594c-5.459,-6.516 -10.198,-19.081 -3.278,-26.281c2.311,-2.467 5.554,-3.965 9.021,-4.169c3.467,-0.203 6.879,0.905 9.491,3.083c1.495,1.285 2.643,2.895 3.346,4.691z" fill="#FAB27B" id="svg_137"/>
  <path d="m431.70484,224.61184c-0.482,2.817 -0.776,5.661 -0.88,8.514c-0.081,2.633 -0.987,5.183 -2.6,7.324c-1.613,2.142 -3.861,3.777 -6.456,4.698c0,0 -12.448,-0.141 -17.735,-15.03c-1.463,0.131 -2.937,-0.082 -4.293,-0.62c-1.355,-0.539 -2.551,-1.386 -3.481,-2.468c-0.93,-1.082 -1.565,-2.365 -1.851,-3.735c-0.285,-1.371 -0.211,-2.787 0.215,-4.124c1.016,-3.171 5.23,-5.148 8.713,-5.267c1.142,-1.411 2.631,-2.532 4.335,-3.267c1.705,-0.735 3.573,-1.06 5.441,-0.947c3.767,0.29 7.406,1.438 10.609,3.345c2.892,1.376 5.338,3.47 7.08,6.06c0.931,1.694 1.248,3.633 0.903,5.517z" fill="#263238" id="svg_138"/>
  <path d="m406.62584,231.88784c-0.394,0.839 -0.61,1.745 -0.633,2.664c-0.024,0.919 0.145,1.833 0.496,2.69c0.96,2.27 3.518,1.89 4.991,0c1.336,-1.727 2.421,-4.963 0.617,-6.636c-1.805,-1.672 -4.477,-0.781 -5.471,1.282z" fill="#FAB27B" id="svg_139"/>
  <path d="m431.73884,240.74984c-3.426,0.141 -8.485,2.345 -15.246,6.776c-0.353,0.292 -0.622,0.664 -0.782,1.082c-0.16,0.418 -0.205,0.868 -0.131,1.308c0.08,0.868 0.993,1.683 1.861,1.411c0.446,1.086 0.743,2.281 1.142,3.323c2.113,-1.024 4.305,-1.895 6.555,-2.606c3.409,-1.292 6.899,-2.38 10.45,-3.258c-0.948,-1.379 -2.216,-2.726 -2.593,-4.344c0.4,-0.169 0.726,-0.465 0.92,-0.838c0.194,-0.373 0.244,-0.799 0.142,-1.204c-0.194,-0.448 -0.512,-0.838 -0.92,-1.128c-0.408,-0.291 -0.891,-0.471 -1.398,-0.522z" fill="#8CD0D4" id="svg_140"/>
  <path d="m431.73884,240.74984c-3.426,0.141 -8.485,2.345 -15.246,6.776c-0.353,0.292 -0.622,0.664 -0.782,1.082c-0.16,0.418 -0.205,0.868 -0.131,1.308c0.08,0.868 0.993,1.683 1.861,1.411c0.446,1.086 0.743,2.281 1.142,3.323c2.113,-1.024 4.305,-1.895 6.555,-2.606c3.409,-1.292 6.899,-2.38 10.45,-3.258c-0.948,-1.379 -2.216,-2.726 -2.593,-4.344c0.4,-0.169 0.726,-0.465 0.92,-0.838c0.194,-0.373 0.244,-0.799 0.142,-1.204c-0.194,-0.448 -0.512,-0.838 -0.92,-1.128c-0.408,-0.291 -0.891,-0.471 -1.398,-0.522z" fill="#8CD0D4" id="svg_141"/>
  <path d="m421.71184,323.93684c-7.247,-16.494 -13.414,-33.399 -18.466,-50.618c-5.299,-18.81 9.833,-19.136 28.094,-23.805c14.48,-3.704 20.67,-0.391 24.804,6.592c4.134,6.983 10.803,66.083 10.803,66.083l-45.235,1.748z" fill="#8CD0D4" id="svg_142"/>
  <path d="m421.71184,323.93684c-7.247,-16.494 -13.414,-33.399 -18.466,-50.618c-5.299,-18.81 9.833,-19.136 28.094,-23.805c14.48,-3.704 20.67,-0.391 24.804,6.592c4.134,6.983 10.803,66.083 10.803,66.083l-45.235,1.748z" fill="#8CD0D4" id="svg_143"/>
  <path opacity="0.3" d="m421.71184,323.93684c-7.247,-16.494 -13.414,-33.399 -18.466,-50.618c-5.299,-18.81 9.833,-19.136 28.094,-23.805c14.48,-3.704 20.67,-0.391 24.804,6.592c4.134,6.983 10.803,66.083 10.803,66.083l-45.235,1.748z" fill="black" id="svg_144"/>
  <path d="m355.65884,296.83084l-1.279,0c-0.57,0.021 -1.119,0.21 -1.571,0.541c-0.452,0.33 -0.785,0.787 -0.953,1.305l-0.263,0.804c-0.135,0.403 -0.164,0.832 -0.085,1.248c0.08,0.417 0.266,0.809 0.542,1.141c1.725,2.031 5.927,5.962 12.105,4.92l5.265,-2.542l0.343,-6.081l-9.388,-2.943c-0.59,-0.077 -1.191,0.03 -1.713,0.304l-3.003,1.303z" fill="#FAB27B" id="svg_145"/>
  <path d="m369.44284,304.29184l12.973,1.552l-0.754,-6.993l-11.877,-0.641l-0.342,6.082z" fill="#FAB27B" id="svg_146"/>
  <path d="m378.49884,298.36184c-0.726,0.856 -1.128,1.92 -1.142,3.019c-0.079,1.739 0.339,3.465 1.211,4.996c-2.175,-0.336 -4.402,-0.195 -6.51,0.412l-0.114,0c-5.893,-5.484 -1.062,-9.991 -1.062,-9.991l0.434,0.131c2.336,0.713 4.743,1.193 7.183,1.433z" fill="#8CD0D4" id="svg_147"/>
  <path d="m403.75984,308.27684c-12.436,0.608 -27.248,-2.172 -27.248,-2.172c-0.346,-0.868 -0.402,-1.816 -0.16,-2.715c0.468,-1.89 1.142,-4.224 2.09,-5.061c0.948,-0.836 6.144,-0.478 6.144,-0.478c0,0 10.803,-2.736 12.962,-3.855c2.158,-1.118 3.334,-7.808 3.791,-12.326c2.524,-24.109 7.252,-25.152 11.42,-25.554c8.736,-0.825 2.01,51.629 -8.999,52.161z" fill="#8CD0D4" id="svg_148"/>
  <path d="m444.73484,445.61284l-8.622,-68.527c-0.422,-3.35 -2.12,-6.437 -4.774,-8.676c-2.654,-2.24 -6.079,-3.476 -9.627,-3.476l-28.447,0c-3.448,-0.012 -6.788,1.149 -9.414,3.275c-2.627,2.125 -4.367,5.073 -4.907,8.312l-11.602,68.223l-2.284,-0.348l11.614,-68.2c0.624,-3.749 2.638,-7.161 5.677,-9.621c3.038,-2.46 6.902,-3.805 10.893,-3.792l28.493,0c4.106,0.004 8.068,1.436 11.14,4.027c3.071,2.591 5.04,6.161 5.533,10.037l8.622,68.527l-2.295,0.239z" fill="#263238" id="svg_149"/>
  <path d="m484.63584,445.61284l-8.622,-68.527c-0.422,-3.35 -2.12,-6.437 -4.774,-8.676c-2.654,-2.24 -6.078,-3.476 -9.626,-3.476l-28.493,0c-3.449,-0.014 -6.79,1.146 -9.417,3.272c-2.627,2.126 -4.366,5.075 -4.904,8.315l-11.614,68.223l-2.284,-0.348l11.614,-68.2c0.622,-3.75 2.635,-7.163 5.674,-9.623c3.04,-2.461 6.905,-3.805 10.896,-3.789l28.493,0c4.106,0.003 8.068,1.435 11.14,4.026c3.072,2.591 5.04,6.161 5.534,10.037l8.622,68.527l-2.239,0.239z" fill="#263238" id="svg_150"/>
  <path d="m408.48784,425.65184l-39.228,0l0,2.172l39.228,0l0,-2.172z" fill="#263238" id="svg_151"/>
  <path d="m477.85284,375.86984l-40.553,0l0,2.172l40.553,0l0,-2.172z" fill="#263238" id="svg_152"/>
  <path d="m444.73484,365.40084l29.841,0c5.548,0 10.892,-1.989 14.966,-5.57c4.075,-3.581 6.58,-8.49 7.017,-13.75l4.248,-50.977c0.162,-1.951 -0.101,-3.912 -0.773,-5.761c-0.672,-1.849 -1.738,-3.547 -3.132,-4.986c-1.393,-1.44 -3.084,-2.59 -4.967,-3.379c-1.882,-0.79 -3.916,-1.201 -5.974,-1.208l-16.559,0c-9.369,0 -18.487,2.876 -26,8.2c-7.512,5.324 -13.016,12.812 -15.694,21.35l-11.42,36.392c-0.931,2.973 -2.846,5.58 -5.462,7.433c-2.616,1.854 -5.791,2.854 -9.053,2.851l-20.876,0c-2.621,0.003 -5.133,0.995 -6.985,2.758c-1.853,1.764 -2.893,4.154 -2.893,6.647l73.716,0z" fill="#8CD0D4" id="svg_153"/>
  <path opacity="0.7" d="m444.73484,365.40084l29.841,0c5.548,0 10.892,-1.989 14.966,-5.57c4.075,-3.581 6.58,-8.49 7.017,-13.75l4.248,-50.977c0.162,-1.951 -0.101,-3.912 -0.773,-5.761c-0.672,-1.849 -1.738,-3.547 -3.132,-4.986c-1.393,-1.44 -3.084,-2.59 -4.967,-3.379c-1.882,-0.79 -3.916,-1.201 -5.974,-1.208l-16.559,0c-9.369,0 -18.487,2.876 -26,8.2c-7.512,5.324 -13.016,12.812 -15.694,21.35l-11.42,36.392c-0.931,2.973 -2.846,5.58 -5.462,7.433c-2.616,1.854 -5.791,2.854 -9.053,2.851l-20.876,0c-2.621,0.003 -5.133,0.995 -6.985,2.758c-1.853,1.764 -2.893,4.154 -2.893,6.647l73.716,0z" fill="white" id="svg_154"/>
  <path d="m415.14584,189.46784l0,-0.118c0.004,0.039 0.004,0.079 0,0.118z" fill="#8CD0D4" id="svg_155"/>
  <path d="m361.36884,175.71984c-3.909,3.426 -6.77,7.794 -8.28,12.641l-2.089,0c0.722,-5.456 2.87,-10.653 6.246,-15.117l4.123,2.476z" fill="#8CD0D4" id="svg_156"/>
  <path opacity="0.6" d="m361.36884,175.71984c-3.909,3.426 -6.77,7.794 -8.28,12.641l-2.089,0c0.722,-5.456 2.87,-10.653 6.246,-15.117l4.123,2.476z" fill="white" id="svg_157"/>
  <path d="m373.47384,169.21484c-4.523,1.224 -8.674,3.458 -12.105,6.516l-4.123,-2.487c3.365,-4.477 7.795,-8.135 12.928,-10.675l3.3,6.646z" fill="#8CD0D4" id="svg_158"/>
  <path opacity="0.5" d="m373.47384,169.21484c-4.523,1.224 -8.674,3.458 -12.105,6.516l-4.123,-2.487c3.365,-4.477 7.795,-8.135 12.928,-10.675l3.3,6.646z" fill="white" id="svg_159"/>
  <path d="m386.29884,158.90884l-1.016,9.698c-1.46,-0.242 -2.939,-0.362 -4.42,-0.359c-2.498,0.002 -4.983,0.328 -7.389,0.967l-3.3,-6.625c4.828,-2.405 10.195,-3.668 15.645,-3.681l0.48,0z" fill="#8CD0D4" id="svg_160"/>
  <path opacity="0.4" d="m386.29884,158.90884l-1.016,9.698c-1.46,-0.242 -2.939,-0.362 -4.42,-0.359c-2.498,0.002 -4.983,0.328 -7.389,0.967l-3.3,-6.625c4.828,-2.405 10.195,-3.668 15.645,-3.681l0.48,0z" fill="white" id="svg_161"/>
  <path d="m401.57884,163.02484l-6.658,9.285c-2.89,-1.89 -6.18,-3.154 -9.639,-3.703l1.017,-9.698c5.39,0.036 10.67,1.458 15.28,4.116z" fill="#8CD0D4" id="svg_162"/>
  <path opacity="0.3" d="m401.57884,163.02484l-6.658,9.285c-2.89,-1.89 -6.18,-3.154 -9.639,-3.703l1.017,-9.698c5.39,0.036 10.67,1.458 15.28,4.116z" fill="white" id="svg_163"/>
  <path d="m412.14184,173.97184l-10.392,5.289c-1.728,-2.762 -4.066,-5.133 -6.852,-6.951l6.658,-9.285c4.531,2.641 8.198,6.432 10.586,10.947z" fill="#8CD0D4" id="svg_164"/>
  <path opacity="0.2" d="m412.14184,173.97184l-10.392,5.289c-1.728,-2.762 -4.066,-5.133 -6.852,-6.951l6.658,-9.285c4.531,2.641 8.198,6.432 10.586,10.947z" fill="white" id="svg_165"/>
  <path d="m415.17984,189.06684l-10.164,-0.109c-0.318,-3.423 -1.434,-6.736 -3.266,-9.698l10.392,-5.288c2.437,4.675 3.487,9.894 3.038,15.095z" fill="#8CD0D4" id="svg_166"/>
  <path opacity="0.1" d="m415.17984,189.06684l-10.164,-0.109c-0.318,-3.423 -1.434,-6.736 -3.266,-9.698l10.392,-5.288c2.437,4.675 3.487,9.894 3.038,15.095z" fill="white" id="svg_167"/>
  <path d="m415.15684,189.34884c0.006,0.04 0.006,0.08 0,0.12c-0.41,3.398 -1.321,6.725 -2.706,9.882l-8.234,-1.77l0.662,-2.986c0.057,-0.391 0.114,-0.782 0.149,-1.173l0,-0.239c0.131,-1.405 0.131,-2.819 0,-4.225l10.163,0.109c0,0.065 0,0.109 0,0.163c-0.004,0.041 -0.016,0.081 -0.034,0.119z" fill="#8CD0D4" id="svg_168"/>
  <path d="m352.23284,198.73184l-0.605,0.131c-0.194,-0.75 -0.354,-1.51 -0.491,-2.281c-0.386,-2.353 -0.478,-4.74 -0.274,-7.113l0,-0.12c-0.006,-0.039 -0.006,-0.08 0,-0.119c0,-0.293 0.057,-0.597 0.102,-0.891l2.09,0c-0.485,1.575 -0.813,3.189 -0.982,4.822c0,0 0,0.076 0,0.12c0,0.043 0,0.076 0,0.119c-0.076,0.965 -0.095,1.933 -0.057,2.9c0.046,0.836 0.114,1.64 0.217,2.432z" fill="#8CD0D4" id="svg_169"/>
  <path opacity="0.7" d="m352.23284,198.73184l-0.605,0.131c-0.194,-0.75 -0.354,-1.51 -0.491,-2.281c-0.386,-2.353 -0.478,-4.74 -0.274,-7.113l0,-0.12c-0.006,-0.039 -0.006,-0.08 0,-0.119c0,-0.293 0.057,-0.597 0.102,-0.891l2.09,0c-0.485,1.575 -0.813,3.189 -0.982,4.822c0,0 0,0.076 0,0.12c0,0.043 0,0.076 0,0.119c-0.076,0.965 -0.095,1.933 -0.057,2.9c0.046,0.836 0.114,1.64 0.217,2.432z" fill="white" id="svg_170"/>
  <path d="m414.49484,197.13584l-0.868,2.042l-1.759,-0.369l-16.388,-3.53l-7.057,-1.52c0.49,-0.604 0.896,-1.264 1.21,-1.966c0.359,-0.819 0.575,-1.689 0.64,-2.574l15.645,5.115l8.577,2.802z" fill="#263238" id="svg_171"/>
  <path d="m390.27284,189.24084c-0.131,1.654 -0.775,3.233 -1.85,4.539l-6.338,-1.368l1.998,-5.191l6.19,2.02z" fill="#263238" id="svg_172"/>
  <path d="m390.27284,189.24084c-0.131,1.654 -0.775,3.234 -1.85,4.539c-0.787,0.956 -1.775,1.744 -2.901,2.314c-4.077,2.074 -8.885,0.771 -10.723,-2.933c-0.844,-1.906 -0.896,-4.045 -0.146,-5.986c0.751,-1.941 2.247,-3.539 4.188,-4.472c4.077,-2.074 8.885,-0.76 10.735,2.932c0.555,1.125 0.795,2.367 0.697,3.606z" fill="#8CD0D4" id="svg_173"/>
  <path d="m130.09084,184.64584l6.544,0l0,5.213l-7.195,0l-1.005,7.602l-5.71,0l1.005,-7.602l-7.389,0l-1.005,7.602l-5.595,0l1.005,-7.602l-6.59,0l0,-5.213l7.241,0l1.05,-7.743l-6.578,0l0,-5.213l7.241,0l1.005,-7.602l5.63,0l-1.005,7.602l7.377,0l1.005,-7.602l5.63,0l-1.005,7.602l6.532,0l0,5.213l-7.24,0l-0.948,7.743zm-5.71,0l1.051,-7.743l-7.309,0l-1.142,7.743l7.4,0z" fill="white" id="svg_174"/>
  <path d="m154.87184,164.03484l0,33.47l-8.142,0l0,-27.247l-7.035,0l0,-6.223l15.177,0z" fill="white" id="svg_175"/>
  <path d="m124.35784,303.22684l-56.3116,0l0,36.87l56.3116,0l0,-36.87z" fill="#263238" id="svg_176"/>
  <path d="m124.35784,303.22684l-56.3116,0l0,3.378l56.3116,0l0,-3.378z" fill="#8CD0D4" id="svg_177"/>
  <path d="m78.35844,323.62284l9.2159,4.854c0.3452,0.16 0.6552,0.381 0.9136,0.652c0.1614,0.214 0.2418,0.474 0.2284,0.738c0.0028,0.183 -0.0332,0.365 -0.1058,0.535c-0.0726,0.17 -0.1803,0.324 -0.3167,0.453c-0.1287,0.131 -0.2844,0.235 -0.4573,0.306c-0.1729,0.071 -0.3593,0.108 -0.5477,0.107c-0.4069,-0.046 -0.7975,-0.18 -1.142,-0.391l-11.8768,-6.288c-0.187,-0.091 -0.344,-0.23 -0.4536,-0.4c-0.1097,-0.171 -0.1677,-0.367 -0.1677,-0.566c0,-0.2 0.058,-0.396 0.1677,-0.567c0.1096,-0.17 0.2666,-0.309 0.4536,-0.4l11.8768,-6.288c0.3473,-0.204 0.7369,-0.333 1.142,-0.38c0.3818,0.006 0.746,0.153 1.0149,0.411c0.2689,0.258 0.4211,0.605 0.4241,0.968c0.0212,0.265 -0.06,0.527 -0.2284,0.739c-0.2542,0.277 -0.565,0.502 -0.9136,0.662l-9.2274,4.855z" fill="white" id="svg_178"/>
  <path d="m102.05484,314.57584l-9.1359,18.669c-0.1378,0.343 -0.352,0.654 -0.6281,0.912c-0.2452,0.188 -0.5526,0.288 -0.8679,0.282c-0.1872,0 -0.3725,-0.035 -0.5451,-0.104c-0.1726,-0.069 -0.3289,-0.17 -0.4598,-0.298c-0.1319,-0.112 -0.2377,-0.249 -0.3104,-0.402c-0.0728,-0.154 -0.111,-0.32 -0.1122,-0.488c0.0335,-0.379 0.1461,-0.749 0.3312,-1.086l9.1362,-18.658c0.139,-0.34 0.348,-0.65 0.616,-0.912c0.272,-0.199 0.61,-0.298 0.953,-0.278c0.342,0.02 0.665,0.157 0.909,0.387c0.132,0.112 0.238,0.249 0.311,0.402c0.073,0.154 0.111,0.32 0.111,0.488c-0.026,0.378 -0.131,0.747 -0.308,1.086z" fill="white" id="svg_179"/>
  <path d="m113.55484,323.62284l-9.25,-4.855c-0.354,-0.157 -0.669,-0.383 -0.925,-0.662c-0.16,-0.216 -0.24,-0.475 -0.228,-0.739c-0.003,-0.181 0.034,-0.36 0.109,-0.527c0.074,-0.166 0.185,-0.316 0.324,-0.439c0.129,-0.131 0.285,-0.235 0.458,-0.306c0.173,-0.071 0.359,-0.108 0.547,-0.107c0.406,0.045 0.796,0.175 1.142,0.38l11.877,6.288c0.187,0.091 0.344,0.23 0.454,0.4c0.11,0.171 0.168,0.367 0.168,0.567c0,0.199 -0.058,0.395 -0.168,0.566c-0.11,0.17 -0.267,0.309 -0.454,0.4l-11.877,6.288c-0.343,0.212 -0.734,0.346 -1.142,0.391c-0.19,0 -0.378,-0.036 -0.552,-0.107c-0.175,-0.071 -0.333,-0.175 -0.464,-0.306c-0.271,-0.264 -0.423,-0.619 -0.422,-0.988c-0.009,-0.263 0.071,-0.522 0.228,-0.738c0.261,-0.273 0.575,-0.494 0.925,-0.652l9.25,-4.854z" fill="white" id="svg_180"/>
 </g>

</svg>