<svg width="69" height="67" viewBox="0 0 69 67" fill="none" xmlns="http://www.w3.org/2000/svg">
<path d="M62.8682 10.9529L36.9932 0.484151C36.205 0.166659 35.36 0.00323486 34.5067 0.00323486C33.6534 0.00323486 32.8085 0.166659 32.0203 0.484151L6.14531 10.9529C3.73301 11.9213 2.15625 14.2113 2.15625 16.75C2.15625 42.7256 17.5869 60.6795 32.0068 66.5158C33.5971 67.157 35.3895 67.157 36.9797 66.5158C48.5291 61.8441 66.8438 45.7092 66.8438 16.75C66.8438 14.2113 65.267 11.9213 62.8682 10.9529ZM34.5135 58.4025L34.5 8.54509L58.2053 18.1371C57.7605 37.9492 47.141 52.3045 34.5135 58.4025Z" fill="white"/>
</svg>
