<svg width="90" height="67" viewBox="0 0 90 67" fill="none" xmlns="http://www.w3.org/2000/svg">
<path d="M82.5188 39.4304L89.9052 12.2117C90.4384 10.2464 88.6548 8.375 86.2484 8.375H24.8762L23.4441 2.51119C23.0872 1.04962 21.5516 0 19.7702 0H3.75C1.67891 0 0 1.40608 0 3.14062V5.23438C0 6.96892 1.67891 8.375 3.75 8.375H14.6692L25.6455 53.3167C23.0195 54.5814 21.25 56.9529 21.25 59.6719C21.25 63.7191 25.1675 67 30 67C34.8325 67 38.75 63.7191 38.75 59.6719C38.75 57.6208 37.7427 55.7677 36.1213 54.4375H68.8786C67.2573 55.7677 66.25 57.6208 66.25 59.6719C66.25 63.7191 70.1675 67 75 67C79.8325 67 83.75 63.7191 83.75 59.6719C83.75 56.7705 81.7363 54.2632 78.8158 53.0759L79.6778 49.8992C80.2111 47.9339 78.4275 46.0625 76.0211 46.0625H34.0808L33.0581 41.875H78.862C80.613 41.875 82.1308 40.8603 82.5188 39.4304Z" fill="white"/>
</svg>
