<svg width="80" height="68" viewBox="0 0 80 68" fill="none" xmlns="http://www.w3.org/2000/svg">
<path d="M78.1816 15.7516L69.753 1.99219C68.9997 0.757031 67.6621 0 66.2335 0H13.766C12.3374 0 10.9997 0.757031 10.2465 1.99219L1.81792 15.7516C-2.53273 22.857 1.32442 32.7383 9.45429 33.8672C10.0387 33.9469 10.6361 33.9867 11.2335 33.9867C15.0777 33.9867 18.4803 32.2602 20.8179 29.5906C23.1556 32.2602 26.5712 33.9867 30.4023 33.9867C34.2465 33.9867 37.6491 32.2602 39.9868 29.5906C42.3244 32.2602 45.74 33.9867 49.5712 33.9867C53.4153 33.9867 56.8179 32.2602 59.1556 29.5906C61.5062 32.2602 64.9088 33.9867 68.74 33.9867C69.3504 33.9867 69.9348 33.9469 70.5192 33.8672C78.6751 32.7516 82.5452 22.8703 78.1816 15.7516ZM68.766 38.25C67.4673 38.25 66.1816 38.0508 64.9348 37.7453V51H15.0647V37.7453C13.8179 38.0375 12.5322 38.25 11.2335 38.25C10.4543 38.25 9.66208 38.1969 8.89584 38.0906C8.16857 37.9844 7.45428 37.8117 6.76597 37.6125V63.75C6.76597 66.1008 8.62312 68 10.9218 68H69.1036C71.4023 68 73.2595 66.1008 73.2595 63.75V37.6125C72.5582 37.825 71.8569 37.9977 71.1296 38.0906C70.3374 38.1969 69.5582 38.25 68.766 38.25Z" fill="white"/>
</svg>
