<svg width="473" height="339" viewBox="0 0 473 339" fill="none" xmlns="http://www.w3.org/2000/svg">
<g clip-path="url(#clip0_56:107)">
<path d="M429.405 0.220947H0.183273V250.473H429.405V0.220947Z" fill="#E6E6E6"/>
<path d="M430.674 39H26V243.059H430.674V39Z" fill="white"/>
<path d="M429.221 0H0V16.6004H429.221V0Z" fill="#E86409"/>
<path d="M13.5507 11.5637C15.4173 11.5637 16.9304 10.1862 16.9304 8.48691C16.9304 6.78767 15.4173 5.41016 13.5507 5.41016C11.6842 5.41016 10.171 6.78767 10.171 8.48691C10.171 10.1862 11.6842 11.5637 13.5507 11.5637Z" fill="white"/>
<path d="M26.3792 11.5637C28.2457 11.5637 29.7589 10.1862 29.7589 8.48691C29.7589 6.78767 28.2457 5.41016 26.3792 5.41016C24.5126 5.41016 22.9995 6.78767 22.9995 8.48691C22.9995 10.1862 24.5126 11.5637 26.3792 11.5637Z" fill="white"/>
<path d="M39.2077 11.5637C41.0742 11.5637 42.5874 10.1862 42.5874 8.48691C42.5874 6.78767 41.0742 5.41016 39.2077 5.41016C37.3411 5.41016 35.828 6.78767 35.828 8.48691C35.828 10.1862 37.3411 11.5637 39.2077 11.5637Z" fill="white"/>
<path d="M153.209 52.7822H49.227V214.496H153.209V52.7822Z" fill="#E6E6E6"/>
<path d="M257.81 52.7822H171.159V97.2957H257.81V52.7822Z" fill="#E86409"/>
<path d="M257.81 109.692H171.159V157.586H257.81V109.692Z" fill="#E6E6E6"/>
<path d="M257.81 169.982H171.159V214.496H257.81V169.982Z" fill="#E6E6E6"/>
<path d="M380.361 52.7822H276.379V123.256H380.361V52.7822Z" fill="#E6E6E6"/>
<path d="M380.361 144.022H276.379V214.496H380.361V144.022Z" fill="#E6E6E6"/>
<path d="M340.303 128.319V113.147C340.303 107.755 342.656 102.584 346.844 98.7711C351.032 94.9584 356.713 92.8164 362.636 92.8164C368.559 92.8164 374.239 94.9584 378.427 98.7711C382.615 102.584 384.968 107.755 384.968 113.147V128.319C384.967 129.043 384.651 129.737 384.088 130.249C383.526 130.761 382.763 131.049 381.968 131.05H343.303C342.508 131.049 341.745 130.761 341.183 130.249C340.621 129.737 340.304 129.043 340.303 128.319Z" fill="#2F2E41"/>
<path d="M395.658 325.765L387.781 327.75L375.624 301.036L387.25 298.107L395.658 325.765Z" fill="#FFB8B8"/>
<path d="M381.532 327.119L396.723 323.291L399.37 331.999L374.614 338.236C374.267 337.092 374.17 335.898 374.329 334.72C374.489 333.543 374.902 332.405 375.544 331.373C376.186 330.341 377.046 329.434 378.073 328.704C379.101 327.974 380.276 327.435 381.532 327.119Z" fill="#2F2E41"/>
<path d="M313.538 331.281H305.365L301.476 302.583H313.539L313.538 331.281Z" fill="#FFB8B8"/>
<path d="M299.527 329.155H315.289V338.19H289.603C289.603 337.003 289.859 335.828 290.358 334.732C290.857 333.636 291.588 332.64 292.509 331.801C293.431 330.962 294.525 330.297 295.729 329.843C296.933 329.389 298.223 329.155 299.527 329.155Z" fill="#2F2E41"/>
<path d="M303.682 170.896C304.266 171.613 305.015 172.205 305.876 172.63C306.738 173.055 307.692 173.302 308.67 173.356C309.648 173.409 310.627 173.266 311.539 172.937C312.45 172.608 313.27 172.102 313.943 171.453L335.669 180.349L333.693 169.224L313.365 162.482C312.093 161.525 310.479 161.027 308.83 161.08C307.181 161.134 305.612 161.737 304.418 162.774C303.225 163.811 302.491 165.211 302.355 166.708C302.219 168.205 302.692 169.695 303.682 170.896H303.682Z" fill="#FFB8B8"/>
<path d="M348.823 237.798C341.997 237.798 334.931 236.872 328.991 234.119C325.839 232.687 323.044 230.677 320.784 228.216C318.523 225.755 316.844 222.896 315.853 219.818C312.758 210.897 316.66 202.133 320.434 193.658C322.772 188.406 324.98 183.446 325.554 178.557L325.754 176.821C326.646 169.024 327.417 162.29 331.685 159.764C333.897 158.455 336.871 158.381 340.778 159.536L377.473 170.387L376.124 233.801L375.901 233.868C375.709 233.927 362.773 237.798 348.823 237.798Z" fill="#2F2E41"/>
<path d="M340.137 139.794C340.137 139.794 358.136 134.939 372.135 136.76C372.135 136.76 364.136 176.814 366.802 190.165C369.469 203.517 320.471 195.324 330.47 182.579L333.804 167.407C333.804 167.407 327.137 161.338 333.137 154.056L340.137 139.794Z" fill="#E86409"/>
<path d="M331.284 236.596L309.1 232.809L316.845 178.55C317.366 177.035 329.363 142.657 334.812 140.797C338.768 139.529 342.814 138.505 346.922 137.734L347.712 137.591L343.264 143.665L325.555 182.295L331.284 236.596Z" fill="#2F2E41"/>
<path d="M319.725 324.632L291.063 320.283L307.148 260.491L331.082 178.721L331.318 180.173C331.337 180.282 333.573 190.964 366.751 186.224L367.042 186.182L367.123 186.441L407.222 315.426L374.564 320.381L344.776 226.274L319.725 324.632Z" fill="#2F2E41"/>
<path d="M359.451 246.75L359.469 246.291C359.489 245.781 361.461 195.087 360.803 174.699C360.142 154.241 367.417 136.525 367.49 136.349L367.55 136.206L367.71 136.164C377.123 133.716 385.289 141.023 385.37 141.097L385.485 141.201L382.804 161.335L394.281 234.55L359.451 246.75Z" fill="#2F2E41"/>
<path d="M358.047 130.697C367.089 130.697 374.42 124.023 374.42 115.791C374.42 107.559 367.089 100.885 358.047 100.885C349.004 100.885 341.673 107.559 341.673 115.791C341.673 124.023 349.004 130.697 358.047 130.697Z" fill="#FFB8B8"/>
<path d="M335.02 114.361C335.025 110.097 336.888 106.009 340.2 102.994C343.512 99.9791 348.002 98.2831 352.686 98.2783H356.019C360.703 98.2831 365.193 99.9791 368.505 102.994C371.817 106.009 373.68 110.097 373.685 114.361V114.664H366.641L364.238 108.54L363.758 114.664H360.117L358.905 111.574L358.663 114.664H335.02V114.361Z" fill="#2F2E41"/>
<path d="M356.435 132.756C356.105 132.348 355.907 131.864 355.866 131.359C355.824 130.853 355.94 130.347 356.2 129.9C359.733 123.783 364.678 112.482 358.114 105.512L357.642 105.011H376.699V131.059L359.387 133.839C359.212 133.868 359.034 133.882 358.856 133.882C358.384 133.882 357.918 133.78 357.497 133.584C357.076 133.389 356.712 133.105 356.435 132.756Z" fill="#2F2E41"/>
<path d="M279.707 25.2137C266.372 14.9697 250.053 8.4752 232.737 6.52038C215.421 4.56555 197.854 7.23472 182.174 14.2031C166.494 21.1714 153.377 32.1385 144.419 45.7698C135.461 59.4012 131.048 75.1089 131.718 90.9818C132.387 106.855 138.11 122.208 148.189 135.174C158.269 148.14 172.271 158.159 188.492 164.013C204.713 169.866 222.453 171.302 239.553 168.144C256.653 164.986 272.377 157.372 284.81 146.227L395.217 231.038C396.897 232.331 399.072 232.963 401.264 232.796C403.457 232.629 405.486 231.676 406.906 230.147C408.327 228.617 409.021 226.637 408.838 224.641C408.654 222.646 407.607 220.798 405.927 219.505L405.915 219.496L295.508 134.686C308.334 117.928 313.823 97.4136 310.9 77.1633C307.977 56.9129 296.853 38.3862 279.707 25.2137ZM272.59 126.519C263.988 135.799 252.558 142.548 239.743 145.914C226.928 149.279 213.305 149.11 200.596 145.427C187.887 141.744 176.662 134.713 168.343 125.223C160.023 115.733 154.982 104.21 153.856 92.1111C152.73 80.0125 155.57 67.8817 162.018 57.2526C168.465 46.6235 178.229 37.9736 190.077 32.3968C201.924 26.8199 215.322 24.5665 228.576 25.9215C241.83 27.2765 254.345 32.1791 264.539 40.0093H264.539C271.307 45.2084 276.884 51.5701 280.952 58.7314C285.019 65.8926 287.498 73.7131 288.245 81.7462C288.993 89.7794 287.995 97.8679 285.309 105.55C282.623 113.232 278.301 120.357 272.59 126.519Z" fill="#3F3D56"/>
<path opacity="0.3" d="M177.562 133.848C164.625 123.91 156.267 109.906 154.147 94.6166C152.027 79.3277 156.301 63.8722 166.119 51.3188C164.829 52.501 163.583 53.739 162.379 55.0329C156.668 61.1944 152.346 68.3197 149.66 76.0018C146.974 83.6839 145.976 91.7724 146.724 99.8056C147.471 107.839 149.95 115.659 154.017 122.82C158.085 129.982 163.662 136.343 170.43 141.543C177.198 146.742 185.025 150.676 193.464 153.122C201.902 155.567 210.787 156.475 219.611 155.795C228.435 155.114 237.026 152.858 244.892 149.155C252.759 145.452 259.747 140.375 265.458 134.214C266.658 132.918 267.789 131.591 268.85 130.233C256.909 141.156 240.893 147.591 223.981 148.26C207.07 148.93 190.5 143.785 177.562 133.848Z" fill="black"/>
<path d="M363.303 196.955C364.255 197.167 365.247 197.186 366.208 197.011C367.169 196.837 368.076 196.472 368.866 195.944C369.656 195.415 370.308 194.736 370.778 193.953C371.248 193.17 371.524 192.303 371.586 191.412L394.54 185.612L385.209 178.206L364.842 184.85C363.192 184.854 361.601 185.409 360.371 186.41C359.14 187.411 358.356 188.788 358.166 190.28C357.977 191.772 358.395 193.276 359.342 194.506C360.289 195.736 361.698 196.607 363.303 196.955Z" fill="#FFB8B8"/>
<path d="M372.844 193.885L371.447 181.804L390.621 172.173L378.12 158.397L380.16 142.922L385.24 140.94L385.398 141.125C387.793 143.929 408.8 168.605 408.8 171.655C408.8 174.788 404.781 183.989 399.283 186.492C393.979 188.906 374.064 193.598 373.218 193.797L372.844 193.885Z" fill="#2F2E41"/>
<path d="M472.333 339H218.345C218.168 339 217.999 338.936 217.874 338.822C217.749 338.709 217.678 338.554 217.678 338.393C217.678 338.232 217.749 338.078 217.874 337.964C217.999 337.85 218.168 337.786 218.345 337.786H472.333C472.51 337.786 472.68 337.85 472.805 337.964C472.93 338.078 473 338.232 473 338.393C473 338.554 472.93 338.709 472.805 338.822C472.68 338.936 472.51 339 472.333 339Z" fill="#CCCCCC"/>
</g>
<defs>
<clipPath id="clip0_56:107">
<rect width="473" height="339" fill="white"/>
</clipPath>
</defs>
</svg>
