<svg width="376" height="248" viewBox="0 0 376 248" fill="none" xmlns="http://www.w3.org/2000/svg">
<g clip-path="url(#clip0_44:133)">
<path d="M275.865 0.143372H0.117615V162.304H275.865V0.143372Z" fill="#E6E6E6"/>
<path d="M267.98 20.4822H8.00269V152.71H267.98V20.4822Z" fill="white"/>
<path d="M275.748 0H0V10.7567H275.748V0Z" fill="#008f97"/>
<path d="M8.70579 7.49359C9.90503 7.49359 10.8772 6.60091 10.8772 5.49973C10.8772 4.39854 9.90503 3.50586 8.70579 3.50586C7.50654 3.50586 6.53436 4.39854 6.53436 5.49973C6.53436 6.60091 7.50654 7.49359 8.70579 7.49359Z" fill="white"/>
<path d="M16.9471 7.49359C18.1464 7.49359 19.1185 6.60091 19.1185 5.49973C19.1185 4.39854 18.1464 3.50586 16.9471 3.50586C15.7479 3.50586 14.7757 4.39854 14.7757 5.49973C14.7757 6.60091 15.7479 7.49359 16.9471 7.49359Z" fill="white"/>
<path d="M25.1884 7.49359C26.3876 7.49359 27.3598 6.60091 27.3598 5.49973C27.3598 4.39854 26.3876 3.50586 25.1884 3.50586C23.9891 3.50586 23.017 4.39854 23.017 5.49973C23.017 6.60091 23.9891 7.49359 25.1884 7.49359Z" fill="white"/>
<path d="M90.8375 31.3583H39.9897V82.0128H90.8375V31.3583Z" fill="#E6E6E6"/>
<path d="M163.415 31.3583H112.567V82.0128H163.415V31.3583Z" fill="#E6E6E6"/>
<path d="M235.992 31.3583H185.144V82.0128H235.992V31.3583Z" fill="#E6E6E6"/>
<path d="M90.8375 91.1814H39.9897V141.836H90.8375V91.1814Z" fill="#E6E6E6"/>
<path d="M163.415 91.1814H112.567V141.836H163.415V91.1814Z" fill="#E6E6E6"/>
<path d="M235.992 91.1814H185.144V141.836H235.992V91.1814Z" fill="#E6E6E6"/>
<path d="M124.857 104.2L134.147 100.827L135.228 117.69C135.228 117.69 137.172 122.848 136.524 124.832C136.524 124.832 136.956 128.205 135.876 128.404C134.795 128.602 131.77 128.999 131.556 128.8C131.342 128.601 131.34 128.006 131.34 128.006C131.34 128.006 129.179 129.395 128.963 130.982C128.963 130.982 119.889 133.561 119.673 131.18C119.457 128.8 124.21 126.816 124.21 126.816L127.883 121.658L124.857 104.2Z" fill="white"/>
<path d="M144.519 104.2L153.808 100.827L154.889 117.69C154.889 117.69 156.833 122.848 156.185 124.832C156.185 124.832 156.617 128.205 155.537 128.404C154.456 128.602 151.431 128.999 151.217 128.8C151.003 128.601 151.001 128.006 151.001 128.006C151.001 128.006 148.84 129.395 148.624 130.982C148.624 130.982 139.55 133.561 139.334 131.18C139.118 128.8 143.871 126.816 143.871 126.816L147.544 121.658L144.519 104.2Z" fill="white"/>
<path d="M145.427 39.0801C145.427 39.0801 143.449 44.1557 145.741 46.4445L143.83 52.474C143.83 52.474 150.619 71.1764 148.679 73.7888C148.679 73.7888 141.438 77.1136 126.952 72.6012L132.836 51.6426L131.996 42.7961L133.16 38.6399L135.746 38.4042C135.746 38.4042 134.194 43.7477 137.039 44.5791C139.884 45.4105 142.66 38.5378 142.66 38.5378L145.427 39.0801Z" fill="#3F3D56"/>
<path d="M54.07 71.844L56.5665 72.7818L68.4813 58.4029L72.2258 75.2823L74.7223 74.8656C76.3236 60.3132 77.6306 45.4701 76.0272 38.4497L66.7791 38.0849L62.5808 50.3815L60.5381 58.7171L54.07 71.844Z" fill="white"/>
<path d="M205.585 38.3347C205.585 38.3347 202.178 42.6837 202.344 44.4388C202.511 46.1939 204.671 74.8071 204.671 74.8071L209.74 75.036L208.243 54.4344L209.489 48.8644L212.564 74.8071L218.797 74.9598L213.229 41.3107L212.149 38.3351L205.585 38.3347Z" fill="white"/>
<path d="M224.841 108.399C223.936 107.402 222.381 106.864 220.888 106.572C220.931 106.448 216.347 105.578 216.269 105.757L214.541 104.493L209.23 107.025L206.246 105.159L204.86 105.611C204.916 105.386 200.557 106.08 200.557 106.08C199.724 106.107 198.66 106.155 197.469 106.239C193.3 106.534 192.979 116.45 192.979 116.45C194.897 115.729 196.943 115.336 199.015 115.29L200.142 127.15C205.938 126.694 212.018 127.225 218.319 128.524L221.274 119.201L228.155 116.744C228.155 116.744 226.979 110.755 224.841 108.399Z" fill="#3F3D56"/>
<path d="M77.1743 102.751C76.4288 101.93 75.1478 101.486 73.9174 101.246C73.9541 101.143 70.1754 100.427 70.1108 100.575L68.6866 99.5331L64.3117 101.619L61.8529 100.082L60.7109 100.455C60.7575 100.27 57.1653 100.841 57.1653 100.841C56.481 100.864 55.6025 100.903 54.6218 100.972C51.1861 101.215 50.9218 109.385 50.9218 109.385C52.5025 108.791 54.188 108.467 55.8955 108.429L56.824 132.351C61.6001 131.975 66.6093 132.413 71.7998 133.484L74.2343 111.652L79.9043 109.628C79.9043 109.628 78.936 104.693 77.1743 102.751Z" fill="white"/>
<path d="M320.538 109.119H344.917V97.141C344.917 94.1726 343.633 91.3256 341.347 89.2266C339.061 87.1276 335.96 85.9484 332.728 85.9484C329.495 85.9484 326.394 87.1276 324.108 89.2266C321.823 91.3256 320.538 94.1726 320.538 97.141V109.119Z" fill="#2F2E41"/>
<path d="M309.655 242.388H304.412L301.918 223.815H309.656L309.655 242.388Z" fill="#FFB6B6"/>
<path d="M310.993 240.816H300.666C298.921 240.816 297.247 241.453 296.013 242.586C294.779 243.719 294.086 245.256 294.086 246.858V247.055H310.993V240.816Z" fill="#2F2E41"/>
<path d="M372.336 235.963L367.77 238.33L355.654 223.284L362.394 219.791L372.336 235.963Z" fill="#FFB6B6"/>
<path d="M372.659 233.99L363.667 238.65C362.147 239.438 361.03 240.748 360.563 242.292C360.095 243.836 360.314 245.487 361.172 246.883L361.277 247.054L376 239.422L372.659 233.99Z" fill="#2F2E41"/>
<path d="M338.824 158.867L339.229 160.724C339.229 160.724 340.443 161.839 339.836 162.396C339.229 162.953 339.431 165.554 339.431 165.554C339.771 170.297 346.52 196.947 347.727 202.152C347.727 202.152 357.033 207.725 364.317 218.686C371.6 229.646 371.801 232.433 371.801 232.433L363.71 235.592L343.48 213.113C343.48 213.113 337.815 209.955 335.792 207.168C333.768 204.382 321.223 175.586 321.223 175.586L314.14 205.682C314.14 205.682 314.545 216.643 312.724 223.702C311.604 228.157 310.927 232.696 310.701 237.264L301.192 236.335C301.192 236.335 301.799 209.955 302.81 207.168C302.81 207.168 298.561 175.029 307.059 162.21L313.907 145.446L320.614 143.076L338.824 158.867Z" fill="#2F2E41"/>
<path d="M332.853 88.8765C320.088 89.0768 320.09 106.513 332.853 106.711C345.618 106.511 345.616 89.0748 332.853 88.8765Z" fill="#FFB8B8"/>
<path d="M323.029 97.3311H325.198L325.789 95.9746L325.494 97.3311H337.36L336.975 94.4928L339.859 97.3311H342.737V95.7931C342.738 94.605 342.484 93.4283 341.989 92.3303C341.495 91.2323 340.77 90.2344 339.856 89.3936C338.941 88.5529 337.856 87.8858 336.66 87.4303C335.465 86.9748 334.184 86.74 332.89 86.7391C331.596 86.7383 330.315 86.9715 329.119 87.4254C327.923 87.8793 326.837 88.545 325.921 89.3846C325.005 90.2241 324.279 91.2211 323.783 92.3185C323.287 93.4159 323.031 94.5922 323.03 95.7803V95.7931L323.029 97.3311Z" fill="#2F2E41"/>
<path d="M319.69 111.918L343.812 112.097L338.715 159.584C338.715 159.584 310.505 158.217 310.487 150.31L313.13 143.284L319.69 111.918Z" fill="#3F3D56"/>
<path d="M344.849 164.175C344.478 163.758 344.211 163.271 344.067 162.749C343.923 162.228 343.906 161.683 344.016 161.154C344.126 160.626 344.361 160.125 344.705 159.689C345.048 159.253 345.491 158.891 346.003 158.629L344.955 150.269L350.333 148.445L351.632 160.27C352.052 161.089 352.13 162.021 351.853 162.889C351.575 163.758 350.961 164.503 350.125 164.983C349.29 165.464 348.292 165.647 347.32 165.498C346.348 165.349 345.469 164.879 344.849 164.175Z" fill="#FFB6B6"/>
<path d="M340.64 116.188L343.814 112.114C343.814 112.114 345.986 111.672 348.552 114.421C351.119 117.17 352.616 151.533 352.616 151.533L343.206 153.497L337.646 129.148L340.64 116.188Z" fill="#3F3D56"/>
<path d="M287.471 153.453L288.171 183.982L309.694 194.427L348.892 188L349.855 156.265L325.006 148.231L287.471 153.453Z" fill="white"/>
<path d="M309.638 194.757L287.831 184.175L287.121 153.182L325.039 147.907L325.12 147.933L350.205 156.044L349.228 188.265L309.638 194.757ZM288.51 183.79L309.75 194.097L348.556 187.734L349.504 156.486L324.973 148.555L287.821 153.723L288.51 183.79Z" fill="#CACACA"/>
<path d="M309.214 161.731L309.13 161.7L287.344 153.746L287.597 153.16L309.3 161.083L349.808 155.952L349.902 156.578L309.214 161.731Z" fill="#CACACA"/>
<path d="M309.601 161.403L308.913 161.411L309.351 194.431L310.038 194.423L309.601 161.403Z" fill="#CACACA"/>
<path d="M306.461 160.15L298.608 157.227L336.414 151.695L344.267 154.618L306.461 160.15Z" fill="#CACACA"/>
<path d="M287.607 162.309L287.335 162.889L296.443 166.49L296.715 165.91L287.607 162.309Z" fill="#CACACA"/>
<path d="M291.731 172.724L291.459 173.304L300.568 176.905L300.84 176.325L291.731 172.724Z" fill="#92EAF1"/>
<path d="M167.715 195.867L168.415 226.397L189.939 236.841L229.137 230.414L230.099 198.679L205.251 190.645L167.715 195.867Z" fill="white"/>
<path d="M189.883 237.171L168.076 226.589L167.365 195.597L205.284 190.321L205.365 190.347L230.45 198.458L229.473 230.679L189.883 237.171ZM168.754 226.204L189.995 236.511L228.801 230.148L229.749 198.901L205.217 190.969L168.065 196.138L168.754 226.204Z" fill="#CACACA"/>
<path d="M189.459 204.145L189.374 204.114L167.588 196.16L167.842 195.574L189.544 203.497L230.052 198.367L230.146 198.992L189.459 204.145Z" fill="#CACACA"/>
<path d="M189.845 203.817L189.158 203.825L189.595 236.845L190.283 236.837L189.845 203.817Z" fill="#CACACA"/>
<path d="M184.803 201.846L178.852 199.641L216.659 194.11L222.609 196.314L184.803 201.846Z" fill="#CACACA"/>
<path d="M167.851 204.724L167.579 205.303L176.688 208.904L176.959 208.325L167.851 204.724Z" fill="#CACACA"/>
<path d="M171.976 215.139L171.704 215.719L180.812 219.32L181.084 218.74L171.976 215.139Z" fill="#92EAF1"/>
<path d="M205.108 200.053L205.921 235.493L230.906 247.617L276.409 240.156L277.526 203.318L248.681 193.991L205.108 200.053Z" fill="#008f97"/>
<path d="M230.841 248L205.527 235.716L204.702 199.739L248.719 193.615L248.813 193.645L277.933 203.061L276.799 240.464L230.841 248ZM206.314 235.27L230.971 247.234L276.019 239.848L277.119 203.574L248.642 194.367L205.514 200.367L206.314 235.27Z" fill="#3F3D56"/>
<path d="M230.349 209.662L230.251 209.627L204.961 200.394L205.255 199.713L230.448 208.91L277.471 202.955L277.58 203.68L230.349 209.662Z" fill="#3F3D56"/>
<path d="M230.797 209.282L229.999 209.291L230.507 247.622L231.305 247.613L230.797 209.282Z" fill="#3F3D56"/>
<path d="M225.349 207.01L218.036 204.434L261.923 198.013L269.236 200.589L225.349 207.01Z" fill="#3F3D56"/>
<path d="M205.266 210.334L204.95 211.007L215.524 215.187L215.839 214.514L205.266 210.334Z" fill="#3F3D56"/>
<path d="M210.054 222.424L209.738 223.097L220.312 227.277L220.627 226.604L210.054 222.424Z" fill="white"/>
<path d="M299.674 158.501C300.205 158.272 300.675 157.94 301.05 157.526C301.426 157.113 301.698 156.629 301.847 156.109C301.997 155.588 302.021 155.044 301.917 154.514C301.813 153.984 301.584 153.482 301.245 153.042L306.13 145.922L302.143 142.141L295.397 152.285C294.631 152.856 294.119 153.665 293.959 154.56C293.799 155.454 294.002 156.371 294.529 157.137C295.056 157.903 295.871 158.465 296.82 158.717C297.768 158.968 298.783 158.892 299.674 158.502V158.501Z" fill="#FFB6B6"/>
<path d="M323.397 113.789L319.897 111.672C319.897 111.672 317.196 112.228 314.323 117.301C311.451 122.374 299.867 145.056 299.867 145.056L304.629 149.494L317.331 131.7L323.397 113.789Z" fill="#3F3D56"/>
</g>
<defs>
<clipPath id="clip0_44:133">
<rect width="376" height="248" fill="white"/>
</clipPath>
</defs>
</svg>
